<svg width="40" height="40" viewBox="0 0 40 40" fill="none" xmlns="http://www.w3.org/2000/svg">
<path d="M26.3251 15.2854L29.2828 18.9998L9.35718 18.9998C8.80489 18.9998 8.35718 19.4475 8.35718 19.9998C8.35718 20.5521 8.80489 20.9998 9.35718 20.9998L29.2829 20.9998L26.3251 24.7142C25.9701 25.1373 26.0253 25.7681 26.4483 26.1231C26.8714 26.4781 27.5022 26.4229 27.8572 25.9998L32.1164 20.6512C32.1927 20.5624 32.2512 20.4627 32.2914 20.3572C32.3222 20.2768 32.3429 20.1913 32.352 20.1024C32.3554 20.0688 32.3571 20.035 32.3572 20.0012L32.3572 19.9998C32.3572 19.8401 32.3198 19.6892 32.2532 19.5553C32.2169 19.4821 32.1713 19.4127 32.1164 19.3488L27.8572 13.9998C27.5022 13.5767 26.8714 13.5216 26.4483 13.8766C26.0253 14.2316 25.9701 14.8623 26.3251 15.2854Z" fill="#201E28"/>
</svg>
