<svg width="56" height="56" viewBox="0 0 56 56" fill="none" xmlns="http://www.w3.org/2000/svg">
<path d="M9 20C7.89543 20 7 20.8954 7 22V26C7 27.1046 7.89543 28 9 28H25C26.1046 28 27 27.1046 27 26V22C27 20.8954 26.1046 20 25 20H9Z" fill="black"/>
<path d="M45 40C42.7909 40 41 41.7909 41 44C41 46.2091 42.7909 48 45 48C47.2091 48 49 46.2091 49 44C49 41.7909 47.2091 40 45 40Z" fill="black"/>
<path fill-rule="evenodd" clip-rule="evenodd" d="M40 36C40 37.1046 39.1046 38 38 38H18C16.8954 38 16 37.1046 16 36V32C16 30.8954 16.8954 30 18 30H38C39.1046 30 40 30.8954 40 32V36ZM18 32H30V36H18V32ZM38 36H32V32H38V36Z" fill="black"/>
<path fill-rule="evenodd" clip-rule="evenodd" d="M15 8V5C15 4.44772 15.4477 4 16 4C16.5523 4 17 4.44772 17 5V8H39V5C39 4.44772 39.4477 4 40 4C40.5523 4 41 4.44772 41 5V8H44C48.6326 8 52.4476 11.5 52.9451 16H53V43C53 47.9706 48.9706 52 44 52H12C7.02944 52 3 47.9706 3 43V16H3.05493C3.55237 11.5 7.36745 8 12 8H15ZM5 18H51V43C51 46.866 47.866 50 44 50H12C8.13401 50 5 46.866 5 43V18ZM44 10C47.5265 10 50.4439 12.6077 50.9291 16H5.07089C5.55612 12.6077 8.47353 10 12 10H44Z" fill="black"/>
</svg>
