<svg width="56" height="56" viewBox="0 0 56 56" fill="none" xmlns="http://www.w3.org/2000/svg">
<path d="M11 10C11 12.2091 9.20914 14 7 14C4.79086 14 3 12.2091 3 10C3 7.79086 4.79086 6 7 6C9.20914 6 11 7.79086 11 10Z" fill="black"/>
<path fill-rule="evenodd" clip-rule="evenodd" d="M35 14C36.1046 14 37 13.1046 37 12V8C37 6.89543 36.1046 6 35 6H15C13.8954 6 13 6.89543 13 8V12C13 13.1046 13.8954 14 15 14H35ZM27 8H15V12H27V8ZM29 12H35V8H29V12Z" fill="black"/>
<path fill-rule="evenodd" clip-rule="evenodd" d="M45 38C46.1046 38 47 37.1046 47 36V32C47 30.8954 46.1046 30 45 30H17C15.8954 30 15 30.8954 15 32V36C15 37.1046 15.8954 38 17 38H45ZM23 32H17V36H23V32ZM45 36V32H25V36H45Z" fill="black"/>
<path fill-rule="evenodd" clip-rule="evenodd" d="M37 42C38.1046 42 39 42.8954 39 44V48C39 49.1046 38.1046 50 37 50H25C23.8954 50 23 49.1046 23 48V44C23 42.8954 23.8954 42 25 42H37ZM32 44H37V48H32V44ZM30 44H25V48H30V44Z" fill="black"/>
<path fill-rule="evenodd" clip-rule="evenodd" d="M51 26C52.1046 26 53 25.1046 53 24V20C53 18.8954 52.1046 18 51 18H35C33.8954 18 33 18.8954 33 20V24C33 25.1046 33.8954 26 35 26H51ZM47 20H35V24H47V20ZM49 24H51V20H49V24Z" fill="black"/>
<path d="M11 22C11 24.2091 9.20914 26 7 26C4.79086 26 3 24.2091 3 22C3 19.7909 4.79086 18 7 18C9.20914 18 11 19.7909 11 22Z" fill="black"/>
<path d="M11 34C11 36.2091 9.20914 38 7 38C4.79086 38 3 36.2091 3 34C3 31.7909 4.79086 30 7 30C9.20914 30 11 31.7909 11 34Z" fill="black"/>
<path d="M11 46C11 48.2091 9.20914 50 7 50C4.79086 50 3 48.2091 3 46C3 43.7909 4.79086 42 7 42C9.20914 42 11 43.7909 11 46Z" fill="black"/>
</svg>
