<svg width="56" height="56" viewBox="0 0 56 56" fill="none" xmlns="http://www.w3.org/2000/svg">
<path fill-rule="evenodd" clip-rule="evenodd" d="M12 30C13.1046 30 14 29.1046 14 28C14 26.8954 13.1046 26 12 26C10.8954 26 10 26.8954 10 28C10 29.1046 10.8954 30 12 30ZM28 30C29.1046 30 30 29.1046 30 28C30 26.8954 29.1046 26 28 26C26.8954 26 26 26.8954 26 28C26 29.1046 26.8954 30 28 30ZM44 30C45.1046 30 46 29.1046 46 28C46 26.8954 45.1046 26 44 26C42.8954 26 42 26.8954 42 28C42 29.1046 42.8954 30 44 30ZM12 32C14.2091 32 16 30.2091 16 28C16 25.7909 14.2091 24 12 24C9.79086 24 8 25.7909 8 28C8 30.2091 9.79086 32 12 32ZM28 32C30.2091 32 32 30.2091 32 28C32 25.7909 30.2091 24 28 24C25.7909 24 24 25.7909 24 28C24 30.2091 25.7909 32 28 32ZM48 28C48 30.2091 46.2091 32 44 32C41.7909 32 40 30.2091 40 28C40 25.7909 41.7909 24 44 24C46.2091 24 48 25.7909 48 28Z" fill="black"/>
</svg>
