<svg width="56" height="56" viewBox="0 0 56 56" fill="none" xmlns="http://www.w3.org/2000/svg">
<path d="M37.293 16.2072C37.6833 16.5977 38.3167 16.5977 38.707 16.2072L42.707 12.2072C43.0977 11.8166 43.0977 11.1835 42.707 10.7929L38.707 6.79288C38.3167 6.40237 37.6833 6.40237 37.293 6.79288C36.9023 7.1835 36.9023 7.81656 37.293 8.20718L39.5857 10.5H32C25.9248 10.5 21 15.425 21 21.5C21 22.0523 21.4478 22.5 22 22.5C22.5522 22.5 23 22.0523 23 21.5C23 16.5294 27.0295 12.5 32 12.5H39.5857L37.293 14.7929C36.9023 15.1835 36.9023 15.8166 37.293 16.2072Z" fill="black"/>
<path d="M17.293 29.2072C17.6833 29.5977 18.3167 29.5977 18.707 29.2072C19.0977 28.8166 19.0977 28.1835 18.707 27.7929L16.4143 25.5H24C28.9705 25.5 33 29.5294 33 34.5C33 37.0179 31.9673 39.2928 30.3 40.9274C29.9055 41.314 29.8992 41.9472 30.2859 42.3415C30.6726 42.7359 31.3057 42.7422 31.7 42.3556C33.7354 40.3603 35 37.5769 35 34.5C35 28.425 30.0752 23.5 24 23.5H16.4143L18.707 21.2072C19.0977 20.8166 19.0977 20.1835 18.707 19.7929C18.3167 19.4024 17.6833 19.4024 17.293 19.7929L13.293 23.7929C12.9023 24.1835 12.9023 24.8166 13.293 25.2072L17.293 29.2072Z" fill="black"/>
<path d="M38.707 39.7929C38.3167 39.4024 37.6833 39.4024 37.293 39.7929C36.9023 40.1835 36.9023 40.8166 37.293 41.2072L39.5857 43.5H32C31.4478 43.5 31 43.9478 31 44.5C31 45.0523 31.4478 45.5 32 45.5H39.5857L37.293 47.7929C36.9023 48.1835 36.9023 48.8166 37.293 49.2072C37.6833 49.5977 38.3167 49.5977 38.707 49.2072L42.707 45.2072C43.0977 44.8166 43.0977 44.1835 42.707 43.7929L38.707 39.7929Z" fill="black"/>
<path d="M8 48.5C10.2091 48.5 12 46.7091 12 44.5C12 42.2909 10.2091 40.5 8 40.5C5.79089 40.5 4 42.2909 4 44.5C4 46.7091 5.79089 48.5 8 48.5Z" fill="black"/>
<path d="M30 44.5C30 46.7091 28.2092 48.5 26 48.5C23.7908 48.5 22 46.7091 22 44.5C22 42.2909 23.7908 40.5 26 40.5C28.2092 40.5 30 42.2909 30 44.5Z" fill="black"/>
<path fill-rule="evenodd" clip-rule="evenodd" d="M52 44.5C52 46.7091 50.2092 48.5 48 48.5C45.7908 48.5 44 46.7091 44 44.5C44 42.2909 45.7908 40.5 48 40.5C50.2092 40.5 52 42.2909 52 44.5ZM50.3535 42.6465C50.5488 42.8417 50.5488 43.1584 50.3535 43.3535L47.3535 46.3535C47.1582 46.5489 46.8418 46.5489 46.6465 46.3535L45.6465 45.3535C45.4512 45.1584 45.4512 44.8417 45.6465 44.6465C45.8418 44.4512 46.1582 44.4512 46.3535 44.6465L47 45.2929L49.6465 42.6465C49.8418 42.4512 50.1582 42.4512 50.3535 42.6465Z" fill="black"/>
<path fill-rule="evenodd" clip-rule="evenodd" d="M8 28.5C10.2091 28.5 12 26.7091 12 24.5C12 22.2909 10.2091 20.5 8 20.5C5.79089 20.5 4 22.2909 4 24.5C4 26.7091 5.79089 28.5 8 28.5ZM10.3535 23.3535C10.5488 23.1584 10.5488 22.8417 10.3535 22.6465C10.1583 22.4512 9.84167 22.4512 9.64648 22.6465L7 25.2929L6.35352 24.6465C6.15833 24.4512 5.84167 24.4512 5.64648 24.6465C5.45117 24.8417 5.45117 25.1584 5.64648 25.3535L6.64648 26.3535C6.84167 26.5489 7.15833 26.5489 7.35352 26.3535L10.3535 23.3535Z" fill="black"/>
<path fill-rule="evenodd" clip-rule="evenodd" d="M52 11.5C52 13.7091 50.2092 15.5 48 15.5C45.7908 15.5 44 13.7091 44 11.5C44 9.29092 45.7908 7.50003 48 7.50003C50.2092 7.50003 52 9.29092 52 11.5ZM50.3535 9.64651C50.5488 9.84171 50.5488 10.1584 50.3535 10.3535L47.3535 13.3535C47.1582 13.5489 46.8418 13.5489 46.6465 13.3535L45.6465 12.3535C45.4512 12.1584 45.4512 11.8417 45.6465 11.6465C45.8418 11.4512 46.1582 11.4512 46.3535 11.6465L47 12.2929L49.6465 9.64651C49.8418 9.4512 50.1582 9.4512 50.3535 9.64651Z" fill="black"/>
<path d="M14 43.5H20C20.5522 43.5 21 43.9478 21 44.5C21 45.0523 20.5522 45.5 20 45.5H14C13.4478 45.5 13 45.0523 13 44.5C13 43.9478 13.4478 43.5 14 43.5Z" fill="black"/>
</svg>
