<svg width="56" height="56" viewBox="0 0 56 56" fill="none" xmlns="http://www.w3.org/2000/svg">
<path fill-rule="evenodd" clip-rule="evenodd" d="M9 15C12.3137 15 15 12.3137 15 9C15 5.68629 12.3137 3 9 3C5.68629 3 3 5.68629 3 9C3 12.3137 5.68629 15 9 15ZM7.21973 5.21973C6.92676 5.51257 6.92676 5.98743 7.21973 6.28027L9.93933 9L7.21973 11.7197C6.92676 12.0126 6.92676 12.4874 7.21973 12.7803C7.51257 13.0732 7.98743 13.0732 8.28027 12.7803L11.5303 9.53027C11.8232 9.23743 11.8232 8.76257 11.5303 8.46973L8.28027 5.21973C7.98743 4.92676 7.51257 4.92676 7.21973 5.21973Z" fill="black"/>
<path d="M41 9C41 11.2091 39.2091 13 37 13C34.7909 13 33 11.2091 33 9C33 6.79086 34.7909 5 37 5C39.2091 5 41 6.79086 41 9Z" fill="black"/>
<path d="M29 33C31.2091 33 33 31.2091 33 29C33 26.7909 31.2091 25 29 25C26.7909 25 25 26.7909 25 29C25 31.2091 26.7909 33 29 33Z" fill="black"/>
<path d="M25 49C25 51.2091 23.2091 53 21 53C18.7909 53 17 51.2091 17 49C17 46.7909 18.7909 45 21 45C23.2091 45 25 46.7909 25 49Z" fill="black"/>
<path d="M50.0001 45.126V34.5C50.0001 34.2239 49.7762 34 49.5001 34H38.0001C37.6008 34 37.3625 34.4451 37.5841 34.7773L40.3992 39L37.5841 43.2227C37.3625 43.5549 37.6008 44 38.0001 44H48.0001L48.0002 45.126C46.2748 45.57 45 47.1361 45 49C45 51.2091 46.7909 53 49 53C51.2091 53 53 51.2091 53 49C53 47.1361 51.7254 45.57 50.0001 45.126Z" fill="black"/>
<path d="M16 9C16 8.44772 16.4477 8 17 8H31C31.5523 8 32 8.44772 32 9C32 9.55228 31.5523 10 31 10H17C16.4477 10 16 9.55228 16 9Z" fill="black"/>
<path d="M27 48C26.4477 48 26 48.4477 26 49C26 49.5523 26.4477 50 27 50H43C43.5523 50 44 49.5523 44 49C44 48.4477 43.5523 48 43 48H27Z" fill="black"/>
<path d="M42.0836 9.43142C42.3048 8.92534 42.8943 8.69432 43.4004 8.91544C47.2833 10.612 50 14.4875 50 18.9997C50 25.0748 45.0751 29.9997 39 29.9997H35C34.4477 29.9997 34 29.552 34 28.9997C34 28.4474 34.4477 27.9997 35 27.9997H39C43.9706 27.9997 48 23.9703 48 18.9997C48 15.3107 45.7803 12.1379 42.5996 10.7481C42.0935 10.527 41.8625 9.93751 42.0836 9.43142Z" fill="black"/>
<path d="M14.5996 49.0843C15.1057 49.3054 15.6952 49.0744 15.9164 48.5683C16.1375 48.0622 15.9065 47.4727 15.4004 47.2516C12.2197 45.8618 10 42.689 10 39C10 34.0294 14.0294 30 19 30H23C23.5523 30 24 29.5523 24 29C24 28.4477 23.5523 28 23 28H19C12.9249 28 8 32.9249 8 39C8 43.5123 10.7167 47.3878 14.5996 49.0843Z" fill="black"/>
</svg>
