<svg width="56" height="56" viewBox="0 0 56 56" fill="none" xmlns="http://www.w3.org/2000/svg">
<path fill-rule="evenodd" clip-rule="evenodd" d="M31.5 42.5C31.5 44.433 29.933 46 28 46C26.067 46 24.5 44.433 24.5 42.5C24.5 40.567 26.067 39 28 39C29.933 39 31.5 40.567 31.5 42.5ZM23.75 47C22.7835 47 22 47.7835 22 48.75L22 49C22 50.1968 22.7613 51.2087 23.8425 51.8967C24.9295 52.5885 26.4008 53 28 53C29.5991 53 31.0704 52.5885 32.1575 51.8967C33.2387 51.2087 34 50.1968 34 49V48.75C34 47.7835 33.2165 47 32.25 47H23.75ZM24 49.375C24 49.1679 24.2686 49 24.6 49H31.4C31.7314 49 32 49.1679 32 49.375V49.5C32 49.8681 31.6241 50.2372 30.8965 50.5265C30.1737 50.814 29.1507 51 28 51C26.8493 51 25.8263 50.814 25.1035 50.5265C24.3759 50.2372 24 49.8681 24 49.5L24 49.375ZM29.5 42.5C29.5 41.6716 28.8284 41 28 41C27.1716 41 26.5 41.6716 26.5 42.5C26.5 43.3284 27.1716 44 28 44C28.8284 44 29.5 43.3284 29.5 42.5Z" fill="black"/>
<path fill-rule="evenodd" clip-rule="evenodd" d="M11.5 20.5C11.5 22.433 9.93299 24 8 24C6.067 24 4.5 22.433 4.5 20.5C4.5 18.567 6.067 17 8 17C9.93299 17 11.5 18.567 11.5 20.5ZM3.75 25C2.78348 25 1.99997 25.7835 2 26.75L2.00001 27C2.00001 28.1968 2.76132 29.2087 3.84246 29.8967C4.92953 30.5885 6.40077 31 7.99996 31C9.59915 31 11.0704 30.5885 12.1575 29.8967C13.2387 29.2087 14 28.1968 14 27V26.75C14 25.7835 13.2165 25 12.25 25H3.75ZM4 27.375C3.99999 27.1679 4.26862 27 4.6 27H11.4C11.7314 27 12 27.1679 12 27.375V27.5C12 27.8681 11.6241 28.2372 10.8965 28.5265C10.1737 28.814 9.15067 29 7.99997 29C6.84927 29 5.82628 28.814 5.10347 28.5265C4.37591 28.2372 4.00001 27.8681 4.00001 27.5L4 27.375ZM9.5 20.5C9.5 19.6716 8.82843 19 8 19C7.17157 19 6.5 19.6716 6.5 20.5C6.5 21.3284 7.17157 22 8 22C8.82843 22 9.5 21.3284 9.5 20.5Z" fill="black"/>
<path fill-rule="evenodd" clip-rule="evenodd" d="M51.5 20.5C51.5 22.433 49.933 24 48 24C46.067 24 44.5 22.433 44.5 20.5C44.5 18.567 46.067 17 48 17C49.933 17 51.5 18.567 51.5 20.5ZM43.75 25C42.7835 25 42 25.7835 42 26.75L42 27C42 28.1968 42.7613 29.2087 43.8425 29.8967C44.9295 30.5885 46.4008 31 48 31C49.5991 31 51.0704 30.5885 52.1575 29.8967C53.2387 29.2087 54 28.1968 54 27V26.75C54 25.7835 53.2165 25 52.25 25H43.75ZM44 27.375C44 27.1679 44.2686 27 44.6 27H51.4C51.7314 27 52 27.1679 52 27.375V27.5C52 27.8681 51.6241 28.2372 50.8965 28.5265C50.1737 28.814 49.1507 29 48 29C46.8493 29 45.8263 28.814 45.1035 28.5265C44.3759 28.2372 44 27.8681 44 27.5L44 27.375ZM49.5 20.5C49.5 19.6716 48.8284 19 48 19C47.1716 19 46.5 19.6716 46.5 20.5C46.5 21.3284 47.1716 22 48 22C48.8284 22 49.5 21.3284 49.5 20.5Z" fill="black"/>
<path fill-rule="evenodd" clip-rule="evenodd" d="M31.5 6.49999C31.5 8.43298 29.933 9.99998 28 9.99998C26.067 9.99998 24.5 8.43298 24.5 6.49999C24.5 4.567 26.067 3 28 3C29.933 3 31.5 4.567 31.5 6.49999ZM23.75 11C22.7835 11 22 11.7835 22 12.75L22 13C22 14.1968 22.7613 15.2087 23.8425 15.8967C24.9295 16.5885 26.4008 17 28 17C29.5991 17 31.0704 16.5885 32.1575 15.8967C33.2387 15.2087 34 14.1968 34 13V12.75C34 11.7835 33.2165 11 32.25 11H23.75ZM24 13.375C24 13.1679 24.2686 13 24.6 13H31.4C31.7314 13 32 13.1679 32 13.375V13.5C32 13.8681 31.6241 14.2372 30.8965 14.5265C30.1737 14.814 29.1507 15 28 15C26.8493 15 25.8263 14.814 25.1035 14.5265C24.3759 14.2372 24 13.8681 24 13.5L24 13.375ZM29.5 6.5C29.5 5.67157 28.8284 5 28 5C27.1716 5 26.5 5.67157 26.5 6.5C26.5 7.32842 27.1716 7.99999 28 7.99999C28.8284 7.99999 29.5 7.32842 29.5 6.5Z" fill="black"/>
<path d="M21 29C21 25.6863 23.6863 23 27 23C30.3137 23 33 25.6863 33 29C33 29.9221 32.7927 30.7929 32.4231 31.5709C32.1861 32.0698 32.3984 32.6663 32.8973 32.9033C33.3961 33.1402 33.9926 32.9279 34.2296 32.4291C34.7239 31.3886 35 30.2251 35 29C35 24.5817 31.4183 21 27 21C22.5817 21 19 24.5817 19 29C19 33.4183 22.5817 37 27 37H41.5858L39.2929 39.2929C38.9024 39.6834 38.9024 40.3166 39.2929 40.7071C39.6834 41.0976 40.3166 41.0976 40.7071 40.7071L44.7071 36.7071C45.0976 36.3166 45.0976 35.6834 44.7071 35.2929L40.7071 31.2929C40.3166 30.9024 39.6834 30.9024 39.2929 31.2929C38.9024 31.6834 38.9024 32.3166 39.2929 32.7071L41.5858 35H27C23.6863 35 21 32.3137 21 29Z" fill="black"/>
<path d="M21 36C21 36.5523 20.5523 37 20 37L12 37C11.4477 37 11 36.5523 11 36C11 35.4477 11.4477 35 12 35L20 35C20.5523 35 21 35.4477 21 36Z" fill="black"/>
</svg>
