<svg width="1600" height="1200" viewBox="0 0 1600 1200" fill="none" xmlns="http://www.w3.org/2000/svg">
<g clip-path="url(#clip0_3175_37877)">
<path d="M1600 0H0V1200H1600V0Z" fill="white"/>
<path d="M1229.43 789.89H1332.74C1357.21 789.89 1377.04 809.72 1377.04 834.19V937.5C1377.04 961.97 1357.21 981.8 1332.74 981.8H1229.43C1204.96 981.8 1185.13 961.97 1185.13 937.5V834.19C1185.13 809.72 1204.96 789.89 1229.43 789.89Z" fill="white" stroke="#201E28" stroke-width="4"/>
<path d="M1239.73 224.15C1255.56 242.65 1265.84 266.8 1261.31 288.08C1256.79 309.25 1237.47 327.55 1214.55 338.65C1191.63 349.85 1165.21 353.86 1146.41 344.09C1127.7 334.23 1116.7 310.38 1111.15 285.51C1105.6 260.64 1105.4 234.63 1117.93 216.85C1130.58 199.07 1155.96 189.61 1179.3 191.16C1202.63 192.8 1223.9 205.65 1239.73 224.15Z" fill="white" stroke="#201E28" stroke-width="4"/>
<path d="M1318.15 805.41C1312.4 744.81 1289.34 658.78 1225.1 668.91C1160.86 679.04 1053.62 837.01 1101.24 882.68C1145.87 925.42 1209.08 756.45 1157.37 669.29C1105.66 582.12 990.31 673.99 1029.79 701.33C1055.35 719.04 1105.73 656.2 1039.17 576.11" stroke="#201E28" stroke-width="4" stroke-linecap="round" stroke-linejoin="round"/>
<path d="M393.25 226.46H727.94C753.76 226.46 774.66 249 774.66 276.95V698.6C774.66 726.44 753.76 748.98 727.94 748.98H393.25C367.43 748.98 346.52 726.44 346.52 698.6V276.95C346.52 249.11 367.43 226.46 393.25 226.46Z" fill="white" stroke="#201E28" stroke-width="4"/>
<path d="M744.76 282.02H376.04V713.42H744.76V282.02Z" fill="white" stroke="#201E28" stroke-width="4"/>
<path d="M446.71 361.909H522.91C526 361.929 528.96 363.159 531.15 365.349C533.34 367.539 534.56 370.499 534.59 373.579C534.56 376.669 533.34 379.629 531.15 381.819C528.96 384.009 526 385.239 522.91 385.259H446.71C443.63 385.239 440.67 384.009 438.48 381.819C436.29 379.629 435.06 376.669 435.04 373.579C435.06 370.499 436.29 367.539 438.48 365.349C440.67 363.159 443.63 361.929 446.71 361.909Z" fill="white" stroke="#201E28" stroke-width="4"/>
<path d="M569.62 361.909H596.66C599.74 361.929 602.7 363.159 604.89 365.349C607.08 367.539 608.31 370.499 608.33 373.579C608.31 376.669 607.08 379.629 604.89 381.819C602.7 384.009 599.74 385.239 596.66 385.259H569.62C566.53 385.239 563.57 384.009 561.38 381.819C559.19 379.629 557.97 376.669 557.94 373.579C557.97 370.499 559.19 367.539 561.38 365.349C563.57 363.159 566.53 361.929 569.62 361.909Z" fill="white" stroke="#201E28" stroke-width="4"/>
<path d="M642.13 361.909H669.17C672.26 361.929 675.22 363.159 677.4 365.349C679.59 367.539 680.82 370.499 680.85 373.579C680.82 376.669 679.59 379.629 677.4 381.819C675.22 384.009 672.26 385.239 669.17 385.259H642.13C639.05 385.239 636.08 384.009 633.9 381.819C631.71 379.629 630.48 376.669 630.46 373.579C630.48 370.499 631.71 367.539 633.9 365.349C636.08 363.159 639.05 361.929 642.13 361.909Z" fill="white" stroke="#201E28" stroke-width="4"/>
<path d="M446.71 548.109H522.91C526 548.129 528.96 549.359 531.15 551.549C533.34 553.739 534.56 556.699 534.59 559.789C534.56 562.869 533.34 565.829 531.15 568.019C528.96 570.209 526 571.439 522.91 571.459H446.71C443.63 571.439 440.67 570.209 438.48 568.019C436.29 565.829 435.06 562.869 435.04 559.789C435.06 556.699 436.29 553.739 438.48 551.549C440.67 549.359 443.63 548.129 446.71 548.109Z" fill="white" stroke="#201E28" stroke-width="4"/>
<path d="M569.62 548.109H669.17C672.26 548.129 675.22 549.359 677.4 551.549C679.59 553.739 680.82 556.699 680.85 559.789C680.82 562.869 679.59 565.829 677.4 568.019C675.22 570.209 672.26 571.439 669.17 571.459H569.62C566.53 571.439 563.57 570.209 561.38 568.019C559.19 565.829 557.97 562.869 557.94 559.789C557.97 556.699 559.19 553.739 561.38 551.549C563.57 549.359 566.53 548.129 569.62 548.109Z" fill="white" stroke="#201E28" stroke-width="4"/>
<path d="M446.71 486.039H564.7C567.79 486.069 570.75 487.299 572.94 489.479C575.12 491.669 576.35 494.629 576.38 497.719C576.35 500.799 575.12 503.769 572.94 505.949C570.75 508.139 567.79 509.369 564.7 509.389H446.71C443.63 509.369 440.67 508.139 438.48 505.949C436.29 503.769 435.06 500.799 435.04 497.719C435.06 494.629 436.29 491.669 438.48 489.479C440.67 487.299 443.63 486.069 446.71 486.039Z" fill="white" stroke="#201E28" stroke-width="4"/>
<path d="M520.46 423.979H596.66C599.74 423.999 602.7 425.229 604.89 427.419C607.08 429.599 608.31 432.569 608.33 435.649C608.31 438.739 607.08 441.699 604.89 443.889C602.7 446.069 599.74 447.299 596.66 447.329H520.46C517.37 447.299 514.41 446.069 512.22 443.889C510.03 441.699 508.8 438.739 508.78 435.649C508.8 432.569 510.03 429.599 512.22 427.419C514.41 425.229 517.37 423.999 520.46 423.979Z" fill="white" stroke="#201E28" stroke-width="4"/>
<path d="M446.71 423.979H473.75C476.84 423.999 479.8 425.229 481.99 427.419C484.17 429.599 485.4 432.569 485.43 435.649C485.4 438.739 484.17 441.699 481.99 443.889C479.8 446.069 476.84 447.299 473.75 447.329H446.71C443.63 447.299 440.67 446.069 438.48 443.889C436.29 441.699 435.06 438.739 435.04 435.649C435.06 432.569 436.29 429.599 438.48 427.419C440.67 425.229 443.63 423.999 446.71 423.979Z" fill="white" stroke="#201E28" stroke-width="4"/>
<path d="M642.13 423.979H669.17C672.26 423.999 675.22 425.229 677.4 427.419C679.59 429.599 680.82 432.569 680.85 435.649C680.82 438.739 679.59 441.699 677.4 443.889C675.22 446.069 672.26 447.299 669.17 447.329H642.13C639.05 447.299 636.08 446.069 633.9 443.889C631.71 441.699 630.48 438.739 630.46 435.649C630.48 432.569 631.71 429.599 633.9 427.419C636.08 425.229 639.05 423.999 642.13 423.979Z" fill="white" stroke="#201E28" stroke-width="4"/>
<path d="M520.46 610.18H669.17C672.26 610.2 675.22 611.43 677.4 613.62C679.59 615.81 680.82 618.77 680.85 621.85C680.82 624.94 679.59 627.9 677.4 630.09C675.22 632.27 672.26 633.5 669.17 633.53H520.46C517.37 633.5 514.41 632.27 512.22 630.09C510.03 627.9 508.8 624.94 508.78 621.85C508.8 618.77 510.03 615.81 512.22 613.62C514.41 611.43 517.37 610.2 520.46 610.18Z" fill="white" stroke="#201E28" stroke-width="4"/>
<path d="M446.71 610.18H473.75C476.84 610.2 479.8 611.43 481.99 613.62C484.17 615.81 485.4 618.77 485.43 621.85C485.4 624.94 484.17 627.9 481.99 630.09C479.8 632.27 476.84 633.5 473.75 633.53H446.71C443.63 633.5 440.67 632.27 438.48 630.09C436.29 627.9 435.06 624.94 435.04 621.85C435.06 618.77 436.29 615.81 438.48 613.62C440.67 611.43 443.63 610.2 446.71 610.18Z" fill="white" stroke="#201E28" stroke-width="4"/>
<path d="M270.2 760.18L404.48 710.59C404.65 710.59 404.81 710.59 404.65 710.75L358.68 846.36C358.68 846.52 358.51 846.52 358.35 846.36L341.05 807.14C341.05 806.98 340.88 806.98 340.72 807.14L309.74 838.94H309.58L278.6 808.95V808.79L309.58 776.99C309.58 776.82 309.58 776.82 309.58 776.66L270.2 760.68C270.2 760.35 270.2 760.18 270.2 760.18Z" fill="white" stroke="#201E28" stroke-width="4"/>
<path d="M169.41 590.78C197.65 610.55 260.35 585.69 298.95 561.69C341.88 534.95 343.3 506.99 325.97 507.27C301.87 507.65 243.41 582.87 278.34 598.59C307.14 611.68 359.02 586.73 372.76 601.79C386.51 616.86 392.91 650.56 430.66 667.32" stroke="#201E28" stroke-width="4" stroke-linecap="round" stroke-linejoin="round"/>
<path d="M497.3 1005.44V943.54" stroke="#201E28" stroke-width="4" stroke-linecap="round" stroke-linejoin="round"/>
<path d="M466.35 974.49H528.25" stroke="#201E28" stroke-width="4" stroke-linecap="round" stroke-linejoin="round"/>
<path d="M225.49 452.58V486.08" stroke="#201E28" stroke-width="4" stroke-linecap="round" stroke-linejoin="round"/>
<path d="M242.23 469.33H208.74" stroke="#201E28" stroke-width="4" stroke-linecap="round" stroke-linejoin="round"/>
<path d="M954.39 170.94V225.41" stroke="#201E28" stroke-width="4" stroke-linecap="round" stroke-linejoin="round"/>
<path d="M981.63 198.181H927.16" stroke="#201E28" stroke-width="4" stroke-linecap="round" stroke-linejoin="round"/>
<path d="M184.62 323.94L265.56 255.37L380.94 393.51L184.62 323.94Z" fill="white" stroke="#201E28" stroke-width="4"/>
<path d="M586.28 731.4L715.18 873.28L645.07 982.67L586.28 731.4Z" fill="white" stroke="#201E28" stroke-width="4"/>
<path d="M906.47 419.539L908.85 418.609L909.47 418.189C909.99 415.809 910.4 413.639 910.61 410.949C912.16 395.929 910.09 378.539 911.33 371.089L911.95 366.739C914.65 352.659 914.75 332.889 899.53 319.119C889.9 310.519 887.94 315.179 873.55 315.179C865.99 315.179 867.96 314.349 860.92 317.149C851.6 320.669 835.45 313.419 831 320.979C826.75 328.119 823.65 337.649 820.13 348.309L819.61 350.169C813.91 350.999 810.71 352.559 810.19 354.729C809.26 358.349 813.71 364.149 814.43 365.189C814.43 365.289 814.43 365.289 814.43 365.389C808.43 384.129 808.63 394.479 815.05 403.489C819.09 409.079 827.17 412.289 836.79 412.289C840.21 412.289 843.63 411.769 846.94 410.839C847.04 410.839 847.25 410.949 847.25 411.049L846.22 418.189C846.22 418.189 846.42 418.499 846.42 418.609V419.429C846.42 419.539 846.53 419.539 846.63 419.539L904.09 419.639L906.47 419.539Z" fill="white" stroke="#201E28" stroke-width="4"/>
<path d="M726.33 462.19L720.74 454.74C720.74 454.74 715.46 448.53 692.48 430.41C677.57 418.4 651.69 405.56 633.26 405.56C631.91 405.56 630.46 405.67 629.12 405.77C624.98 406.29 622.18 407.63 620.53 410.22C617.21 410.74 614.63 412.19 613.59 414.26C612.55 416.12 612.66 418.61 613.9 421.09C613.28 421.82 610.07 425.54 613.49 430.93C616.8 436 636.26 446.87 636.47 446.97C633.47 446.56 630.46 446.35 627.46 446.35C620.11 446.35 614.52 447.8 612.45 450.18C611.62 451.11 611.52 452.46 612.14 453.6C613.69 456.81 624.77 460.74 647.75 466.23C656.04 480.83 671.05 489 672.19 489.52L674.67 493.56L683.88 505.57L726.33 462.19Z" fill="white" stroke="#201E28" stroke-width="4"/>
<path d="M910.71 410.84C910.71 410.84 917.13 375.23 918.17 368.91L918.27 368.19C920.96 354.11 925.93 327.92 910.71 314.15C901.08 305.55 887.21 300.59 872.72 300.59C864.95 300.59 857.4 302.03 850.46 304.73C842.28 307.63 835.45 313.42 831.05 320.86C830.81 321.46 833.27 330.3 843.73 330.3C845.08 330.3 846.42 330.09 846.35 330.89C846.84 331.64 843.73 338.06 846.01 342.1C847.25 344.17 849.63 345.21 853.25 345.21C855.22 345.21 857.19 345 856.99 345.13C854.08 360.32 863.81 368.6 865.78 370.05L866.09 370.36L866.3 370.16C866.4 370.05 877.48 359.8 887.21 359.8H887.52C891.25 359.8 894.67 361.77 896.84 364.98C905.43 377.4 884.21 399.14 884.21 399.14C891.56 410.63 910.09 410.95 910.19 410.95L910.71 410.84Z" fill="white" stroke="#201E28" stroke-width="4"/>
<path d="M951.09 627.629C972.41 616.449 991.26 587.559 985.98 554.019C983.28 536.519 976.56 513.329 967.34 490.349C958.96 469.129 950.05 451.939 944.05 445.419C930.38 430.409 910.61 426.989 908.33 426.679C908.64 425.229 909.47 418.189 909.47 418.189H846.22L843.83 430.409C843.73 430.409 843.63 430.409 843.52 430.409H842.9C842.59 430.409 842.18 430.409 841.76 430.409C825.92 430.409 793.31 438.279 753.35 490.559C751.69 488.589 737.51 472.339 720.84 454.839L720.74 454.739L674.67 493.559C687.82 520.269 715.46 565.509 752.42 567.689C753.14 567.689 753.87 567.789 754.59 567.789C767.95 567.789 783.06 560.749 793.31 554.739C799.94 550.909 806.25 546.669 812.36 542.009L824.78 598.739L825.2 599.779H925.1C926.03 600.399 938.98 609.719 950.88 627.519L951.09 627.629Z" fill="white" stroke="#201E28" stroke-width="4"/>
<path d="M933.07 964.71V963.88C932.87 946.18 931.42 928.58 928.73 911.08C926.97 899.49 924.48 888.52 921.38 875.37L920.96 873.5C917.03 856.84 912.99 839.55 911.23 819.15C909.99 805.28 910.71 790.79 913.4 772.25C923.76 794.82 935.56 816.77 948.71 837.79C957.2 851.25 967.65 865.95 978.73 881.58C995.81 905.7 1013.31 930.34 1025.73 953.43L1026.46 953.84L1099.13 992.35L1110.11 917.09L1109.69 915.85C1102.44 899.7 1093.96 884.27 1084.64 869.26C1078.43 859.32 1071.8 850.21 1063.73 839.34C1060.1 834.37 1056.06 829.5 1051.82 824.43C1043.95 814.91 1035.77 805.07 1028.73 793.17C1012.69 766.04 1003.99 749.38 994.57 722.77C975.52 668.73 957.09 622.14 924.07 598.43H923.96H862.99L824.78 598.74L824.68 599.05C818.47 623.18 805.32 727.94 819.82 833.65C821.27 843.79 823.96 862.74 826.96 883.03C830.69 907.46 835.24 938.73 838.86 964.4L838.97 964.81L891.97 1026.52L933.07 964.71Z" fill="white" stroke="#201E28" stroke-width="4"/>
<path d="M1138.99 1007.26L1139.2 1006.54C1139.2 1006.43 1139.2 1006.33 1139.2 1006.23C1132.47 975.69 1122.84 945.87 1110.21 917.3L1110.11 917.09L1100.58 921.23C1090.75 925.47 1084.53 935.21 1084.84 945.87L1085.36 962.23C1085.36 962.74 1084.84 962.95 1084.43 962.74L1067.76 949.91C1063.21 946.39 1057.62 944.52 1051.92 944.52C1048.4 944.52 1044.88 945.25 1041.57 946.7L1025.73 953.43L1025.94 953.74C1040.54 980.96 1044.99 1000.74 1039.5 1014.61C1035.77 1024.14 1029.35 1036.25 1025.11 1044.32C1024.18 1046.08 1023.35 1047.64 1022.73 1048.88C1021.18 1051.78 1020.04 1054.88 1019.42 1058.09L1019.83 1058.71L1138.68 1007.57C1138.78 1007.57 1138.89 1007.36 1138.99 1007.26Z" fill="white" stroke="#201E28" stroke-width="4"/>
<path d="M918.99 1062.13L924.17 1059.13C924.27 1059.02 924.38 1058.92 924.38 1058.82C930.38 1027.86 933.18 996.39 932.97 964.92V964.71H921.48C911.75 964.71 902.95 970.82 899.63 980.03L893.11 997.74C893.01 998.15 892.49 998.15 892.28 997.84L879.86 976.41C875.72 969.27 868.06 964.81 859.78 964.81H839.49C839.07 964.81 838.86 965.13 838.86 965.54C842.9 994.84 839.69 1016.16 829.55 1026.93C822.82 1034.07 812.88 1042.05 805.53 1047.84C803.67 1049.4 801.91 1050.74 800.56 1051.78C797.97 1053.85 795.59 1056.23 793.62 1058.92V1059.02L794.76 1060.47L917.03 1062.44H917.13L918.58 1062.13C918.99 1062.13 918.99 1062.13 918.99 1062.13Z" fill="white" stroke="#201E28" stroke-width="4"/>
<path d="M913.4 772.25C919.31 727.01 928.21 718.52 924.07 676.08" stroke="#201E28" stroke-width="4" stroke-linecap="round" stroke-linejoin="round"/>
<path d="M961.75 644.09H937.53" stroke="#201E28" stroke-width="4" stroke-linecap="round" stroke-linejoin="round"/>
<path d="M904.71 644.09H860.61" stroke="#201E28" stroke-width="4" stroke-linecap="round" stroke-linejoin="round"/>
<path d="M847.46 410.74C853.36 408.36 859.88 404.84 859.88 404.84" stroke="#201E28" stroke-width="4" stroke-linecap="round" stroke-linejoin="round"/>
<path d="M880.59 377.92L875.41 383.1" stroke="#201E28" stroke-width="4" stroke-linecap="round" stroke-linejoin="round"/>
<path d="M831.51 370.359C828.51 373.049 824.58 374.299 820.54 373.779" stroke="#201E28" stroke-width="4" stroke-linecap="round" stroke-linejoin="round"/>
<path d="M830.38 355.14C828.95 355.14 827.79 353.98 827.79 352.56C827.79 351.13 828.95 349.97 830.38 349.97C831.8 349.97 832.96 351.13 832.96 352.56C832.96 353.98 831.8 355.14 830.38 355.14Z" fill="#201E28" stroke="#201E28" stroke-width="4"/>
<path d="M937.53 516.649L924.07 598.429L824.78 598.739" stroke="#201E28" stroke-width="4" stroke-linecap="round" stroke-linejoin="round"/>
<path d="M948.91 570.07L929.55 564.89" stroke="#201E28" stroke-width="4" stroke-linecap="round" stroke-linejoin="round"/>
<path d="M812.47 541.6L839.18 520.79" stroke="#201E28" stroke-width="4" stroke-linecap="round" stroke-linejoin="round"/>
<path d="M753.45 490.87L749.11 518.72" stroke="#201E28" stroke-width="4" stroke-linecap="round" stroke-linejoin="round"/>
<path d="M1040.02 988L1060.72 983.55" stroke="#201E28" stroke-width="4" stroke-linecap="round" stroke-linejoin="round"/>
<path d="M1041.57 1005.71L1060.93 1007.78" stroke="#201E28" stroke-width="4" stroke-linecap="round" stroke-linejoin="round"/>
<path d="M840 1002.6L859.98 1006.64" stroke="#201E28" stroke-width="4" stroke-linecap="round" stroke-linejoin="round"/>
<path d="M835.76 1017.51L852.94 1029.11" stroke="#201E28" stroke-width="4" stroke-linecap="round" stroke-linejoin="round"/>
<path d="M620.53 410.22C635.23 414.36 649.93 418.92 664.21 424.51" stroke="#201E28" stroke-width="4" stroke-linecap="round" stroke-linejoin="round"/>
<path d="M613.9 421.09C631.5 425.23 655.93 436.93 655.93 436.93" stroke="#201E28" stroke-width="4" stroke-linecap="round" stroke-linejoin="round"/>
<path d="M636.47 446.97L648.69 451.42" stroke="#201E28" stroke-width="4" stroke-linecap="round" stroke-linejoin="round"/>
<path d="M1142.41 1025.07C1141.78 1019.27 1139.61 1008.5 1139.3 1006.64C1139.3 1006.54 1139.09 1006.43 1138.99 1006.54L1019.42 1058.09V1058.2C1017.97 1064.61 1018.59 1071.24 1021.28 1077.25L1021.38 1077.45L1142.41 1025.07Z" fill="white" stroke="#201E28" stroke-width="4"/>
<path d="M920.03 1077.25C921.69 1071.76 923.96 1060.89 924.38 1059.23C924.38 1059.13 924.27 1059.02 924.17 1059.02H793.83H793.73C790 1064.3 787.93 1070.72 788.03 1077.14V1077.35L920.03 1077.25Z" fill="white" stroke="#201E28" stroke-width="4"/>
<path d="M1085.36 963.47L1104.72 1021.44" stroke="#201E28" stroke-width="4" stroke-linecap="round" stroke-linejoin="round"/>
<path d="M892.91 998.67L886.69 1059.13" stroke="#201E28" stroke-width="4" stroke-linecap="round" stroke-linejoin="round"/>
</g>
<defs>
<clipPath id="clip0_3175_37877">
<rect width="1600" height="1200" fill="white"/>
</clipPath>
</defs>
</svg>
