<svg width="1600" height="1200" viewBox="0 0 1600 1200" fill="none" xmlns="http://www.w3.org/2000/svg">
<g clip-path="url(#clip0_3160_53040)">
<path d="M1600 0H0V1200H1600V0Z" fill="white"/>
<path d="M576.36 291.83H1168.54C1192.26 291.83 1211.49 311.06 1211.49 334.79V850.63C1211.49 874.35 1192.26 893.58 1168.54 893.58H576.36C552.63 893.58 533.4 874.35 533.4 850.63V334.79C533.4 311.06 552.63 291.83 576.36 291.83Z" fill="white" stroke="#201E28" stroke-width="4"/>
<path d="M1212.64 745.3H533.4" stroke="#201E28" stroke-width="4" stroke-linecap="round" stroke-linejoin="round"/>
<path d="M576.17 291.83H1168.35C1192.07 291.83 1211.3 311.06 1211.3 334.79V379.85H533.21V334.79C533.21 311.06 552.44 291.83 576.17 291.83Z" fill="white" stroke="#201E28" stroke-width="4"/>
<path d="M586.98 353.06C595.43 353.06 602.28 346.21 602.28 337.76C602.28 329.3 595.43 322.45 586.98 322.45C578.52 322.45 571.67 329.3 571.67 337.76C571.67 346.21 578.52 353.06 586.98 353.06Z" fill="white" stroke="#201E28" stroke-width="4"/>
<path d="M636.72 353.06C645.18 353.06 652.03 346.21 652.03 337.76C652.03 329.3 645.18 322.45 636.72 322.45C628.27 322.45 621.42 329.3 621.42 337.76C621.42 346.21 628.27 353.06 636.72 353.06Z" fill="white" stroke="#201E28" stroke-width="4"/>
<path d="M686.47 353.06C694.93 353.06 701.78 346.21 701.78 337.76C701.78 329.3 694.93 322.45 686.47 322.45C678.01 322.45 671.16 329.3 671.16 337.76C671.16 346.21 678.01 353.06 686.47 353.06Z" fill="white" stroke="#201E28" stroke-width="4"/>
<path d="M704.28 444.71H851.8C861.18 444.71 868.82 452.35 868.82 461.73C868.82 471.11 861.18 478.75 851.8 478.75H704.28C694.9 478.75 687.26 471.11 687.26 461.73C687.26 452.35 694.9 444.71 704.28 444.71Z" fill="white" stroke="#201E28" stroke-width="4"/>
<path d="M704.28 515.06H790.52C799.9 515.06 807.54 522.7 807.54 532.08C807.54 541.46 799.9 549.1 790.52 549.1H704.28C694.9 549.1 687.26 541.46 687.26 532.08C687.26 522.7 694.9 515.06 704.28 515.06Z" fill="white" stroke="#201E28" stroke-width="4"/>
<path d="M847.26 515.06H874.49C883.87 515.06 891.51 522.7 891.51 532.08C891.51 541.46 883.87 549.1 874.49 549.1H847.26C837.88 549.1 830.24 541.46 830.24 532.08C830.24 522.7 837.88 515.06 847.26 515.06Z" fill="white" stroke="#201E28" stroke-width="4"/>
<path d="M704.28 585.42H725.47C734.85 585.42 742.49 593.06 742.49 602.44C742.49 611.82 734.85 619.46 725.47 619.46H704.28C694.9 619.46 687.26 611.82 687.26 602.44C687.26 593.06 694.9 585.42 704.28 585.42Z" fill="white" stroke="#201E28" stroke-width="4"/>
<path d="M782.2 585.42H909.29C918.67 585.42 926.31 593.06 926.31 602.44C926.31 611.82 918.67 619.46 909.29 619.46H782.2C772.82 619.46 765.18 611.82 765.18 602.44C765.18 593.06 772.82 585.42 782.2 585.42Z" fill="white" stroke="#201E28" stroke-width="4"/>
<path d="M966.02 585.42H1074.96C1084.34 585.42 1091.98 593.06 1091.98 602.44C1091.98 611.82 1084.34 619.46 1074.96 619.46H966.02C956.64 619.46 949 611.82 949 602.44C949 593.06 956.64 585.42 966.02 585.42Z" fill="white" stroke="#201E28" stroke-width="4"/>
<path d="M704.28 655.77H772.37C781.75 655.77 789.39 663.409 789.39 672.789C789.39 682.169 781.75 689.81 772.37 689.81H704.28C694.9 689.81 687.26 682.169 687.26 672.789C687.26 663.409 694.9 655.77 704.28 655.77Z" fill="white" stroke="#201E28" stroke-width="4"/>
<path d="M829.1 655.77H844.23C853.61 655.77 861.25 663.409 861.25 672.789C861.25 682.169 853.61 689.81 844.23 689.81H829.1C819.72 689.81 812.08 682.169 812.08 672.789C812.08 663.409 819.72 655.77 829.1 655.77Z" fill="white" stroke="#201E28" stroke-width="4"/>
<path d="M900.97 655.77H990.99C1000.37 655.77 1008.01 663.409 1008.01 672.789C1008.01 682.169 1000.37 689.81 990.99 689.81H900.97C891.59 689.81 883.95 682.169 883.95 672.789C883.95 663.409 891.59 655.77 900.97 655.77Z" fill="white" stroke="#201E28" stroke-width="4"/>
<path d="M1123.96 789.761V837.631" stroke="#201E28" stroke-width="4" stroke-linecap="round" stroke-linejoin="round"/>
<path d="M1147.89 813.7H1100.03" stroke="#201E28" stroke-width="4" stroke-linecap="round" stroke-linejoin="round"/>
<path d="M947.15 841.54C962.53 841.54 974.99 829.07 974.99 813.7C974.99 798.32 962.53 785.86 947.15 785.86C931.77 785.86 919.31 798.32 919.31 813.7C919.31 829.07 931.77 841.54 947.15 841.54Z" fill="white" stroke="#201E28" stroke-width="4"/>
<path d="M837.64 786.83H869.1C875.25 786.83 880.24 791.82 880.24 797.97V829.43C880.24 835.58 875.25 840.56 869.1 840.56H837.64C831.49 840.56 826.51 835.58 826.51 829.43V797.97C826.51 791.82 831.49 786.83 837.64 786.83Z" fill="white" stroke="#201E28" stroke-width="4"/>
<path d="M780.69 810.771L745.82 787.521C744.26 786.441 742.11 786.931 741.03 788.491C740.64 789.081 740.45 789.671 740.45 790.351V836.851C740.45 838.711 742.01 840.271 743.87 840.271C744.55 840.271 745.23 840.071 745.72 839.681L780.6 816.431C782.16 815.361 782.55 813.311 781.57 811.741C781.38 811.351 781.08 811.061 780.69 810.771Z" fill="white" stroke="#201E28" stroke-width="4"/>
<path d="M1301.9 654.32L1179.04 608.83L1221.13 732.93L1237.07 696.57L1265.7 725.81L1293.86 698.42L1265.39 669.18L1301.9 654.32Z" fill="white" stroke="#201E28" stroke-width="4"/>
<path d="M456.59 279.19C438.52 305.26 403.05 358.14 347.1 379.01C291.16 399.88 271.82 374.54 291.96 348.41C313.29 320.73 379.71 296.99 423.65 295.06C467.59 293.13 486.47 305.13 485.06 320.53C483.26 340.74 437.85 386.28 370.11 383.35C302.36 380.41 354.84 297.59 382.24 277.46C407.58 258.85 427.25 260.05 429.92 280.52C432.99 303.73 413.78 377.34 344.37 414.69" stroke="#201E28" stroke-width="4" stroke-linecap="round" stroke-linejoin="round"/>
<path d="M940.67 141.45V159.32" stroke="#201E28" stroke-width="4" stroke-linecap="round" stroke-linejoin="round"/>
<path d="M940.67 210.04V227.91" stroke="#201E28" stroke-width="4" stroke-linecap="round" stroke-linejoin="round"/>
<path d="M983.91 184.681H966.04" stroke="#201E28" stroke-width="4" stroke-linecap="round" stroke-linejoin="round"/>
<path d="M915.31 184.681H897.44" stroke="#201E28" stroke-width="4" stroke-linecap="round" stroke-linejoin="round"/>
<path d="M910.12 154.13L922.71 166.71" stroke="#201E28" stroke-width="4" stroke-linecap="round" stroke-linejoin="round"/>
<path d="M958.64 202.65L971.22 215.23" stroke="#201E28" stroke-width="4" stroke-linecap="round" stroke-linejoin="round"/>
<path d="M971.22 154.13L958.64 166.71" stroke="#201E28" stroke-width="4" stroke-linecap="round" stroke-linejoin="round"/>
<path d="M922.71 202.65L910.12 215.23" stroke="#201E28" stroke-width="4" stroke-linecap="round" stroke-linejoin="round"/>
<path d="M353.94 523.63L277.06 520.78L342.67 562.45L239 611.88L337.32 627.74L315.22 699.7L369.69 669.41" stroke="#201E28" stroke-width="4" stroke-linecap="round" stroke-linejoin="round"/>
<path d="M1169.7 944.9L1172.64 1024.8L1222.97 952.59L1313.74 999.38L1262.55 915.46L1342.69 884.06L1254 857.55L1300.18 815.28" stroke="#201E28" stroke-width="4" stroke-linecap="round" stroke-linejoin="round"/>
<path d="M586.63 232.24C597.21 232.24 605.79 223.66 605.79 213.08C605.79 202.5 597.21 193.92 586.63 193.92C576.05 193.92 567.47 202.5 567.47 213.08C567.47 223.66 576.05 232.24 586.63 232.24Z" fill="white" stroke="#201E28" stroke-width="4"/>
<path d="M946.88 998.79C957.65 998.79 966.39 990.05 966.39 979.27C966.39 968.5 957.65 959.76 946.88 959.76C936.1 959.76 927.36 968.5 927.36 979.27C927.36 990.05 936.1 998.79 946.88 998.79Z" fill="white" stroke="#201E28" stroke-width="4"/>
<path d="M285.07 822.789C297.22 822.789 307.08 812.93 307.08 800.78C307.08 788.63 297.22 778.77 285.07 778.77C272.92 778.77 263.06 788.63 263.06 800.78C263.06 812.93 272.92 822.789 285.07 822.789Z" fill="white" stroke="#201E28" stroke-width="4"/>
<path d="M1319.6 526.19C1333.3 526.19 1344.41 515.08 1344.41 501.38C1344.41 487.67 1333.3 476.56 1319.6 476.56C1305.89 476.56 1294.78 487.67 1294.78 501.38C1294.78 515.08 1305.89 526.19 1319.6 526.19Z" fill="white" stroke="#201E28" stroke-width="4"/>
<path d="M307.49 979.97L356.74 1003.2C362.41 1003.68 369.8 1005.03 378.05 1007.23L390.63 1009.06C390.73 1009.06 390.73 1009.06 390.73 1008.96L389.86 959.33L389.09 915.55C389.09 915.55 389.09 915.46 389 915.46L375.27 911.33C365 909.7 353.09 908.45 342.15 907.49C342.15 907.49 342.15 907.49 342.05 907.49L337.44 910.18L307.3 979.87C307.4 979.97 307.4 979.97 307.49 979.97Z" fill="white" stroke="#201E28" stroke-width="4"/>
<path d="M545.67 815.33C543.18 813.98 392.17 731.9 402.63 786.81C407.81 813.98 426.73 851.9 444.78 883.68C462.34 914.69 479.05 939.74 480.97 942.62C481.06 942.72 480.97 942.82 480.87 942.72C447.75 927.36 418.95 918.24 375.56 911.42C375.46 911.42 375.46 911.42 375.46 911.52L378.15 1007.23C378.15 1007.23 378.15 1007.33 378.25 1007.33C400.42 1013.28 430.28 1024.42 459.75 1032.39C489.7 1042.18 512.55 1044.1 529.83 1040.45C619.88 1020.96 557.39 846.62 545.67 815.33Z" fill="white" stroke="#201E28" stroke-width="4"/>
<path d="M460.9 1032.68C465.51 1021.35 472.14 1010.5 481.16 1002.15C512.17 973.44 551.72 986.21 574.19 997.54" stroke="#201E28" stroke-width="4" stroke-linecap="round" stroke-linejoin="round"/>
<path d="M560.07 861.41C537.32 878.88 512.17 888.86 512.17 888.86C512.17 888.86 537.8 900 574.19 921.02" stroke="#201E28" stroke-width="4" stroke-linecap="round" stroke-linejoin="round"/>
<path d="M486.92 846.14C483.18 870.81 473 889.82 455.62 900.48" stroke="#201E28" stroke-width="4" stroke-linecap="round" stroke-linejoin="round"/>
<path d="M574.95 559.57C574.95 559.48 575.05 559.48 575.05 559.48C586.57 566.1 597.13 568.02 607.69 563.22C618.25 558.42 620.17 542.97 621.13 531.54C621.13 531.54 621.13 531.45 621.23 531.45C631.88 526.36 631.4 523.48 622.86 515.8V515.7C624.2 502.07 625.45 484.79 622.19 475.67C617.39 462.23 598.09 450.52 566.31 455.32C518.6 461.17 530.03 513.59 510.63 549.97C510.63 550.07 510.63 550.07 510.73 550.07C513.42 550.93 570.15 568.6 572.75 569.37C572.84 569.37 572.84 569.37 572.84 569.27L574.95 559.57Z" fill="white" stroke="#201E28" stroke-width="4"/>
<path d="M375.46 911.42L378.15 1007.23" stroke="#201E28" stroke-width="4" stroke-linecap="round" stroke-linejoin="round"/>
<path d="M294.92 1037.19C294.53 1033.64 285.99 968.831 285.89 968.351C285.89 967.871 290.31 908.351 290.6 905.951C290.6 905.951 290.6 905.861 290.69 905.861C308.26 905.471 324.87 905.951 342.15 907.391C342.24 907.391 342.24 907.491 342.24 907.491C341.76 945.701 321.6 970.271 319.49 972.771C319.4 972.871 319.49 972.961 319.59 972.961L341 968.831C348.77 967.301 355.97 973.061 356.26 981.031L356.64 1003.11C356.64 1003.2 356.55 1003.2 356.55 1003.2C353.67 1002.91 351.27 1003.11 348.48 1003.11C314.79 1004.45 311.33 1026.53 295.01 1037.28C295.01 1037.28 294.92 1037.28 294.92 1037.19Z" fill="white" stroke="#201E28" stroke-width="4"/>
<path d="M289.25 1040.26C285.6 1041.7 281.57 1042.56 276.39 1042.76C276.29 1042.76 276.29 1042.76 276.29 1042.66L271.78 906.72C271.78 906.62 271.78 906.62 271.87 906.62C278.11 906.24 284.64 905.95 290.6 905.86C290.69 905.86 290.69 905.86 290.69 905.95L294.92 1037.28V1037.38C293.28 1038.44 291.36 1039.4 289.25 1040.26Z" fill="white" stroke="#201E28" stroke-width="4"/>
<path d="M324 991.97L330.15 1005.41" stroke="#201E28" stroke-width="4" stroke-linecap="round" stroke-linejoin="round"/>
<path d="M309.41 1001.67L318.44 1012.99" stroke="#201E28" stroke-width="4" stroke-linecap="round" stroke-linejoin="round"/>
<path d="M294.15 979.111L319.4 973.061" stroke="#201E28" stroke-width="4" stroke-linecap="round" stroke-linejoin="round"/>
<path d="M849.14 592.5C851.15 591.35 860.56 585.69 858.83 578.78C850.58 565.24 695.34 628.7 693.23 631.58H693.13C691.5 630.81 670.67 620.54 648.59 609.3C648.49 609.3 648.49 609.3 648.49 609.4L636.97 645.5L626.03 689.95C626.03 690.04 626.03 690.04 626.12 690.04C646.09 696.95 668.08 702.91 684.59 702.91C724.53 702.91 792.59 653.18 794.32 651.93C794.32 651.93 794.32 651.93 794.42 651.93C806.42 654.43 818.7 655.77 830.99 655.77C852.11 655.77 870.35 650.97 872.37 642.42C872.37 642.42 872.37 642.33 872.47 642.33C873.43 642.23 887.63 640.02 885.91 628.98C885.91 628.89 885.91 628.89 886 628.89C887.15 628.7 898.48 626.49 895.03 618.81C892.63 613.53 847.89 613.53 847.89 610.17C847.89 609.21 896.95 607.29 895.51 599.13C894.16 590.01 853.94 592.41 849.33 592.7C849.04 592.7 849.04 592.5 849.14 592.5Z" fill="white" stroke="#201E28" stroke-width="4"/>
<path d="M616.81 594.62C589.07 581.75 572.46 577.24 571.21 576.86C571.11 576.86 571.11 576.76 571.11 576.76L572.94 568.21C572.94 568.12 572.94 568.12 572.84 568.12L510.44 550.36C510.34 550.36 510.34 550.36 510.34 550.45L507.46 563.41C507.46 563.41 507.46 563.51 507.37 563.51C505.35 563.89 448.14 574.84 403.21 724.7C403.21 724.8 403.21 724.8 403.3 724.8L469.83 735.64L533.77 725.76H533.87L562.09 684.28L572.84 668.44C572.84 668.44 572.94 668.35 572.94 668.44C590.22 676.7 607.69 683.61 625.74 690.04C625.84 690.04 625.84 690.04 625.84 689.95L648.2 609.4C648.2 609.4 648.2 609.3 648.11 609.3C637.26 603.35 626.32 599.13 616.81 594.62Z" fill="white" stroke="#201E28" stroke-width="4"/>
<path d="M465.8 385.52C497.29 353.55 577.93 426.32 549.32 460.88C517.83 492.85 437.19 420.18 465.8 385.52Z" fill="white" stroke="#201E28" stroke-width="4"/>
<path d="M639.95 466.64C632.56 458.29 617.2 464.63 616.14 465.11H616.04C607.21 453.59 590.22 442.45 566.31 446C534.63 450.8 526.86 480.56 520.14 506.49C520.14 506.58 520.04 506.58 519.95 506.58C517.45 504.37 473.1 466.84 431.05 502.36C409.54 520.5 414.73 560.92 422.41 573.5V573.59C401.29 589.91 410.02 637.05 436.81 639.93H436.9C437.57 638.78 448.62 618.52 456.1 608.25H456.2C480.3 619.67 509.1 610.55 518.7 603.45C552.39 578.39 554.31 546.71 556.23 530.29V530.2C551.43 524.44 537.03 505.24 550.47 492.66C565.45 478.64 581.48 506.58 582.25 507.93C582.25 507.93 582.25 508.02 582.35 507.93C583.79 507.73 610.67 503.61 626.51 494.49C644.75 483.92 644.56 471.83 639.95 466.64Z" fill="white" stroke="#201E28" stroke-width="4"/>
<path d="M559.98 508.021L566.79 516.66" stroke="#201E28" stroke-width="4" stroke-linecap="round" stroke-linejoin="round"/>
<path d="M574.95 559.57C568.04 555.06 563.43 550.55 563.43 550.55" stroke="#201E28" stroke-width="4" stroke-linecap="round" stroke-linejoin="round"/>
<path d="M603.37 532.12C604.33 535 607.21 536.92 609.13 536.92" stroke="#201E28" stroke-width="4" stroke-linecap="round" stroke-linejoin="round"/>
<path d="M611.05 510.9C614.8 511 614.8 516.57 611.05 516.66C607.31 516.57 607.31 511 611.05 510.9Z" fill="#201E28" stroke="#201E28" stroke-width="4"/>
<path d="M573.03 668.44L554.03 658.75" stroke="#201E28" stroke-width="4" stroke-linecap="round" stroke-linejoin="round"/>
<path d="M520.04 506.49C526.76 512.25 531.85 517.33 531.85 517.33" stroke="#201E28" stroke-width="4" stroke-linecap="round" stroke-linejoin="round"/>
<path d="M456.3 608.15C452.07 606.14 447.75 602.49 444.3 599.42" stroke="#201E28" stroke-width="4" stroke-linecap="round" stroke-linejoin="round"/>
<path d="M554.89 449.08C545.19 453.01 538.86 460.12 533.67 468.56" stroke="#201E28" stroke-width="4" stroke-linecap="round" stroke-linejoin="round"/>
<path d="M849.14 592.7L829.55 594.23" stroke="#201E28" stroke-width="4" stroke-linecap="round" stroke-linejoin="round"/>
<path d="M885.71 628.98C885.71 628.98 866.99 630.23 842.03 627.35" stroke="#201E28" stroke-width="4" stroke-linecap="round" stroke-linejoin="round"/>
<path d="M872.27 642.42L835.31 640.5" stroke="#201E28" stroke-width="4" stroke-linecap="round" stroke-linejoin="round"/>
<path d="M623.24 1008.1L648.01 959.62C648.68 953.95 650.32 946.56 652.81 938.4L654.92 925.92C654.92 925.82 654.92 925.82 654.83 925.82L561.42 924.38C561.42 924.38 561.32 924.38 561.32 924.48L556.71 938.4C554.79 948.58 552.97 959.14 551.72 970.08C551.72 970.08 551.72 970.08 551.72 970.18L554.41 975.75L623.05 1008.1C623.24 1008.19 623.24 1008.19 623.24 1008.1Z" fill="white" stroke="#201E28" stroke-width="4"/>
<path d="M591.76 833.47C591.85 833.47 591.85 833.57 591.85 833.57C585.03 847.1 579.27 859.97 574.28 873.5C567.18 892.61 561.71 913.06 556.81 938.3C556.81 938.4 556.81 938.4 556.91 938.4H652.81C652.81 938.4 652.91 938.4 652.91 938.3C723.28 752.83 702.06 741.21 533.96 725.76C533.67 725.76 406.66 724.7 403.4 724.7C403.4 724.7 403.3 724.7 403.3 724.8C402.92 726.04 397.45 744.96 394.57 767.04C390.63 798.33 398.98 848.73 455.24 850.94C523.11 853.44 587.63 834.62 591.76 833.47Z" fill="white" stroke="#201E28" stroke-width="4"/>
<path d="M422.98 842.21C431.91 847.49 441.22 850.37 455.34 850.85C492.87 852.29 529.35 847.2 555.18 842.11" stroke="#201E28" stroke-width="4" stroke-linecap="round" stroke-linejoin="round"/>
<path d="M556.71 938.4H652.91" stroke="#201E28" stroke-width="4" stroke-linecap="round" stroke-linejoin="round"/>
<path d="M679.89 1022.5C676.53 1022.88 617.2 1030.47 616.72 1030.47C616.14 1030.37 551.15 1022.79 548.75 1022.4L548.65 1022.31C548.94 1004.74 549.8 987.36 551.82 970.18C551.82 970.08 551.91 970.08 551.91 970.08C590.12 971.81 614.12 993.51 616.52 995.81C616.62 995.91 616.72 995.81 616.72 995.71L613.26 974.21C612.01 966.43 618.06 959.33 625.93 959.33L648.01 959.62C648.11 959.62 648.11 959.71 648.11 959.71C647.72 962.59 647.72 965.09 647.72 967.87C647.92 1001.47 670.09 1005.89 679.98 1022.4C680.08 1022.4 679.98 1022.5 679.89 1022.5Z" fill="white" stroke="#201E28" stroke-width="4"/>
<path d="M682.86 1028.26C684.11 1031.91 684.88 1036.04 684.88 1041.12C684.88 1041.22 684.88 1041.22 684.78 1041.22H548.84C548.75 1041.22 548.75 1041.22 548.75 1041.12C548.55 1034.88 548.55 1028.45 548.65 1022.5C548.65 1022.4 548.65 1022.4 548.75 1022.4L679.98 1022.5C679.98 1022.5 680.08 1022.5 680.08 1022.59C681.04 1024.32 682.09 1026.15 682.86 1028.26Z" fill="white" stroke="#201E28" stroke-width="4"/>
<path d="M635.72 992.07L650.22 986.021" stroke="#201E28" stroke-width="4" stroke-linecap="round" stroke-linejoin="round"/>
<path d="M645.04 1006.95L656.36 998.4" stroke="#201E28" stroke-width="4" stroke-linecap="round" stroke-linejoin="round"/>
<path d="M621.9 1021.35L616.72 996" stroke="#201E28" stroke-width="4" stroke-linecap="round" stroke-linejoin="round"/>
<path d="M403.49 724.7L533.96 725.76" stroke="#201E28" stroke-width="4" stroke-linecap="round" stroke-linejoin="round"/>
<path d="M591.95 833.37L626.41 822.14" stroke="#201E28" stroke-width="4" stroke-linecap="round" stroke-linejoin="round"/>
<path d="M397.16 751.2C431.72 753.5 486.63 771.45 511.4 848.25" stroke="#201E28" stroke-width="4" stroke-linecap="round" stroke-linejoin="round"/>
<path d="M477.32 728.83C461 770.78 428.07 794.2 395.91 801.02" stroke="#201E28" stroke-width="4" stroke-linecap="round" stroke-linejoin="round"/>
<path d="M566.03 730.271C538.09 767.611 541.45 794.97 568.23 799.29C600.2 804.48 635.72 765.98 652.33 745.05" stroke="#201E28" stroke-width="4" stroke-linecap="round" stroke-linejoin="round"/>
<path d="M582.35 857.85C613.36 880.22 614.41 917.86 614.41 917.86C614.41 917.86 630.64 843.93 685.26 834.24" stroke="#201E28" stroke-width="4" stroke-linecap="round" stroke-linejoin="round"/>
<path d="M468.01 921.22C475.59 918.34 483.08 917.28 489.8 917.86C519.95 920.45 540.49 973.25 512.94 1040.55" stroke="#201E28" stroke-width="4" stroke-linecap="round" stroke-linejoin="round"/>
<path d="M403.59 1015.01C415.01 971.04 432.1 945.12 450.63 931.1" stroke="#201E28" stroke-width="4" stroke-linecap="round" stroke-linejoin="round"/>
</g>
<defs>
<clipPath id="clip0_3160_53040">
<rect width="1600" height="1200" fill="white"/>
</clipPath>
</defs>
</svg>
