<svg width="1600" height="1200" viewBox="0 0 1600 1200" fill="none" xmlns="http://www.w3.org/2000/svg">
<g clip-path="url(#clip0_3181_50102)">
<path d="M1600 0H0V1200H1600V0Z" fill="white"/>
<path d="M635.49 250.85H1089.71C1102.69 250.85 1113.32 261.37 1113.32 274.46V622.37C1113.32 635.35 1102.8 645.98 1089.71 645.98H635.49C622.51 645.98 611.88 635.46 611.88 622.37V274.46C611.88 261.37 622.4 250.85 635.49 250.85Z" fill="white" stroke="#201E28" stroke-width="4"/>
<path d="M611.88 347.08H1112.09" stroke="#201E28" stroke-width="4" stroke-linecap="round" stroke-linejoin="round"/>
<path d="M375.53 179.99H695.49C714.32 179.99 729.62 195.28 729.62 214.12V482.07H341.4V214.12C341.4 195.28 356.69 179.99 375.53 179.99Z" fill="white" stroke="#201E28" stroke-width="4"/>
<path d="M383.94 227.79C389.48 227.79 393.98 223.29 393.98 217.75C393.98 212.2 389.48 207.71 383.94 207.71C378.39 207.71 373.9 212.2 373.9 217.75C373.9 223.29 378.39 227.79 383.94 227.79Z" fill="white" stroke="#201E28" stroke-width="4"/>
<path d="M418.35 227.79C423.9 227.79 428.39 223.29 428.39 217.75C428.39 212.2 423.9 207.71 418.35 207.71C412.81 207.71 408.32 212.2 408.32 217.75C408.32 223.29 412.81 227.79 418.35 227.79Z" fill="white" stroke="#201E28" stroke-width="4"/>
<path d="M452.77 227.79C458.31 227.79 462.81 223.29 462.81 217.75C462.81 212.2 458.31 207.71 452.77 207.71C447.22 207.71 442.73 212.2 442.73 217.75C442.73 223.29 447.22 227.79 452.77 227.79Z" fill="white" stroke="#201E28" stroke-width="4"/>
<path d="M340.44 254.55H729.52" stroke="#201E28" stroke-width="4" stroke-linecap="round" stroke-linejoin="round"/>
<path d="M443.7 304.36H521.5C526.44 304.36 530.47 308.39 530.47 313.33C530.47 318.28 526.44 322.31 521.5 322.31H443.7C438.75 322.31 434.72 318.28 434.72 313.33C434.72 308.39 438.75 304.36 443.7 304.36Z" fill="white" stroke="#201E28" stroke-width="4"/>
<path d="M443.7 341.46H489.18C494.13 341.46 498.16 345.49 498.16 350.44C498.16 355.38 494.13 359.41 489.18 359.41H443.7C438.75 359.41 434.72 355.38 434.72 350.44C434.72 345.49 438.75 341.46 443.7 341.46Z" fill="white" stroke="#201E28" stroke-width="4"/>
<path d="M519.1 341.46H533.47C538.41 341.46 542.44 345.49 542.44 350.44C542.44 355.38 538.41 359.41 533.47 359.41H519.1C514.16 359.41 510.13 355.38 510.13 350.44C510.13 345.49 514.16 341.46 519.1 341.46Z" fill="white" stroke="#201E28" stroke-width="4"/>
<path d="M443.7 378.561H454.87C459.82 378.561 463.85 382.591 463.85 387.541C463.85 392.491 459.82 396.521 454.87 396.521H443.7C438.75 396.521 434.72 392.491 434.72 387.541C434.72 382.591 438.75 378.561 443.7 378.561Z" fill="white" stroke="#201E28" stroke-width="4"/>
<path d="M484.79 378.561H551.82C556.77 378.561 560.8 382.591 560.8 387.541C560.8 392.491 556.77 396.521 551.82 396.521H484.79C479.85 396.521 475.82 392.491 475.82 387.541C475.82 382.591 479.85 378.561 484.79 378.561Z" fill="white" stroke="#201E28" stroke-width="4"/>
<path d="M581.74 378.561H639.19C644.14 378.561 648.17 382.591 648.17 387.541C648.17 392.491 644.14 396.521 639.19 396.521H581.74C576.79 396.521 572.76 392.491 572.76 387.541C572.76 382.591 576.79 378.561 581.74 378.561Z" fill="white" stroke="#201E28" stroke-width="4"/>
<path d="M443.7 415.67H479.61C484.55 415.67 488.58 419.7 488.58 424.64C488.58 429.59 484.55 433.62 479.61 433.62H443.7C438.75 433.62 434.72 429.59 434.72 424.64C434.72 419.7 438.75 415.67 443.7 415.67Z" fill="white" stroke="#201E28" stroke-width="4"/>
<path d="M509.53 415.67H517.51C522.46 415.67 526.48 419.7 526.48 424.64C526.48 429.59 522.46 433.62 517.51 433.62H509.53C504.58 433.62 500.55 429.59 500.55 424.64C500.55 419.7 504.58 415.67 509.53 415.67Z" fill="white" stroke="#201E28" stroke-width="4"/>
<path d="M547.43 415.67H594.91C599.85 415.67 603.88 419.7 603.88 424.64C603.88 429.59 599.85 433.62 594.91 433.62H547.43C542.48 433.62 538.45 429.59 538.45 424.64C538.45 419.7 542.48 415.67 547.43 415.67Z" fill="white" stroke="#201E28" stroke-width="4"/>
<path d="M1150.89 384.19H1370.21C1381.46 384.19 1390.66 393.39 1390.66 404.65V656.06C1390.66 667.32 1381.46 676.51 1370.21 676.51H1150.89C1139.64 676.51 1130.44 667.32 1130.44 656.06V404.65C1130.44 393.29 1139.64 384.19 1150.89 384.19Z" fill="white" stroke="#201E28" stroke-width="4"/>
<path d="M1177.12 448.781L1186.12 457.791L1200.71 443.301" stroke="#201E28" stroke-width="4" stroke-linecap="round" stroke-linejoin="round"/>
<path d="M1194.66 536.59C1199.19 533.45 1200.32 527.23 1197.18 522.7C1194.04 518.16 1187.83 517.03 1183.3 520.18C1178.76 523.31 1177.63 529.53 1180.76 534.06C1183.9 538.59 1190.13 539.73 1194.66 536.59Z" stroke="#201E28" stroke-width="4" stroke-linecap="round" stroke-linejoin="round"/>
<path d="M1194.65 614.291C1199.18 611.151 1200.32 604.941 1197.17 600.411C1194.04 595.871 1187.82 594.741 1183.29 597.881C1178.76 601.011 1177.62 607.241 1180.76 611.771C1183.9 616.301 1190.12 617.431 1194.65 614.291Z" stroke="#201E28" stroke-width="4" stroke-linecap="round" stroke-linejoin="round"/>
<path d="M1228.99 452.4H1320" stroke="#201E28" stroke-width="4" stroke-linecap="round" stroke-linejoin="round"/>
<path d="M1228.99 528.45H1320" stroke="#201E28" stroke-width="4" stroke-linecap="round" stroke-linejoin="round"/>
<path d="M1228.99 605.461H1320" stroke="#201E28" stroke-width="4" stroke-linecap="round" stroke-linejoin="round"/>
<path d="M1133.1 154.2L1152.48 198L1189.77 168.22C1190.66 167.57 1191.8 167.54 1192.65 168.27C1193.5 169 1193.66 170.22 1193.07 171.16L1167.05 213.34L1216.2 238.25C1217.11 238.73 1217.6 239.89 1217.36 240.86C1217.01 241.86 1216.02 242.54 1214.96 242.43L1161.93 236.44L1166.83 288.21C1166.97 289.33 1166.27 290.29 1165.18 290.54C1164.09 290.78 1163.04 290.21 1162.6 289.28L1140.99 239.09L1102.82 271.13C1101.94 271.79 1100.8 271.82 1099.95 271.09C1099.1 270.36 1098.94 269.13 1099.53 268.2L1126.59 223.48L1076.92 193.75C1076.39 193.41 1076.05 192.91 1075.9 192.26C1075.8 191.82 1075.81 191.36 1076.06 190.96C1076.52 189.93 1077.54 189.36 1078.64 189.69L1132.27 202.9L1129.09 155.22C1128.96 154.1 1129.77 153.12 1130.75 152.9C1131.51 152.72 1132.66 153.27 1133.1 154.2Z" fill="white" stroke="#201E28" stroke-width="4"/>
<path d="M1202.52 788.58C1218.02 788.58 1230.58 776.02 1230.58 760.52C1230.58 745.02 1218.02 732.46 1202.52 732.46C1187.02 732.46 1174.46 745.02 1174.46 760.52C1174.46 776.02 1187.02 788.58 1202.52 788.58Z" fill="white" stroke="#201E28" stroke-width="4"/>
<path d="M238.85 645.97C248.33 645.97 256.02 638.29 256.02 628.81C256.02 619.33 248.33 611.65 238.85 611.65C229.38 611.65 221.69 619.33 221.69 628.81C221.69 638.29 229.38 645.97 238.85 645.97Z" fill="white" stroke="#201E28" stroke-width="4"/>
<path d="M597.21 760.71C616.65 760.71 632.4 744.96 632.4 725.52C632.4 706.08 616.65 690.33 597.21 690.33C577.78 690.33 562.03 706.08 562.03 725.52C562.03 744.96 577.78 760.71 597.21 760.71Z" fill="white" stroke="#201E28" stroke-width="4"/>
<path d="M277.94 341.53C290.14 341.53 300.03 331.64 300.03 319.44C300.03 307.25 290.14 297.36 277.94 297.36C265.74 297.36 255.85 307.25 255.85 319.44C255.85 331.64 265.74 341.53 277.94 341.53Z" fill="white" stroke="#201E28" stroke-width="4"/>
<path d="M1331.18 843.59C1341.31 843.59 1349.52 835.38 1349.52 825.25C1349.52 815.12 1341.31 806.9 1331.18 806.9C1321.05 806.9 1312.84 815.12 1312.84 825.25C1312.84 835.38 1321.05 843.59 1331.18 843.59Z" fill="white" stroke="#201E28" stroke-width="4"/>
<path d="M300.03 871.27C314.58 871.27 326.36 859.48 326.36 844.93C326.36 830.38 314.58 818.6 300.03 818.6C285.48 818.6 273.69 830.38 273.69 844.93C273.69 859.48 285.48 871.27 300.03 871.27Z" fill="white" stroke="#201E28" stroke-width="4"/>
<path d="M1333.94 283.07C1345.41 283.07 1354.7 273.78 1354.7 262.31C1354.7 250.84 1345.41 241.55 1333.94 241.55C1322.47 241.55 1313.18 250.84 1313.18 262.31C1313.18 273.78 1322.47 283.07 1333.94 283.07Z" fill="white" stroke="#201E28" stroke-width="4"/>
<path d="M595.11 197.2C606.72 197.2 616.12 187.8 616.12 176.19C616.12 164.59 606.72 155.18 595.11 155.18C583.5 155.18 574.1 164.59 574.1 176.19C574.1 187.8 583.5 197.2 595.11 197.2Z" fill="white" stroke="#201E28" stroke-width="4"/>
<path d="M997.29 902.35C1020.32 903.45 1045.09 903.67 1095.95 876.04C1184.75 827.81 1228.93 820.79 1235.17 843.15C1240.66 862.89 1193.52 893.58 1173.79 913.31C1132.02 955.08 1142.43 983.58 1190.23 975.8C1237.37 968.12 1265.87 940.72 1305.33 980.18" stroke="#201E28" stroke-width="4" stroke-linecap="round" stroke-linejoin="round"/>
<path d="M141.23 725.03C167.19 710.32 195.83 687.39 217.37 710.32C230.35 724.16 231.21 756.18 267.55 748.39C303.89 740.6 351.48 693.88 392.14 699.94C436.96 706.6 428.48 792.51 391.28 812.41C351.04 833.96 343.69 750.12 458.76 744.06" stroke="#201E28" stroke-width="4" stroke-linecap="round" stroke-linejoin="round"/>
<path d="M484.72 718.98H512.4V769.16H484.72C470.87 769.16 459.63 757.92 459.63 744.07C459.63 730.23 470.87 718.98 484.72 718.98Z" fill="white" stroke="#201E28" stroke-width="4"/>
<path d="M509.81 734.55H531.44" stroke="#201E28" stroke-width="4" stroke-linecap="round" stroke-linejoin="round"/>
<path d="M509.81 753.59H531.44" stroke="#201E28" stroke-width="4" stroke-linecap="round" stroke-linejoin="round"/>
<path d="M512.4 715.521V772.62" stroke="#201E28" stroke-width="4" stroke-linecap="round" stroke-linejoin="round"/>
<path d="M741.1 421.69V439.32" stroke="#201E28" stroke-width="4" stroke-linecap="round" stroke-linejoin="round"/>
<path d="M741.1 489.37V507" stroke="#201E28" stroke-width="4" stroke-linecap="round" stroke-linejoin="round"/>
<path d="M783.76 464.341H766.13" stroke="#201E28" stroke-width="4" stroke-linecap="round" stroke-linejoin="round"/>
<path d="M716.08 464.341H698.45" stroke="#201E28" stroke-width="4" stroke-linecap="round" stroke-linejoin="round"/>
<path d="M710.96 434.2L723.38 446.62" stroke="#201E28" stroke-width="4" stroke-linecap="round" stroke-linejoin="round"/>
<path d="M758.83 482.07L771.25 494.49" stroke="#201E28" stroke-width="4" stroke-linecap="round" stroke-linejoin="round"/>
<path d="M771.25 434.2L758.83 446.62" stroke="#201E28" stroke-width="4" stroke-linecap="round" stroke-linejoin="round"/>
<path d="M723.38 482.07L710.96 494.49" stroke="#201E28" stroke-width="4" stroke-linecap="round" stroke-linejoin="round"/>
<path d="M898.53 186.24C876.59 217.89 833.53 282.09 765.61 307.42C697.69 332.76 674.21 302 698.66 270.27C724.57 236.67 805.19 207.85 858.54 205.51C911.89 203.16 934.8 217.73 933.1 236.43C930.91 260.96 875.78 316.25 793.54 312.69C711.29 309.12 775 208.58 808.27 184.13C839.03 161.55 862.91 163.01 866.15 187.86C869.87 216.03 846.56 305.4 762.29 350.73" stroke="#201E28" stroke-width="4" stroke-linecap="round" stroke-linejoin="round"/>
<path d="M440.58 1011.89L399.16 878.94L625.14 810.17L440.58 1011.89Z" fill="white" stroke="#201E28" stroke-width="4"/>
<path d="M130.6 497.62L246.82 406.75L399.67 605.04L130.6 497.62Z" fill="white" stroke="#201E28" stroke-width="4"/>
<path d="M1449.98 568.42L1358.94 519.45L1386.04 619.25L1400.2 586.53L1424.63 617.32L1439.38 605.67L1414.94 574.76L1449.98 568.42Z" fill="white" stroke="#201E28" stroke-width="4"/>
<path d="M1210.13 319.98L1256.5 291.74C1267.05 285.3 1280.85 288.6 1287.28 299.24L1315.52 345.61C1321.96 356.16 1318.66 369.95 1308.02 376.38L1261.65 404.63C1251.11 411.07 1237.31 407.76 1230.88 397.13L1202.64 350.76C1196.28 340.22 1199.58 326.43 1210.13 319.98Z" fill="white" stroke="#201E28" stroke-width="4"/>
<path d="M1242.97 342.32L1238.22 361.94" stroke="#201E28" stroke-width="4" stroke-linecap="round" stroke-linejoin="round"/>
<path d="M1230.78 349.76L1250.4 354.51" stroke="#201E28" stroke-width="4" stroke-linecap="round" stroke-linejoin="round"/>
<path d="M1273.97 323.41L1269.22 343.03" stroke="#201E28" stroke-width="4" stroke-linecap="round" stroke-linejoin="round"/>
<path d="M1261.79 330.851L1281.49 335.611" stroke="#201E28" stroke-width="4" stroke-linecap="round" stroke-linejoin="round"/>
<path d="M1263.13 366.21L1273.86 359.62" stroke="#201E28" stroke-width="4" stroke-linecap="round" stroke-linejoin="round"/>
<path d="M1034.85 228.47C1066.45 228.47 1092.07 202.84 1092.07 171.24C1092.07 139.64 1066.45 114.02 1034.85 114.02C1003.24 114.02 977.62 139.64 977.62 171.24C977.62 202.84 1003.24 228.47 1034.85 228.47Z" fill="white" stroke="#201E28" stroke-width="4"/>
<path d="M1034.85 143.6V179.23" stroke="#201E28" stroke-width="4" stroke-linecap="round" stroke-linejoin="round"/>
<path d="M1034.85 193.05V198.88" stroke="#201E28" stroke-width="4" stroke-linecap="round" stroke-linejoin="round"/>
<path d="M933.27 528.14C942.6 528.14 947.27 525.17 947.27 519.23C947.27 512.22 948.01 501.09 948.86 488.04C950.77 459.08 953.21 423.12 949.39 406.68C943.66 382.6 918.63 374.01 897.2 374.01C889.03 374.01 880.65 375.17 873.12 377.51C849.89 384.51 845.33 402.97 840.13 424.29C839.5 427.05 838.75 429.8 838.12 432.56C836.95 432.77 829.21 434.26 828.57 437.44C827.72 441.58 833.24 446.88 833.98 447.62C830.06 470.32 833.77 484.54 845.75 492.28C851.48 495.99 857.32 497.8 863.68 497.8C868.88 497.8 874.61 496.52 878.74 495.36L877.79 513.92L877.9 514.03C878.43 514.24 913.33 528.14 933.27 528.14Z" fill="white" stroke="#201E28" stroke-width="4"/>
<path d="M795.16 579.16C795.47 578.42 827.62 505.86 830.48 500.24C831.86 497.48 833.34 494.62 834.19 491.65C834.51 490.27 834.93 488.57 834.3 487.3C833.34 485.17 830.48 485.92 828.78 486.45C823.05 488.36 818.28 492.49 813.61 496.21C811.81 497.59 810.11 499.07 808.2 500.34C806.72 501.3 804.81 502.47 803.22 501.19C801.1 499.49 802.48 496.42 803.64 494.62C805.45 491.86 807.99 489.63 810.54 487.72C814.46 484.86 818.39 482.95 821.89 481.25C826.98 478.81 830.59 477.11 830.59 473.82C830.59 466.19 815.1 468.52 810.75 469.05C802.05 470.22 793.35 472.55 785.72 477.01C777.87 481.57 771.29 488.25 767.26 496.42C757.39 516.25 755.59 519.65 743.18 542.46L742.86 546.49L795.16 579.58V579.16Z" fill="white" stroke="#201E28" stroke-width="4"/>
<path d="M981.11 734.77C981.53 734.56 1028.1 715.15 1035.1 683.43C1038.39 668.79 1036.06 647.79 1028.42 622.76C1022.05 601.65 1011.87 578.31 1000.73 558.58C980.79 523.57 950.88 512.44 948.33 511.59L948.22 503H878.32L877.58 510.95C839.18 512.65 812.45 540.02 812.23 540.23C812.13 540.33 799.51 554.02 791.13 564.52L743.29 542.03L743.18 542.24C728.33 569.29 697.88 634.95 734.48 660.94C742.44 666.56 751.88 669.43 762.38 669.43C796.32 669.43 832.71 639.73 836.31 636.76L847.35 701.99L967.85 702.1C973.26 712.81 977.71 723 980.68 734.56L980.79 734.77H981.11Z" fill="white" stroke="#201E28" stroke-width="4"/>
<path d="M879.38 1014.6V1014.39C878.11 997.63 875.88 980.66 872.8 964.11L867.61 948.51L763.76 950.21L766.3 964.32C769.17 973.87 772.35 988.19 772.99 994.23L799.08 1041.65L879.38 1014.6Z" fill="white" stroke="#201E28" stroke-width="4"/>
<path d="M879.38 1060.11L882.03 1057.03C882.03 1048.97 881.08 1027.01 880.87 1023.51C880.44 1016.09 878.96 1008.77 878.32 1002.72C852.76 1006.96 834.93 1013.33 824.01 1018.1C813.93 1022.45 806.58 1027.31 806.72 1027.22L810.54 1003.46C810.64 1002.72 810.75 1001.87 810.75 1001.13C810.75 993.17 804.28 986.81 796.43 986.81H771.82C773.84 996.78 772.03 1008.34 768.43 1017.78C765.24 1026.06 759.51 1032.74 753.15 1038.68C752.09 1039.63 751.03 1040.7 749.86 1041.65C744.66 1046.42 739.78 1050.88 736.18 1056.82L736.6 1060.96L879.38 1060.11Z" fill="white" stroke="#201E28" stroke-width="4"/>
<path d="M873.12 964.64C864.64 920.3 849.89 877.44 829.74 837.03L851.69 835.97C884.26 835.97 908.98 826.63 923.19 808.92C934.86 794.39 938.57 774.55 933.8 753.12C926.48 721.62 915.34 719.18 915.34 719.18C909.72 719.81 776.59 721.83 735.86 770.2C708.49 802.66 733.42 871.72 753.47 927.19C758.45 940.88 763.02 953.71 766.41 964.85L873.12 964.64Z" fill="white" stroke="#201E28" stroke-width="4"/>
<path d="M765.91 1023.51L782.22 1030.09" stroke="#201E28" stroke-width="4" stroke-linecap="round" stroke-linejoin="round"/>
<path d="M756.62 1035.42L769.8 1045.36" stroke="#201E28" stroke-width="4" stroke-linecap="round" stroke-linejoin="round"/>
<path d="M766.3 964.53H872.59" stroke="#201E28" stroke-width="4" stroke-linecap="round" stroke-linejoin="round"/>
<path d="M721.12 1012.69L730.87 1007.81L731.3 1007.49C735.75 995.399 739.36 984.049 742.54 972.699V962.619L649.09 914.359L646.23 925.809C643.47 939.919 641.66 947.769 640.5 950.529L646.23 1012.58L721.12 1012.69Z" fill="white" stroke="#201E28" stroke-width="4"/>
<path d="M742.65 972.7C759.73 908.63 759.09 878.08 758.98 838.3L911.84 837.98C938.78 837.98 958.94 831.41 971.67 818.47C982.49 807.43 987.9 791.84 987.47 772.43C986.73 731.8 968.48 701.15 968.27 700.83H847.13C845.97 701.04 728.33 723.63 697.04 755.03C672.74 780.07 666.8 813.06 658.74 858.67C657.36 866.2 655.98 873.94 654.5 882.11L653.44 887.63C650.89 901.52 648.45 914.57 646.23 925.6L742.65 972.7Z" fill="white" stroke="#201E28" stroke-width="4"/>
<path d="M753.04 925.71C759.62 891.02 760.36 868.85 760.26 839.57" stroke="#201E28" stroke-width="4" stroke-linecap="round" stroke-linejoin="round"/>
<path d="M709.02 1059.79C713.27 1050.98 716.24 1043.98 718.89 1037.83L718.99 1037.62H718.89C720.16 1034.86 721.33 1031.89 722.49 1029.03C725.78 1021.07 728.96 1013.75 731.4 1007.17L730.87 1006.96C715.49 999.96 699.16 996.46 682.08 996.46C666.27 996.46 651.38 1001.47 652.27 1000.39L664.47 982.78C665 982.03 665.43 981.29 665.74 980.55C667.65 976.63 667.87 972.06 666.38 967.93C664.9 963.79 661.92 960.4 658 958.49L640.5 950.53C640.18 951.17 638.06 955.2 637.32 956.47C625.97 978.85 611.43 982.99 597.43 986.91C590.64 988.82 584.28 990.63 578.44 994.34L578.12 996.67L707.54 1060.96L709.02 1059.79Z" fill="white" stroke="#201E28" stroke-width="4"/>
<path d="M700.01 1077.5C703.29 1071.35 706.26 1065.52 709.23 1059.47L709.34 1059.26L578.55 994.229C569.11 1000.6 564.65 1010.99 564.65 1010.99L699.58 1078.25L700.01 1077.5Z" fill="white" stroke="#201E28" stroke-width="4"/>
<path d="M619.65 978.22L630.53 991.16" stroke="#201E28" stroke-width="4" stroke-linecap="round" stroke-linejoin="round"/>
<path d="M606.2 984.62L613.34 999.96" stroke="#201E28" stroke-width="4" stroke-linecap="round" stroke-linejoin="round"/>
<path d="M646.44 925.71L742.33 972.49" stroke="#201E28" stroke-width="4" stroke-linecap="round" stroke-linejoin="round"/>
<path d="M950.03 405.62C944.19 381.33 918.95 372.63 897.31 372.63C889.03 372.63 880.55 373.79 873.02 376.13C854.88 381.64 844.81 395.9 844.69 406.15C844.69 406.15 849.04 409.54 855.51 409.54C859.76 409.54 864.11 408.06 863.88 408.28C866.44 415.48 867.29 422.8 870.58 426.62C872.49 428.95 875.24 430.12 878.96 430.12C884.37 430.12 889.78 427.47 889.16 428.45C890.2 429.8 885.81 443.61 894.97 453.14L895.08 453.25L895.19 453.14C895.29 453.03 908.87 441.9 920.54 441.9C924.89 441.9 928.6 443.49 931.25 446.67C933.59 449.43 934.65 452.82 934.33 456.43C933.27 468.2 918.52 480.51 918.31 480.61L918.1 480.83L918.31 481.04C927.86 488.57 948.97 489.21 948.97 489.21C948.97 489.21 955.65 424.61 950.03 405.62Z" fill="white" stroke="#201E28" stroke-width="4"/>
<path d="M843.53 458.439L853.71 458.759" stroke="#201E28" stroke-width="4" stroke-linecap="round" stroke-linejoin="round"/>
<path d="M850.85 439.35C849.21 439.35 847.88 438.02 847.88 436.38C847.88 434.74 849.21 433.41 850.85 433.41C852.49 433.41 853.82 434.74 853.82 436.38C853.82 438.02 852.49 439.35 850.85 439.35Z" fill="#201E28" stroke="#201E28" stroke-width="4"/>
<path d="M835.89 637.08C843.42 631.24 850.1 624.559 856.89 617.979" stroke="#201E28" stroke-width="4" stroke-linecap="round" stroke-linejoin="round"/>
<path d="M791.66 563.67L770.97 589.24" stroke="#201E28" stroke-width="4" stroke-linecap="round" stroke-linejoin="round"/>
<path d="M847.35 700.619H968.27L978.88 626.359" stroke="#201E28" stroke-width="4" stroke-linecap="round" stroke-linejoin="round"/>
<path d="M829.95 838.3H742.33" stroke="#201E28" stroke-width="4" stroke-linecap="round" stroke-linejoin="round"/>
<path d="M877.9 495.57C886.38 492.18 892.75 489.21 892.75 489.21" stroke="#201E28" stroke-width="4" stroke-linecap="round" stroke-linejoin="round"/>
<path d="M906.43 468.729L915.23 461.939" stroke="#201E28" stroke-width="4" stroke-linecap="round" stroke-linejoin="round"/>
<path d="M881.5 1078.46V1078.25C881.71 1071.03 882.03 1063.93 882.03 1057.03L881.71 1056.82L736.07 1056.92C734.91 1059.05 734.16 1061.17 733.31 1063.5C731.51 1068.17 730.77 1073.15 730.77 1078.25V1078.46H881.5Z" fill="white" stroke="#201E28" stroke-width="4"/>
<path d="M954.73 841.521H927.23V1024.4H954.73V841.521Z" fill="white" stroke="#201E28" stroke-width="4"/>
<path d="M1055.39 665.08H949.86C935.81 665.08 922.45 676.5 920.01 690.44L892.31 847.96H1048.66L1076.36 690.44C1078.8 676.5 1069.34 665.08 1055.39 665.08Z" fill="white" stroke="#201E28" stroke-width="4"/>
<path d="M872.9 1022.45H1009.55C1017.16 1022.45 1023.3 1028.69 1023.3 1036.2C1023.3 1043.81 1017.06 1049.95 1009.55 1049.95H872.9C865.3 1049.95 859.15 1043.71 859.15 1036.2C859.15 1028.59 865.39 1022.45 872.9 1022.45Z" fill="white" stroke="#201E28" stroke-width="4"/>
<path d="M872.9 1077.46C880.5 1077.46 886.66 1071.3 886.66 1063.71C886.66 1056.11 880.5 1049.95 872.9 1049.95C865.31 1049.95 859.15 1056.11 859.15 1063.71C859.15 1071.3 865.31 1077.46 872.9 1077.46Z" fill="white" stroke="#201E28" stroke-width="4"/>
<path d="M941.27 1077.46C948.87 1077.46 955.03 1071.3 955.03 1063.71C955.03 1056.11 948.87 1049.95 941.27 1049.95C933.68 1049.95 927.52 1056.11 927.52 1063.71C927.52 1071.3 933.68 1077.46 941.27 1077.46Z" fill="white" stroke="#201E28" stroke-width="4"/>
<path d="M1009.65 1077.46C1017.24 1077.46 1023.4 1071.3 1023.4 1063.71C1023.4 1056.11 1017.24 1049.95 1009.65 1049.95C1002.05 1049.95 995.89 1056.11 995.89 1063.71C995.89 1071.3 1002.05 1077.46 1009.65 1077.46Z" fill="white" stroke="#201E28" stroke-width="4"/>
<path d="M775.56 837.13H915.23C922.84 837.13 928.99 843.38 928.99 850.89C928.99 858.49 922.74 864.64 915.23 864.64H775.56C767.96 864.64 761.81 858.4 761.81 850.89C761.81 843.38 768.05 837.13 775.56 837.13Z" fill="white" stroke="#201E28" stroke-width="4"/>
<path d="M893.58 837.13H1047.98C1055.58 837.13 1061.73 843.38 1061.73 850.89C1061.73 858.49 1055.49 864.64 1047.98 864.64H893.58C885.97 864.64 879.83 858.4 879.83 850.89C879.83 843.38 885.97 837.13 893.58 837.13Z" fill="white" stroke="#201E28" stroke-width="4"/>
<path d="M894.56 835.18H1049.93" stroke="#201E28" stroke-width="4" stroke-linecap="round" stroke-linejoin="round"/>
</g>
<defs>
<clipPath id="clip0_3181_50102">
<rect width="1600" height="1200" fill="white"/>
</clipPath>
</defs>
</svg>
