<svg width="56" height="56" viewBox="0 0 56 56" fill="none" xmlns="http://www.w3.org/2000/svg">
<path d="M15 28C15 29.6569 13.6569 31 12 31C10.3431 31 9 29.6569 9 28C9 26.3431 10.3431 25 12 25C13.6569 25 15 26.3431 15 28ZM31 28C31 29.6569 29.6569 31 28 31C26.3431 31 25 29.6569 25 28C25 26.3431 26.3431 25 28 25C29.6569 25 31 26.3431 31 28ZM47 28C47 29.6569 45.6569 31 44 31C42.3431 31 41 29.6569 41 28C41 26.3431 42.3431 25 44 25C45.6569 25 47 26.3431 47 28Z" stroke="black" stroke-width="2" stroke-linecap="round"/>
</svg>
