<svg width="1600" height="1200" viewBox="0 0 1600 1200" fill="none" xmlns="http://www.w3.org/2000/svg">
<g clip-path="url(#clip0_3187_50462)">
<path d="M1600 0H0V1200H1600V0Z" fill="white"/>
<path d="M1149.07 997.39C1160.91 1004.1 1173.98 1014.57 1183.81 1004.1C1189.73 997.79 1190.13 983.18 1206.71 986.73C1223.29 990.28 1245.01 1011.6 1263.56 1008.84C1284.02 1005.8 1280.15 966.59 1263.17 957.51C1244.81 947.68 1241.45 985.94 1293.97 988.7" stroke="#201E28" stroke-width="4" stroke-linecap="round" stroke-linejoin="round"/>
<path d="M1305.81 1000.15H1318.44V977.25H1305.81C1299.49 977.25 1294.36 982.38 1294.36 988.7C1294.36 995.02 1299.49 1000.15 1305.81 1000.15Z" fill="white" stroke="#201E28" stroke-width="4"/>
<path d="M1317.26 993.04H1327.13" stroke="#201E28" stroke-width="4" stroke-linecap="round" stroke-linejoin="round"/>
<path d="M1317.26 984.36H1327.13" stroke="#201E28" stroke-width="4" stroke-linecap="round" stroke-linejoin="round"/>
<path d="M1318.44 1001.73V975.67" stroke="#201E28" stroke-width="4" stroke-linecap="round" stroke-linejoin="round"/>
<path d="M1100.58 610.78C1120.84 611.21 1137.39 594.76 1137.39 574.71V539.8C1137.39 539.69 1137.39 539.69 1137.29 539.69H1065.35C1065.24 539.69 1065.24 539.69 1065.24 539.8V574.07C1065.24 593.8 1080.84 610.36 1100.58 610.78Z" fill="white" stroke="#201E28" stroke-width="4"/>
<path d="M1101.32 558.79C1124.34 558.79 1136.12 541.71 1137.29 539.9C1137.29 539.8 1137.29 539.69 1137.18 539.69H1065.46C1065.35 539.69 1065.35 539.8 1065.35 539.9C1066.52 541.71 1078.29 558.79 1101.32 558.79Z" fill="white" stroke="#201E28" stroke-width="4"/>
<path d="M1150.66 581.071C1143.34 581.071 1137.39 575.131 1137.39 567.811C1137.39 560.491 1143.34 554.551 1150.66 554.551C1157.98 554.551 1163.92 560.491 1163.92 567.811C1163.92 575.131 1157.98 581.071 1150.66 581.071Z" stroke="#201E28" stroke-width="4" stroke-linecap="round" stroke-linejoin="round"/>
<path d="M970.44 1044.02L953.69 1001.46C953.69 1001.33 953.69 1001.33 953.69 1001.21C959.07 989.1 959.07 971 953.32 939.81C953.32 939.69 953.32 939.69 953.32 939.57C955.15 936.51 997.11 872.79 1000.9 866.8C1001.02 866.55 1001.26 866.55 1001.51 866.8C1005.54 872.67 1049.57 937 1051.29 939.57C1051.29 939.57 1051.29 939.69 1051.29 939.81C1051.16 979.32 1046.15 1017.36 1041.87 1043.04C1041.87 1043.16 1041.75 1043.65 1041.62 1043.65C1037.1 1044.14 970.57 1043.77 970.44 1044.02Z" fill="white" stroke="#201E28" stroke-width="4"/>
<path d="M796.77 1046.23C795.67 1029.23 789.68 1003.91 789.43 1001.83C789.43 1001.71 789.43 1001.71 789.43 1001.59C796.89 988.14 797.38 968.2 795.67 939.95C795.67 939.83 795.79 939.58 795.91 939.58C799.95 938.48 848.75 929.92 850.83 929.55H850.95C852.66 930.04 890.46 939.58 890.46 939.58C889.48 981.53 882.26 1022.63 877.86 1043.42C877.86 1043.54 877.74 1043.66 877.61 1043.66C871.62 1044.52 800.44 1045.86 800.32 1046.23L797.14 1046.48C796.89 1046.48 796.77 1046.35 796.77 1046.23Z" fill="white" stroke="#201E28" stroke-width="4"/>
<path d="M681.56 413.78C681.56 413.66 681.44 413.53 681.31 413.53C679.11 412.92 668.35 408.15 656 376.11V375.99C639.49 355.32 627.87 340.27 630.43 336.6C630.43 336.6 630.43 336.48 630.56 336.48C635.69 331.71 645.6 340.15 653.31 348.22C653.55 348.47 653.79 348.22 653.67 347.98C648.05 337.34 636.79 325.72 640.46 316.42C641.08 314.83 642.18 313.61 644.01 312.88C644.13 312.88 644.26 312.63 644.26 312.51C643.28 305.17 649.03 301.87 655.26 304.44C655.38 304.44 655.51 304.44 655.63 304.44C671.65 294.04 692.32 334.53 705.04 345.17C705.29 345.29 705.53 345.17 705.65 344.92C708.1 329.39 710.18 315.94 716.66 316.42C719.23 316.42 720.21 321.81 721.55 329.14C722.65 335.5 724.12 343.33 726.93 349.45C732.44 361.19 735.25 374.15 735.13 386.87V386.99C740.26 396.9 745.52 405.83 749.93 415.12C750.05 415.25 749.93 415.49 749.8 415.61C747.48 416.84 731.7 424.66 716.78 431.76C703.94 437.75 691.46 442.03 689.26 442.77C689.02 442.89 688.9 442.77 688.77 442.52C687.8 439.83 683.27 422.46 681.56 413.78Z" fill="white" stroke="#201E28" stroke-width="4"/>
<path d="M705.29 345.41L703.82 354.83C703.82 354.83 696.11 370.24 700.27 387.36" stroke="#201E28" stroke-width="4" stroke-linecap="round" stroke-linejoin="round"/>
<path d="M655.38 304.32C670.06 319.85 683.64 340.15 683.64 340.15" stroke="#201E28" stroke-width="4" stroke-linecap="round" stroke-linejoin="round"/>
<path d="M644.38 312.761C650.74 319.121 671.77 348.351 671.77 348.351" stroke="#201E28" stroke-width="4" stroke-linecap="round" stroke-linejoin="round"/>
<path d="M653.55 348.221L660.77 357.521" stroke="#201E28" stroke-width="4" stroke-linecap="round" stroke-linejoin="round"/>
<path d="M884.46 362.3L884.58 352.03C884.58 351.78 884.34 351.66 884.1 351.66C871.5 355.21 855.11 350.93 849.12 340.29C839.33 323.65 850.71 307.02 850.83 288.67C851.81 277.91 853.15 264.95 857.43 255.77C858.17 254.06 859.02 252.59 860 251.25C860.12 251.13 860.12 251.13 860.25 251.13C873.82 251.25 884.95 249.05 907.09 249.05C908.8 249.05 914.3 257.73 916.02 257.85C941.46 259.2 934 257.85 960.41 276.2C960.54 276.32 960.54 276.32 960.54 276.44C960.17 288.92 957.97 321.45 956.38 346.77C956.01 352.15 955.77 357.41 955.52 361.81V361.93C955.52 363.89 884.22 361.69 884.46 362.3Z" fill="white" stroke="#201E28" stroke-width="4"/>
<path d="M925.43 330.61C925.31 330.49 925.43 330.25 925.56 330.12C928.13 328.53 949.77 314.71 945.49 302.11C942.07 289.88 922.87 294.17 916.75 296.61C916.51 296.73 916.26 296.61 916.26 296.37C914.67 288.17 916.02 282.06 918.71 275.7C918.83 275.45 918.59 275.21 918.34 275.21C901.83 277.78 888.38 269.83 897.3 255.15C897.43 254.91 897.18 254.54 896.94 254.66C884.34 259.06 863.79 262 857.68 255.76C857.56 255.64 857.56 255.52 857.56 255.39C862.57 224.57 958.09 208.31 960.78 275.82C960.54 294.29 959.19 322.17 956.5 346.14C956.5 346.27 956.38 346.51 956.13 346.51C933.75 346.63 926.41 332.81 925.43 330.61Z" fill="white" stroke="#201E28" stroke-width="4"/>
<path d="M884.58 351.54C893.27 348.97 901.59 345.67 907.21 342" stroke="#201E28" stroke-width="4" stroke-linecap="round" stroke-linejoin="round"/>
<path d="M919.32 314.59L928.49 310.92" stroke="#201E28" stroke-width="4" stroke-linecap="round" stroke-linejoin="round"/>
<path d="M872.35 300.04L871.62 302.6C871.13 304.07 871.62 305.66 872.72 306.64L872.97 306.88" stroke="#201E28" stroke-width="4" stroke-linecap="round" stroke-linejoin="round"/>
<path d="M869.79 318.15C871.38 319.37 876.88 319.49 879.94 315.7" stroke="#201E28" stroke-width="4" stroke-linecap="round" stroke-linejoin="round"/>
<path d="M887.89 298.2C889.57 298.2 890.94 296.83 890.94 295.14C890.94 293.46 889.57 292.09 887.89 292.09C886.2 292.09 884.83 293.46 884.83 295.14C884.83 296.83 886.2 298.2 887.89 298.2Z" fill="#201E28" stroke="#201E28" stroke-width="4"/>
<path d="M862.33 294.41C864.01 294.41 865.38 293.04 865.38 291.35C865.38 289.66 864.01 288.29 862.33 288.29C860.64 288.29 859.27 289.66 859.27 291.35C859.27 293.04 860.64 294.41 862.33 294.41Z" fill="#201E28" stroke="#201E28" stroke-width="4"/>
<path d="M744.55 1043.77C747.73 1037.05 755.31 1031.18 765.09 1024.57C770.11 1020.66 775.73 1016.25 782.22 1010.75C785.15 1008.3 787.35 1005.37 789.19 1002.07C789.31 1001.94 789.55 1001.82 789.68 1001.94C805.09 1010.63 815.6 1021.51 816.34 1046.46C816.34 1047.32 751.39 1044.51 744.79 1044.38C744.55 1044.26 744.42 1044.02 744.55 1043.77Z" fill="white" stroke="#201E28" stroke-width="4"/>
<path d="M1051.29 927.6C1050.8 896.16 1042.48 858.37 1034.29 831.34C1029.52 814.46 1025.48 799.91 1023.89 784.99C1016.55 698.15 1050.19 621.95 992.82 534.63C992.7 534.51 992.7 534.51 992.58 534.51H897.43C897.43 534.51 897.43 534.51 897.43 534.63C881.65 534.63 869.05 534.75 867.46 534.75C867.34 534.75 867.22 534.87 867.22 534.87C841.53 579.76 774.63 736.55 792.61 890.29C793.59 907.54 794.94 922.95 795.91 939.34C795.91 939.58 796.04 939.7 796.28 939.7C802.15 939.58 884.58 939.95 890.46 939.58C890.7 939.58 890.82 939.46 890.82 939.21C890.82 932.37 891.07 928.08 890.82 921.36C890.09 897.39 888.5 878.18 885.81 859.1C876.76 811.16 890.58 778.02 915.56 725.89C916.02 724.69 916.02 724.81 916.22 726.34C922.74 783.28 931.18 840.88 942.92 889.44C946.47 905.7 950.75 924.9 953.56 939.34C953.56 939.46 953.69 939.58 953.93 939.58H1051.41C1051.65 939.58 1051.78 939.46 1051.78 939.21C1051.41 935.3 1051.41 931.26 1051.29 927.6Z" fill="white" stroke="#201E28" stroke-width="4"/>
<path d="M968.85 534.13C995.15 606.9 984.39 718.32 992.82 792.07C1001.26 866.31 1015.45 877.32 1020.1 938.71" stroke="#201E28" stroke-width="4" stroke-linecap="round" stroke-linejoin="round"/>
<path d="M909.66 1043.77C909.41 1043.77 909.29 1043.41 909.41 1043.28C917.24 1031.79 934 1022.12 946.47 1010.63C949.53 1008.06 951.73 1005.12 953.44 1001.58C953.56 1001.46 953.69 1001.33 953.93 1001.46C970.08 1009.89 980.84 1025.18 981.69 1046.22C981.69 1046.95 916.75 1044.26 909.66 1043.77Z" fill="white" stroke="#201E28" stroke-width="4"/>
<path d="M905.62 627.08C908.31 655.45 911.49 688.84 916.05 725.29" stroke="#201E28" stroke-width="4" stroke-linecap="round" stroke-linejoin="round"/>
<path d="M1017.41 408.64C994.29 376.11 959.07 372.32 955.28 371.95C955.03 371.95 954.91 371.83 954.91 371.58C955.03 369.5 955.4 363.63 955.52 362.17C955.52 361.92 955.4 361.8 955.15 361.8H884.83C884.58 361.8 884.46 361.92 884.46 362.17L884.34 373.42C884.34 373.66 884.22 373.79 883.97 373.79C883.61 373.79 882.99 373.66 882.14 373.66C833.22 373.79 804.35 420.87 772.68 460.01C772.55 460.26 772.19 460.13 772.06 460.01C770.11 455.97 761.42 438.36 749.93 415.74C749.8 415.61 749.68 415.49 749.56 415.61C745.16 417.08 692.69 440.81 688.9 442.89C688.77 443.01 688.65 443.13 688.77 443.25C717.03 576.93 789.43 563.85 852.05 479.46C852.17 479.21 852.54 479.33 852.66 479.58C854.25 485.82 865.99 531.19 866.97 534.98C866.97 535.11 867.1 535.23 867.34 535.23H945.37C945.61 535.23 945.74 535.35 945.74 535.6L944.27 557.98C944.27 558.1 944.39 558.34 944.51 558.34C964.57 562.75 982.8 565.19 998.33 565.07C1119.78 567.03 1031.11 424.79 1017.41 408.64Z" fill="white" stroke="#201E28" stroke-width="4"/>
<path d="M856.58 590.89C849.97 589.54 855.48 577.93 861.71 568.39C861.96 568.02 861.59 567.65 861.22 567.9C852.79 573.64 842.27 581.84 833.83 581.84C830.53 581.96 828.2 580.25 825.88 578.17C825.88 578.17 825.76 578.05 825.63 578.05C819.4 577.93 818.05 573.28 819.4 567.65C819.4 567.53 819.4 567.53 819.4 567.41C814.99 556.52 829.43 542.21 841.66 530.96C852.3 521.79 863.55 514.33 871.62 511.39C891.92 503.81 925.92 501.73 948.06 501.61C948.31 501.61 948.43 501.73 948.43 501.97C948.67 507.6 945.86 553.83 944.39 557.74C944.39 557.87 944.15 557.99 944.02 557.99C937.67 556.64 929.59 554.56 922.38 552.61C922.25 552.61 922.13 552.61 922.13 552.61C920.3 553.95 905.87 559.46 885.56 563.86C885.44 563.86 885.44 563.98 885.32 563.98C873.09 580.25 860.25 590.77 856.58 590.89Z" fill="white" stroke="#201E28" stroke-width="4"/>
<path d="M909.05 1043.9C909.17 1043.77 909.17 1043.77 909.29 1043.77L1041.62 1043.16C1041.87 1043.16 1041.99 1043.41 1041.99 1043.53C1040.4 1052.21 1039.3 1057.72 1038.69 1060.77C1038.69 1060.9 1038.57 1061.02 1038.32 1061.02C1031.84 1061.02 912.1 1061.26 904.89 1061.26C904.64 1061.26 904.52 1061.14 904.52 1060.9C904.52 1059.06 904.64 1048.67 909.05 1043.9Z" fill="white" stroke="#201E28" stroke-width="4"/>
<path d="M744.42 1044.26L877.37 1043.65C877.61 1043.65 877.74 1043.9 877.74 1044.02C876.02 1052.95 874.43 1059.18 874.07 1060.65C874.07 1060.77 873.94 1060.9 873.7 1060.9C866.73 1060.9 747.97 1061.26 740.26 1061.26C740.02 1061.26 739.9 1061.14 739.9 1060.9C739.78 1059.06 739.65 1049.52 744.06 1044.26C744.3 1044.26 744.42 1044.26 744.42 1044.26Z" fill="white" stroke="#201E28" stroke-width="4"/>
<path d="M772.68 460.021L781.36 449.021" stroke="#201E28" stroke-width="4" stroke-linecap="round" stroke-linejoin="round"/>
<path d="M852.54 479.21L846.55 451.57" stroke="#201E28" stroke-width="4" stroke-linecap="round" stroke-linejoin="round"/>
<path d="M955.52 371.96C966.16 373.43 963.96 373.68 971.42 375.39" stroke="#201E28" stroke-width="4" stroke-linecap="round" stroke-linejoin="round"/>
<path d="M965.8 457.32L983.28 501.96" stroke="#201E28" stroke-width="4" stroke-linecap="round" stroke-linejoin="round"/>
<path d="M948.31 501.721C960.17 501.721 980.59 501.961 995.15 502.821" stroke="#201E28" stroke-width="4" stroke-linecap="round" stroke-linejoin="round"/>
<path d="M819.4 567.531C826.73 559.331 843.49 543.92 855.35 535.73" stroke="#201E28" stroke-width="4" stroke-linecap="round" stroke-linejoin="round"/>
<path d="M826.12 577.8C831.63 572.3 849.85 556.77 864.53 546.74" stroke="#201E28" stroke-width="4" stroke-linecap="round" stroke-linejoin="round"/>
<path d="M862.69 566.91L873.7 557.61" stroke="#201E28" stroke-width="4" stroke-linecap="round" stroke-linejoin="round"/>
<path d="M517.77 571.33C500.32 571.33 482.29 557.13 477.58 539.68L444.67 416.85C442.34 408.15 443.61 400.04 448.24 393.99C452.65 388.25 459.64 385.08 467.91 385.08H665.08C682.54 385.08 700.57 399.33 705.26 416.84L738.17 539.56C740.46 548.29 739.16 556.43 734.49 562.47C730.09 568.19 723.14 571.33 714.93 571.33H517.77Z" fill="white" stroke="#201E28" stroke-width="4"/>
<path d="M541.18 610.51L565.24 520.37L641.77 520.35L617.6 610.51H541.18ZM596.52 545.87C587.68 545.87 577.72 556.18 574.31 568.86C572.26 576.49 572.99 583.6 576.28 587.89C577.2 589.14 578.41 590.15 579.8 590.84C581.19 591.53 582.72 591.87 584.27 591.85C593.16 591.85 603.16 581.53 606.58 568.85C608.58 561.2 607.8 554.08 604.49 549.8C603.57 548.56 602.37 547.56 600.98 546.87C599.59 546.19 598.06 545.84 596.52 545.87Z" fill="white" stroke="#201E28" stroke-width="4"/>
<path d="M557.63 432.03L562.43 450.05" stroke="#201E28" stroke-width="4" stroke-linecap="round" stroke-linejoin="round"/>
<path d="M580.16 432.03L584.96 450.05" stroke="#201E28" stroke-width="4" stroke-linecap="round" stroke-linejoin="round"/>
<path d="M602.69 432.03L607.48 450.05" stroke="#201E28" stroke-width="4" stroke-linecap="round" stroke-linejoin="round"/>
<path d="M652.34 610.51C652.34 608.71 652.69 606.92 653.38 605.25C654.06 603.58 655.07 602.06 656.34 600.78C657.62 599.5 659.13 598.49 660.8 597.8C662.46 597.1 664.25 596.75 666.06 596.74H829.63C833.27 596.75 836.76 598.2 839.34 600.77C841.91 603.35 843.36 606.84 843.37 610.48V610.51H652.34Z" fill="white" stroke="#201E28" stroke-width="4"/>
<path d="M778.69 610.51C778.69 608.71 779.04 606.92 779.72 605.25C780.41 603.58 781.42 602.06 782.69 600.78C783.97 599.5 785.48 598.49 787.15 597.8C788.81 597.1 790.6 596.75 792.41 596.74H829.63C833.27 596.75 836.76 598.2 839.34 600.77C841.91 603.35 843.36 606.84 843.37 610.48V610.51H778.69Z" fill="white" stroke="#201E28" stroke-width="4"/>
<path d="M1203.78 648.52H491.56V1061.66H1203.78V648.52Z" fill="white" stroke="#201E28" stroke-width="4"/>
<path d="M1203.78 968.79H491.56V1061.99H1203.78V968.79Z" fill="white" stroke="#201E28" stroke-width="4"/>
<path d="M1203.65 610.34H432.16V669.85H1203.65V610.34Z" fill="white" stroke="#201E28" stroke-width="4"/>
<path d="M491.17 669.85H1203.65" stroke="#201E28" stroke-width="4" stroke-linecap="round" stroke-linejoin="round"/>
<path d="M491.17 968.79H1203.65" stroke="#201E28" stroke-width="4" stroke-linecap="round" stroke-linejoin="round"/>
<path d="M405.89 362.69C449.86 362.69 485.5 327.05 485.5 283.08C485.5 239.11 449.86 203.47 405.89 203.47C361.93 203.47 326.28 239.11 326.28 283.08C326.28 327.05 361.93 362.69 405.89 362.69Z" fill="white" stroke="#201E28" stroke-width="4"/>
<path d="M414.31 252.14L405.89 283.08L433.3 319.08" stroke="#201E28" stroke-width="4" stroke-linecap="round" stroke-linejoin="round"/>
<path d="M405.89 225.81C408.15 225.81 409.96 223.99 409.96 221.74C409.96 219.49 408.15 217.67 405.89 217.67C403.65 217.67 401.82 219.49 401.82 221.74C401.82 223.99 403.65 225.81 405.89 225.81Z" fill="white" stroke="#201E28" stroke-width="4"/>
<path d="M405.89 348.4C408.15 348.4 409.96 346.57 409.96 344.32C409.96 342.07 408.15 340.25 405.89 340.25C403.65 340.25 401.82 342.07 401.82 344.32C401.82 346.57 403.65 348.4 405.89 348.4Z" fill="white" stroke="#201E28" stroke-width="4"/>
<path d="M467.14 287.15C469.39 287.15 471.21 285.32 471.21 283.08C471.21 280.83 469.39 279.01 467.14 279.01C464.89 279.01 463.07 280.83 463.07 283.08C463.07 285.32 464.89 287.15 467.14 287.15Z" fill="white" stroke="#201E28" stroke-width="4"/>
<path d="M344.56 287.15C346.81 287.15 348.63 285.32 348.63 283.08C348.63 280.83 346.81 279.01 344.56 279.01C342.31 279.01 340.49 280.83 340.49 283.08C340.49 285.32 342.31 287.15 344.56 287.15Z" fill="white" stroke="#201E28" stroke-width="4"/>
<path d="M405.71 289.049C408.86 289.049 411.41 286.499 411.41 283.349C411.41 280.199 408.86 277.649 405.71 277.649C402.56 277.649 400.01 280.199 400.01 283.349C400.01 286.499 402.56 289.049 405.71 289.049Z" fill="white" stroke="#201E28" stroke-width="4"/>
<path d="M753.93 113.42C796.25 113.42 830.58 147.75 830.58 190.08V255.65C830.58 261.82 825.58 266.73 819.5 266.73H753.93C711.6 266.73 677.27 232.41 677.27 190.08C677.27 147.67 711.6 113.42 753.93 113.42Z" fill="white" stroke="#201E28" stroke-width="4"/>
<path d="M1085.06 1000.05L1068.81 999.87L1079.29 967.36C1076.53 962.29 1073.16 957.59 1069.34 953.32L1057.79 940.35C1050.51 932.09 1049.08 920.01 1054.33 910.33L1064.1 892.03H978.37H978.29L988.15 910.33C993.3 920.1 991.88 932.18 984.5 940.35L972.96 953.32C969.05 957.59 965.67 962.29 962.83 967.36L971.89 998.8L957.85 998.63L952.79 1008.04C953.24 1028.3 961.32 1047.48 975.53 1061.96H1066.76C1080.98 1047.57 1089.06 1028.47 1089.5 1008.22L1085.06 1000.05Z" fill="white" stroke="#201E28" stroke-width="4"/>
<path d="M1050.48 1020.31C1051.57 1021.24 1040.57 1012.13 1031.33 1008.84C1027.95 1007.69 1024.4 1007.06 1020.85 1007.06C1007.34 1007.06 995.26 1015.68 991.13 1018.12C989.9 1018.75 974.21 1007.06 960.71 1007.06C958.04 1007.06 955.38 1007.42 952.8 1008.04C952.44 993.83 956 979.62 962.93 967.27C975.72 968.16 986.01 978.72 990.82 978.48C995.12 978.72 1001.12 972.24 1010.36 968.96C1013.74 967.8 1017.29 967.18 1020.85 967.18C1034.35 967.18 1046.52 977.38 1050.96 977.21C1056.32 977.28 1066.33 967.98 1079.3 967.27C1086.31 979.7 1089.87 993.92 1089.51 1008.22C1086.76 1007.51 1083.83 1007.06 1080.98 1007.06C1067.57 1007.06 1059.43 1011.73 1052.58 1018.36L1050.48 1020.31Z" fill="white" stroke="#201E28" stroke-width="4"/>
<path d="M1021.11 909.88C997.22 909.88 983.41 897.95 981.99 892.14H1060.48C1060.58 896.14 1045.19 909.88 1021.11 909.88Z" fill="white" stroke="#201E28" stroke-width="4"/>
<path d="M1027.51 907.31C1029.28 896.56 1037.19 854.18 1057.18 831.09" stroke="#201E28" stroke-width="4" stroke-linecap="round" stroke-linejoin="round"/>
<path d="M1018.27 907.57C1018.18 895.4 1016.85 835.71 1005.03 800.09" stroke="#201E28" stroke-width="4" stroke-linecap="round" stroke-linejoin="round"/>
<path d="M1044.55 862.359C1042.33 859.429 1041.71 857.119 1042.69 855.609C1044.29 853.029 1050.15 852.849 1059.21 855.069C1068.27 857.289 1079.38 861.739 1090.57 867.509C1106.38 875.679 1119.35 885.099 1124.59 892.029C1126.81 894.959 1127.43 897.269 1126.46 898.779C1124.86 901.349 1119 901.529 1109.93 899.309C1100.87 897.089 1089.77 892.649 1078.58 886.879C1062.77 878.699 1049.8 869.379 1044.55 862.359Z" fill="white" stroke="#201E28" stroke-width="4"/>
<path d="M905.72 816.79C905.01 815.99 904.65 815.1 904.56 814.3C904.21 811.63 906.7 809.32 911.49 807.81C916.29 806.22 922.86 805.59 929.97 806.04C942.14 806.75 953.24 810.3 956.8 814.83C957.51 815.63 957.86 816.52 957.95 817.32C958.66 822.74 947.29 826.47 932.55 825.67C920.38 824.87 909.36 821.32 905.72 816.79Z" fill="white" stroke="#201E28" stroke-width="4"/>
<path d="M934.06 883.14C922.33 885.19 915.05 884.39 914.07 880.92C912.2 874.44 932.81 860.58 960.17 850.01C971.99 845.48 983.71 842.01 993.22 840.33C1004.94 838.28 1012.23 839.08 1013.21 842.55C1014.09 845.66 1009.83 850.63 1001.12 856.49C992.42 862.36 980.34 868.31 967.1 873.46C955.29 878.08 943.56 881.55 934.06 883.14Z" fill="white" stroke="#201E28" stroke-width="4"/>
<path d="M1055.03 738.21C1057.04 732.16 1053.31 725.47 1046.7 723.27C1040.09 721.08 1033.1 724.21 1031.09 730.26C1029.08 736.3 1032.81 742.99 1039.42 745.19C1046.03 747.39 1053.02 744.26 1055.03 738.21Z" fill="white" stroke="#201E28" stroke-width="4"/>
<path d="M1006.96 805.79C1024.93 799.52 1035.07 781.71 1029.59 766C1024.11 750.3 1005.1 742.65 987.12 748.92C969.15 755.19 959.02 773 964.5 788.71C969.98 804.41 988.99 812.06 1006.96 805.79Z" fill="white" stroke="#201E28" stroke-width="4"/>
<path d="M998.54 781.63C1001.22 780.69 1002.73 778.02 1001.91 775.66C1001.09 773.29 998.24 772.14 995.55 773.07C992.86 774.01 991.35 776.69 992.18 779.05C993.01 781.41 995.85 782.57 998.54 781.63Z" fill="white" stroke="#201E28" stroke-width="4"/>
<path d="M1094.67 833.69C1102.45 821.37 1097.31 804.16 1083.21 795.26C1069.1 786.37 1051.36 789.14 1043.59 801.47C1035.81 813.79 1040.95 831 1055.05 839.9C1069.16 848.79 1086.9 846.02 1094.67 833.69Z" fill="white" stroke="#201E28" stroke-width="4"/>
<path d="M1073.49 820.33C1074.83 818.22 1073.96 815.27 1071.55 813.75C1069.14 812.23 1066.11 812.72 1064.77 814.83C1063.44 816.95 1064.31 819.9 1066.72 821.41C1069.13 822.93 1072.15 822.45 1073.49 820.33Z" fill="white" stroke="#201E28" stroke-width="4"/>
<path d="M738.55 223.68C740.24 224.66 741.68 226.03 742.76 227.66C743.83 229.29 744.51 231.15 744.74 233.1C744.88 234.49 745.48 235.8 746.45 236.82C747.41 237.83 748.69 238.5 750.07 238.71L750.28 238.78C751.67 238.96 753.07 238.66 754.25 237.93C755.44 237.2 756.35 236.09 756.82 234.78C757.43 233.2 758.34 231.75 759.49 230.5C761.03 228.87 762.99 227.69 765.16 227.1C767.33 226.5 769.62 226.51 771.78 227.12C773.41 227.61 774.93 228.4 776.27 229.44C777.37 230.33 778.73 230.81 780.14 230.81C781.54 230.81 782.91 230.33 784 229.44L784.14 229.37C785.26 228.5 786.06 227.28 786.4 225.91C786.75 224.53 786.62 223.08 786.04 221.79C784.71 218.77 784.64 215.35 785.82 212.27C787 209.19 789.35 206.7 792.36 205.35C793.5 204.84 794.7 204.51 795.94 204.37C797.34 204.22 798.64 203.62 799.66 202.66C800.68 201.69 801.35 200.41 801.56 199.03L801.63 198.82C801.81 197.44 801.5 196.04 800.78 194.85C800.05 193.66 798.94 192.76 797.63 192.28C796.05 191.67 794.59 190.76 793.34 189.62C791.71 188.07 790.54 186.11 789.94 183.94C789.35 181.77 789.36 179.48 789.97 177.32C790.46 175.69 791.24 174.17 792.29 172.83C793.14 171.72 793.61 170.36 793.61 168.96C793.61 167.57 793.14 166.21 792.29 165.1C792.25 165.06 792.23 165.01 792.22 164.96C791.35 163.84 790.13 163.04 788.75 162.7C787.38 162.36 785.93 162.48 784.63 163.06C781.61 164.4 778.19 164.49 775.11 163.3C772.02 162.12 769.54 159.76 768.2 156.74C767.68 155.61 767.32 154.4 767.14 153.16C767 151.77 766.4 150.46 765.43 149.44C764.47 148.42 763.19 147.76 761.8 147.54L761.59 147.47C760.21 147.3 758.81 147.6 757.62 148.33C756.44 149.05 755.53 150.16 755.06 151.47C754.44 153.06 753.54 154.51 752.39 155.76C750.84 157.39 748.88 158.56 746.72 159.16C744.55 159.75 742.26 159.74 740.1 159.13C738.47 158.64 736.95 157.86 735.6 156.81C734.51 155.93 733.15 155.44 731.74 155.44C730.33 155.44 728.97 155.93 727.88 156.81L727.74 156.88C726.63 157.75 725.85 158.96 725.51 160.32C725.18 161.69 725.32 163.12 725.91 164.4C727.25 167.42 727.34 170.84 726.15 173.93C724.97 177.01 722.61 179.49 719.59 180.84C718.45 181.36 717.24 181.71 716.01 181.89C714.61 182.03 713.3 182.63 712.29 183.6C711.27 184.57 710.6 185.84 710.39 187.23L710.32 187.44C710.14 188.82 710.44 190.22 711.17 191.41C711.9 192.6 713.01 193.5 714.32 193.97C715.9 194.59 717.36 195.49 718.61 196.64C720.26 198.18 721.46 200.15 722.07 202.34C722.68 204.52 722.67 206.82 722.05 209C721.56 210.63 720.77 212.16 719.73 213.5C718.84 214.59 718.36 215.95 718.36 217.36C718.36 218.77 718.84 220.13 719.73 221.22L719.8 221.36C720.66 222.47 721.87 223.26 723.23 223.6C724.59 223.94 726.03 223.83 727.32 223.26C729.08 222.41 731.03 222 732.99 222.08C734.95 222.15 736.86 222.7 738.55 223.68ZM742.91 190.67C745.23 179.64 758.43 176.06 766.09 184.28C767.43 185.77 768.42 187.56 768.95 189.5C769.49 191.44 769.57 193.47 769.18 195.45C768.71 197.9 767.56 200.18 765.87 202.02C764.17 203.86 761.99 205.19 759.58 205.86C757.17 206.52 754.61 206.5 752.22 205.79C749.81 205.08 747.66 203.71 746 201.84C744.61 200.37 743.6 198.59 743.06 196.64C742.52 194.69 742.47 192.64 742.91 190.67Z" fill="white" stroke="#201E28" stroke-width="4"/>
</g>
<defs>
<clipPath id="clip0_3187_50462">
<rect width="1600" height="1200" fill="white"/>
</clipPath>
</defs>
</svg>
