<svg xmlns="http://www.w3.org/2000/svg" height="1200" width="1600" version="1.1" xmlns:xlink="http://www.w3.org/1999/xlink" xmlns:svgjs="http://svgjs.com/svgjs"><rect fill="#ffffff" width="1600" height="1200"></rect><g><path d="M1141.91 271.38H603.39C566.92 271.38 537.43 300.87 537.43 337.34V843.29C537.43 879.76 566.92 909.24 603.39 909.24H1141.91C1178.37 909.24 1207.86 879.76 1207.86 843.29V337.34C1207.86 300.98 1178.26 271.38 1141.91 271.38Z" opacity="1" stroke-width="4" stroke="#000000" fill="#ffffff"></path><path d="M609.07 386.83C624.05 386.83 636.19 374.69 636.19 359.71 636.19 344.74 624.05 332.6 609.07 332.6 594.1 332.6 581.96 344.74 581.96 359.71 581.96 374.69 594.1 386.83 609.07 386.83Z" opacity="1" stroke-width="4" stroke="#000000" fill="#ffffff"></path><path d="M687.81 386.83C702.79 386.83 714.93 374.69 714.93 359.71 714.93 344.74 702.79 332.6 687.81 332.6 672.84 332.6 660.7 344.74 660.7 359.71 660.7 374.69 672.84 386.83 687.81 386.83Z" opacity="1" stroke-width="4" stroke="#000000" fill="#ffffff"></path><path d="M766.67 386.83C781.65 386.83 793.79 374.69 793.79 359.71 793.79 344.74 781.65 332.6 766.67 332.6 751.7 332.6 739.56 344.74 739.56 359.71 739.56 374.69 751.7 386.83 766.67 386.83Z" opacity="1" stroke-width="4" stroke="#000000" fill="#ffffff"></path></g><g><path d="M666.65 465.9H1079.47V627.85H961.98L916.35 600.86 823.73 604.78 787.32 627.85 769.75 647.22H684.97L666.65 627.85V465.9Z" opacity="1" stroke-width="4" stroke="#000000" fill="#ffffff"></path><path d="M787.32 627.85H612.67V681.84H787.32V627.85Z" opacity="1" stroke-width="4" stroke="#000000" fill="#ffffff"></path><path d="M961.98 573.87H787.32V627.85H961.98V573.87Z" opacity="1" stroke-width="4" stroke="#000000" fill="#ffffff"></path><path d="M1136.63 519.89H961.98V573.87H1136.63V519.89Z" opacity="1" stroke-width="4" stroke="#000000" fill="#ffffff"></path><path d="M787.32 520.2H612.67V533.65H787.32V520.2Z" opacity="1" stroke-width="4" stroke="#000000" fill="#ffffff"></path><path d="M961.98 506.87H787.32V520.31H961.98V506.87Z" opacity="1" stroke-width="4" stroke="#000000" fill="#ffffff"></path><path d="M1136.63 493.42H961.98V506.87H1136.63V493.42Z" opacity="1" stroke-width="4" stroke="#000000" fill="#ffffff"></path></g><g><path d="M1240.41 735.81C1276.31 735.81 1305.41 706.71 1305.41 670.82 1305.41 634.92 1276.31 605.82 1240.41 605.82 1204.51 605.82 1175.41 634.92 1175.41 670.82 1175.41 706.71 1204.51 735.81 1240.41 735.81Z" opacity="1" stroke-width="4" stroke="#000000" fill="#ffffff"></path><path d="M1250.23 640.1V674.01C1250.23 679.45 1245.85 683.83 1240.41 683.83 1234.97 683.83 1230.59 679.45 1230.59 674.01V640.1C1230.59 634.66 1234.97 630.28 1240.41 630.28 1245.85 630.22 1250.23 634.66 1250.23 640.1Z" opacity="1" stroke-width="4" stroke="#000000" fill="#ffffff"></path><path d="M1240.41 711.35C1245.83 711.35 1250.23 706.96 1250.23 701.53 1250.23 696.11 1245.83 691.71 1240.41 691.71 1234.99 691.71 1230.59 696.11 1230.59 701.53 1230.59 706.96 1234.99 711.35 1240.41 711.35Z" opacity="1" stroke-width="4" stroke="#000000" fill="#ffffff"></path></g><g><path d="M456.59 279.19C438.52 305.26 403.05 358.14 347.1 379.01 291.16 399.88 271.82 374.54 291.96 348.41 313.29 320.73 379.71 296.99 423.65 295.06 467.59 293.13 486.47 305.13 485.06 320.53 483.26 340.74 437.85 386.28 370.11 383.35 302.36 380.41 354.84 297.59 382.24 277.46 407.58 258.85 427.25 260.05 429.92 280.52 432.99 303.73 413.78 377.34 344.37 414.69" stroke="#000000" stroke-width="4" stroke-linecap="round" stroke-linejoin="round" opacity="1" fill="none"></path></g><g><path d="M791.91 190.18C805.55 190.83 820.23 190.96 850.38 174.59 903.01 146 929.19 141.85 932.89 155.1 936.14 166.8 908.2 184.99 896.51 196.68 871.76 221.44 877.93 238.33 906.26 233.72 934.19 229.17 951.09 212.92 974.47 236.31" stroke="#000000" stroke-width="4" stroke-linecap="round" stroke-linejoin="round" opacity="1" fill="none"></path></g><g><path d="M335.75 636.34L190.17 636.97" stroke="#000000" stroke-width="4" stroke-linecap="round" stroke-linejoin="round" opacity="1" fill="none"></path><path d="M384.77 586.14L318.82 511.85" stroke="#000000" stroke-width="4" stroke-linecap="round" stroke-linejoin="round" opacity="1" fill="none"></path></g><g><path d="M1296.38 854.87L1364.6 855.67" stroke="#000000" stroke-width="4" stroke-linecap="round" stroke-linejoin="round" opacity="1" fill="none"></path><path d="M1218.96 903.81L1307.38 957.72" stroke="#000000" stroke-width="4" stroke-linecap="round" stroke-linejoin="round" opacity="1" fill="none"></path><path d="M1187.08 961.99L1211.32 1010.31" stroke="#000000" stroke-width="4" stroke-linecap="round" stroke-linejoin="round" opacity="1" fill="none"></path></g><g><path d="M586.63 232.24C597.21 232.24 605.79 223.66 605.79 213.08 605.79 202.5 597.21 193.92 586.63 193.92 576.05 193.92 567.47 202.5 567.47 213.08 567.47 223.66 576.05 232.24 586.63 232.24Z" opacity="1" stroke-width="4" stroke="#000000" fill="#ffffff"></path></g><g><path d="M946.55 951.94V963.1" stroke="#000000" stroke-width="4" stroke-linecap="round" stroke-linejoin="round" opacity="1" fill="none"></path><path d="M946.55 994.79V1005.96" stroke="#000000" stroke-width="4" stroke-linecap="round" stroke-linejoin="round" opacity="1" fill="none"></path><path d="M973.56 978.95H962.4" stroke="#000000" stroke-width="4" stroke-linecap="round" stroke-linejoin="round" opacity="1" fill="none"></path><path d="M930.71 978.95H919.54" stroke="#000000" stroke-width="4" stroke-linecap="round" stroke-linejoin="round" opacity="1" fill="none"></path><path d="M927.47 959.86L935.33 967.72" stroke="#000000" stroke-width="4" stroke-linecap="round" stroke-linejoin="round" opacity="1" fill="none"></path><path d="M957.78 990.17L965.64 998.04" stroke="#000000" stroke-width="4" stroke-linecap="round" stroke-linejoin="round" opacity="1" fill="none"></path><path d="M965.64 959.86L957.78 967.72" stroke="#000000" stroke-width="4" stroke-linecap="round" stroke-linejoin="round" opacity="1" fill="none"></path><path d="M935.33 990.17L927.47 998.04" stroke="#000000" stroke-width="4" stroke-linecap="round" stroke-linejoin="round" opacity="1" fill="none"></path></g><g><path d="M285.07 822.79C297.22 822.79 307.08 812.93 307.08 800.78 307.08 788.63 297.22 778.77 285.07 778.77 272.92 778.77 263.06 788.63 263.06 800.78 263.06 812.93 272.92 822.79 285.07 822.79Z" opacity="1" stroke-width="4" stroke="#000000" fill="#ffffff"></path></g><g><path d="M1331.08 491.47L1349.44 495.83 1333.86 506.39 1339.21 524.48 1322.24 516.3 1309.3 529.97 1307.91 511.15 1289.55 506.79 1305.14 496.16 1299.79 478.13 1316.76 486.32 1329.7 472.65 1331.08 491.47Z" opacity="1" stroke-width="4" stroke="#000000" fill="#ffffff"></path></g><g><path d="M570.78 1039.5C570.7 1039.5 570.7 1039.5 570.78 1039.5 565.93 1029.62 561.26 1017.1 558 1003.96 556.14 996.29 554.91 986.5 553.59 977.77 553.59 977.68 553.5 977.77 553.59 977.77L640.2 960.04C640.28 960.04 640.28 960.04 640.28 960.13 642.93 988 659.86 998.93 674.77 1008.55 689.23 1016.13 694 1030.95 692.76 1039.41 692.76 1039.41 692.76 1039.5 692.67 1039.5 688.62 1039.5 573.52 1039.5 570.78 1039.5Z" opacity="1" stroke-width="4" stroke="#000000" fill="#ffffff"></path><path d="M565.58 1028.04C562.67 1021.16 560.02 1012.43 558 1004.14 558 1004.05 558 1004.05 558.08 1004.05L628.73 1014.9C628.82 1014.9 628.82 1014.81 628.82 1014.81L621.23 996.2C617.26 986.67 624.76 975.47 635.08 975.74 635.08 975.74 642.93 975.74 643.64 975.74 643.64 975.74 643.72 975.74 643.72 975.82 649.99 993.02 663.3 1001.4 674.95 1008.9 675.92 1009.43 676.71 1010.05 677.5 1010.57 684.38 1014.46 690.38 1023.45 691.44 1028.13 691.44 1028.21 691.44 1028.21 691.35 1028.21 688.17 1028.3 634.73 1032.18 598.57 1032.18 579.96 1032.01 566.29 1028.3 565.58 1028.04Z" opacity="1" stroke-width="4" stroke="#000000" fill="#ffffff"></path><path d="M570.51 1039.41C568.84 1035.98 567.25 1032.18 565.66 1028.13 565.66 1028.04 565.66 1028.04 565.75 1028.04H691.34C691.34 1028.04 691.43 1028.04 691.43 1028.13 692.75 1031.21 692.93 1038 692.66 1039.5 692.66 1039.5 692.66 1039.59 692.58 1039.59 688.52 1039.5 573.33 1039.5 570.51 1039.41 570.51 1039.5 570.51 1039.5 570.51 1039.41Z" opacity="1" stroke-width="4" stroke="#000000" fill="#ffffff"></path><path d="M613.21 1003.87C611.09 994.88 609.41 985.53 608.27 976.53 608.27 976.44 608.27 976.44 608.36 976.44L681.3 957.57 694.88 956.24C694.97 956.24 694.97 956.24 694.97 956.33 695.23 963.39 696.47 969.56 698.58 975.56 698.58 975.56 698.58 975.56 698.58 975.65L688.09 1025.57C688.09 1025.66 688 1025.66 688 1025.66L613.21 1003.87C613.21 1003.96 613.21 1003.96 613.21 1003.87Z" opacity="1" stroke-width="4" stroke="#000000" fill="#ffffff"></path><path d="M415.91 877.84V877.75C416.88 876.25 438.84 845.12 466.01 811.69 512.22 754.45 537.8 733.9 551.12 726.76 585.78 707.26 628.99 720.76 645.66 758.51 662.86 795.99 645.49 890.36 640.37 944.16 639.93 949.54 639.93 954.83 640.37 960.13 640.37 960.13 640.37 960.21 640.28 960.21L554.03 980.41C553.94 980.41 553.94 980.41 553.94 980.32 551.56 964.18 550.32 947.78 550.23 931.55 550.23 931.46 550.15 931.46 550.06 931.55 541.68 954.66 526.07 980.32 511.43 996.64 511.43 996.64 511.34 996.64 511.25 996.64 508.08 992.41 418.03 880.4 415.91 877.84Z" opacity="1" stroke-width="4" stroke="#000000" fill="#ffffff"></path><path d="M554.02 980.15C551.64 964.01 550.31 947.6 550.31 931.2 550.31 931.11 550.14 931.11 550.14 931.2 549.08 933.93 548.2 936.14 548.02 934.2 548.9 921.14 573.95 833.83 600.94 835.24 647.86 837.27 642.13 916.91 640.63 944.07 640.19 949.45 640.19 954.75 640.63 960.04 640.63 960.04 640.63 960.13 640.54 960.13L607.11 967.98 554.11 980.23C554.02 980.23 554.02 980.23 554.02 980.15Z" opacity="0.3" stroke-width="4" stroke="#000000" fill="#000000"></path><path d="M446.78 1039.5C403.39 1040.74 363.35 1011.99 348.26 972.39 344.91 963.48 349.23 938.34 349.41 937.46 349.15 936.84 341.56 920.26 342.88 908.27 344.47 893.8 347.73 878.81 352.5 863.46 352.5 863.46 352.5 863.37 352.59 863.37L410 860.55 470.59 877.75H470.68C472.89 874.75 560.02 751.28 605.89 726.76 640.55 707.26 683.76 720.76 700.43 758.51 719.4 800.22 696.82 899.09 694.88 956.16 694.88 956.16 694.88 956.24 694.79 956.24 693.47 956.6 669.74 962.07 647.52 967.27 628.11 971.77 609.68 976.09 608.27 976.44 608.18 976.44 608.18 976.44 608.18 976.35 606.06 961.54 605 946.28 605 931.37 605 931.29 604.92 931.29 604.83 931.37 575.37 1005.28 529.24 1045.15 446.78 1039.5Z" opacity="1" stroke-width="4" stroke="#000000" fill="#ffffff"></path><path d="M620.52 1027.95C617.7 1020.45 615.14 1012.34 613.29 1004.05 613.29 1003.96 613.29 1003.96 613.37 1003.96L683.58 1014.81C683.67 1014.81 683.67 1014.72 683.67 1014.72L676.08 996.11C672.11 986.58 679.61 975.38 689.93 975.65 689.93 975.65 697.87 975.65 698.57 975.65 698.57 975.65 698.66 975.65 698.66 975.74 704.92 992.93 721.42 1001.31 733.15 1008.81 734.12 1009.34 734.91 1009.96 735.7 1010.49 742.58 1014.37 748.49 1023.45 749.46 1028.04 749.46 1028.13 749.46 1028.13 749.37 1028.13 747.26 1028.21 728.74 1032.8 692.58 1032.8 669.03 1032.8 622.28 1028.3 620.52 1027.95 620.52 1028.04 620.52 1028.04 620.52 1027.95Z" opacity="1" stroke-width="4" stroke="#000000" fill="#ffffff"></path><path d="M625.38 1039.41C623.7 1035.98 622.2 1032.18 620.62 1028.13 620.62 1028.04 620.62 1028.04 620.7 1028.04L749.38 1028.13C749.38 1028.13 749.47 1028.13 749.47 1028.21 750.79 1031.48 750.97 1038.27 750.62 1039.5 750.62 1039.5 750.62 1039.59 750.53 1039.59 746.56 1039.5 628.2 1039.5 625.38 1039.41 625.38 1039.5 625.38 1039.5 625.38 1039.41Z" opacity="1" stroke-width="4" stroke="#000000" fill="#ffffff"></path><path d="M605 930.84C625.37 880.57 650.15 790.43 650.15 790.43" stroke="#000000" stroke-width="4" stroke-linecap="round" stroke-linejoin="round" opacity="1" fill="none"></path><path d="M608.26 976.35C606.14 961.36 605.08 945.93 605 930.84 605.35 929.87 626.52 880.84 649.98 790.52 649.98 790.43 650.06 790.43 650.15 790.52 659.59 798.99 653.68 831.18 651.56 849.88 648.65 873.16 644.77 905.18 647.6 967.18 647.6 967.18 647.6 967.27 647.51 967.27 645.74 967.71 610.38 975.82 608.26 976.35 608.26 976.44 608.26 976.35 608.26 976.35Z" opacity="0" stroke-width="4" stroke="#ffffff00" fill="#ffffff"></path><path d="M619.11 817.33C619.11 817.25 619.11 817.25 619.11 817.33 647.68 807.02 666.38 801.19 693.81 801.02 701.48 801.02 707.83 801.64 711.01 802.69 718.06 805.08 718.06 812.4 713.74 815.13 713.65 815.13 713.65 815.22 713.74 815.22 716.92 818.04 720.27 825.01 712.77 829.24 712.77 829.24 712.68 829.33 712.77 829.33 714.8 833.47 715.07 840.71 706.6 842.56 706.6 842.56 699.01 843.79 696.72 844.23 696.63 844.23 696.63 844.41 696.72 844.41 699.9 844.85 713.13 847.59 710.3 854.02 708.54 858.26 689.05 859.32 688.25 859.32 687.81 859.67 677.23 866.55 663.21 866.55 661 866.55 657.83 866.28 655.97 865.93 655.97 865.93 655.97 865.93 655.89 865.93 655.53 866.11 652.62 868.31 647.51 872.37 645.3 874.05 639.3 878.9 637.36 880.48 637.28 880.48 637.28 880.48 637.28 880.48 636.39 878.54 620.78 850.76 620.43 850.14L619.11 817.33Z" opacity="1" stroke-width="4" stroke="#000000" fill="#ffffff"></path><path d="M466.01 639L494.32 609.72C507.19 594.2 528.45 578.85 556.76 573.12 580.75 567.03 595.92 580.97 601.92 589.17 607.74 597.19 612.5 628.77 612.68 629.74 612.41 630.36 605.45 644.73 601.92 651.61V651.7C606.42 656.9 606.77 664.14 595.66 663.25 595.66 663.25 595.57 663.25 595.57 663.34 586.04 690.68 566.2 695.27 547.68 680.98H547.59C547.15 681.51 543.97 685.39 541.59 688.3 541.24 688.66 540.97 689.1 540.71 689.36 539.74 690.51 539.03 691.39 538.86 691.65H538.77L466.09 639.09C465.92 639.09 465.92 639.09 466.01 639Z" opacity="1" stroke-width="4" stroke="#000000" fill="#ffffff"></path><path d="M549.18 919.91C536.65 919.91 518.48 913.91 503.49 885.42 495.02 869.37 491.23 853.05 490.79 851.11 490.79 851.03 490.7 851.03 490.61 851.11L471.39 878.37H471.3L352.67 863.37C352.59 863.37 352.59 863.29 352.59 863.29 354.61 857.2 363.17 829.68 372.52 798.99 383.45 763.09 395.45 722.96 399.24 708.23 400.21 707.18 463.89 641.29 465.83 639.26H465.92C468.12 640.76 537.98 687.33 540.62 689.36 540.62 689.36 540.71 689.45 540.62 689.45 539.92 690.42 534.71 698 534.09 698.89 534.09 698.97 534.09 698.97 534.09 698.97 545.38 703.56 568.05 720.49 570.26 740.51 574.49 767.77 576.34 831.53 576.43 834.89 576.43 834.97 576.52 834.97 576.52 834.97 577.49 834.53 583.84 831.62 592.92 827.74 600.24 824.65 609.33 820.86 618.85 817.25 618.94 817.25 618.94 817.25 618.94 817.33L637.02 880.57V880.66C593.19 912.41 568.31 918.85 549.18 919.91Z" opacity="1" stroke-width="4" stroke="#000000" fill="#ffffff"></path><path d="M627.67 588.11C623.26 587.05 618.15 587.05 612.59 588.38H612.5C608 579.56 591.16 563.77 569.2 562 572.64 559.36 575.46 555.3 577.58 550.1 577.93 549.3 578.28 548.42 578.55 547.54 586.66 524.08 570.61 481.39 545.82 485.63 529.51 489.68 524.75 510.06 528.19 529.28 530.92 544.63 538.95 559.18 550.5 564.03 527.22 571.26 506.84 594.02 496.43 606.81 495.55 607.78 494.85 608.75 494.23 609.54H494.14C492.64 608.48 466.01 589.26 434.26 589.35 430.37 589.35 426.58 589.61 422.88 590.05 393.86 594.11 373.84 613.6 368.81 630.71 362.73 647.03 364.32 662.37 364.4 663.52 364.4 663.52 364.4 663.61 364.32 663.61 363.43 663.87 353.64 666.78 343.85 675.51 335.3 683.01 329.92 692.01 326.66 701 323.39 710 322.16 718.99 321.98 726.4 319.51 765.65 350.91 792.11 372.69 798.81 372.78 798.81 372.78 798.81 372.78 798.73 373.22 797.67 378.25 784.79 383.1 772.97 385.48 767.24 387.78 761.68 389.36 757.98L389.45 757.89C426.23 762.74 457.98 749.95 475.36 732.22 488.41 719.26 496.88 699.86 498.55 688.83 498.55 688.83 498.55 688.74 498.64 688.74 538.42 681.69 539.21 640.85 538.77 639.18 533.92 633.97 530.48 622.33 532.68 613.95 534.36 605.4 541.15 598.96 549.44 599.14 562.93 598.87 570.96 615.72 569.81 624.8V624.89C570.52 625.42 590.98 632.03 607.65 632.12 621.67 632.12 643.81 625.07 643.64 606.81 642.93 597.11 636.84 590.23 627.67 588.11Z" opacity="1" stroke-width="4" stroke="#000000" fill="#ffffff"></path><path d="M558.34 565.8C543.79 565.8 531.7 549.48 528.18 529.64 528.18 529.55 528.26 529.46 528.35 529.55 531.79 533.34 535.41 536.87 539.64 539.6 551.81 547.36 565.48 551.07 578.45 547.54 578.54 547.54 578.54 547.63 578.54 547.63 574.57 558.39 568.04 565.8 558.34 565.8Z" opacity="0" stroke-width="4" stroke="#ffffff00" fill="#ffffff"></path><path d="M367.84 748.01C375.6 754.01 384.95 756.92 389.1 757.98 389.19 757.98 389.19 758.07 389.19 758.07 387.16 762.74 385.75 766.09 382.92 772.97 382.92 773.06 382.84 773.06 382.75 773.06 372.87 766.71 368.02 750.13 367.67 748.1 367.67 748.01 367.75 748.01 367.84 748.01Z" opacity="0" stroke-width="4" stroke="#ffffff00" fill="#ffffff"></path><path d="M348.26 972.39C340.41 952.36 340.85 928.82 342.88 908.35 342.88 908.27 342.97 908.27 342.97 908.27 344.91 908.53 380.37 913.38 382.31 913.65 382.4 913.65 382.4 913.73 382.4 913.73L375.52 948.66C371.02 975.12 348.44 972.39 348.44 972.39H348.26Z" opacity="1" stroke-width="4" stroke="#000000" fill="#ffffff"></path><path d="M444.4 916.29C449.34 893.54 442.99 875.81 442.55 874.75V874.66C473.94 844.06 481.09 804.63 482.06 798.37 482.06 798.28 482.23 798.28 482.23 798.37 483.38 819.8 490.44 849.7 490.7 850.94V851.03L444.57 916.38C444.49 916.47 444.4 916.38 444.4 916.29Z" opacity="0" stroke-width="4" stroke="#ffffff00" fill="#ffffff"></path><path d="M471.29 878.37C458.32 896.09 444.48 916.38 444.48 916.38" stroke="#000000" stroke-width="4" stroke-linecap="round" stroke-linejoin="round" opacity="1" fill="none"></path><path d="M547.67 616.33L552.08 627.8" stroke="#000000" stroke-width="4" stroke-linecap="round" stroke-linejoin="round" opacity="1" fill="none"></path><path d="M586.04 662.81C583.22 661.14 579.96 660.96 576.87 661.84" stroke="#000000" stroke-width="4" stroke-linecap="round" stroke-linejoin="round" opacity="1" fill="none"></path><path d="M591.86 641.29C595.57 641.38 595.57 646.85 591.86 646.94 588.16 646.85 588.16 641.38 591.86 641.29Z" opacity="1" stroke-width="4" stroke="#000000" fill="#000000"></path><path d="M541.86 703.03C537.45 700.3 534.18 698.89 534.18 698.89" stroke="#000000" stroke-width="4" stroke-linecap="round" stroke-linejoin="round" opacity="1" fill="none"></path><path d="M713.75 815.31C701.32 815.31 686.41 817.16 686.41 817.16" stroke="#000000" stroke-width="4" stroke-linecap="round" stroke-linejoin="round" opacity="1" fill="none"></path><path d="M712.78 829.33C704.84 829.33 688.17 831.01 688.17 831.01" stroke="#000000" stroke-width="4" stroke-linecap="round" stroke-linejoin="round" opacity="1" fill="none"></path><path d="M696.63 844.32C693.63 844.41 691.25 844.76 688.34 845.38" stroke="#000000" stroke-width="4" stroke-linecap="round" stroke-linejoin="round" opacity="1" fill="none"></path><path d="M576.61 834.97L576.87 856.41" stroke="#000000" stroke-width="4" stroke-linecap="round" stroke-linejoin="round" opacity="1" fill="none"></path><path d="M389.1 758.07C377.72 754.98 367.84 748.1 367.84 748.1" stroke="#000000" stroke-width="4" stroke-linecap="round" stroke-linejoin="round" opacity="1" fill="none"></path><path d="M576.61 835.06C577.22 834.71 583.84 831.8 592.83 827.92 592.92 827.92 593.01 828.01 592.92 828.01L577.05 856.49C577.05 856.58 576.87 856.58 576.87 856.49L576.61 835.06C576.52 835.06 576.52 835.06 576.61 835.06Z" opacity="0" stroke-width="4" stroke="#ffffff00" fill="#ffffff"></path><path d="M537.36 669.96C540.27 675.16 546.97 680.28 547.68 680.81V680.89L541.77 688.13C541.68 688.21 541.59 688.13 541.59 688.13L537.18 670.05C537.18 669.96 537.27 669.87 537.36 669.96Z" opacity="0" stroke-width="4" stroke="#ffffff00" fill="#ffffff"></path><path d="M326.57 700.91C337.59 671.72 362.37 664.31 364.14 663.78 364.23 663.78 364.23 663.78 364.23 663.87 364.4 665.37 367.49 684.07 377.9 694.56 377.99 694.65 377.9 694.74 377.81 694.74 353.64 688.74 329.04 699.86 326.66 701 326.66 701.09 326.57 701 326.57 700.91Z" opacity="0" stroke-width="4" stroke="#ffffff00" fill="#ffffff"></path><path d="M470.76 637.41C460.18 600.02 427.72 591.29 423.22 590.23 423.13 590.23 423.13 590.05 423.22 590.05 459.03 585.02 492.02 607.87 493.96 609.63V609.72C492.81 611.04 472.52 635.47 470.94 637.41 470.94 637.5 470.85 637.5 470.76 637.41Z" opacity="0" stroke-width="4" stroke="#ffffff00" fill="#ffffff"></path><path d="M612.49 588.46C612.49 588.38 612.49 588.38 612.58 588.38 618.67 586.96 623.34 587.14 627.57 588.11 627.66 588.11 627.66 588.2 627.66 588.2 625.9 597.72 621.14 606.1 619.64 608.57 619.46 608.84 619.02 608.84 618.93 608.48 618.14 605.4 615.14 594.28 612.49 588.46Z" opacity="0" stroke-width="4" stroke="#ffffff00" fill="#ffffff"></path><path d="M547.77 680.98C539.92 674.81 537.18 669.96 537.18 669.96" stroke="#000000" stroke-width="4" stroke-linecap="round" stroke-linejoin="round" opacity="1" fill="none"></path><path d="M490.79 850.94C484.79 825.71 484.18 816.36 482.32 798.37" stroke="#000000" stroke-width="4" stroke-linecap="round" stroke-linejoin="round" opacity="1" fill="none"></path><path d="M493.96 609.81L486.11 619.33" stroke="#000000" stroke-width="4" stroke-linecap="round" stroke-linejoin="round" opacity="1" fill="none"></path><path d="M364.22 663.87C366.95 680.54 372.24 686.27 377.89 694.56" stroke="#000000" stroke-width="4" stroke-linecap="round" stroke-linejoin="round" opacity="1" fill="none"></path><path d="M612.49 588.46C614.52 593.58 616.55 598.78 618.93 608.48" stroke="#000000" stroke-width="4" stroke-linecap="round" stroke-linejoin="round" opacity="1" fill="none"></path></g></svg>