<svg width="1600" height="1200" viewBox="0 0 1600 1200" fill="none" xmlns="http://www.w3.org/2000/svg">
<g clip-path="url(#clip0_3187_50330)">
<path d="M1600 0H0V1200H1600V0Z" fill="white"/>
<path d="M1309.94 911.45L1340.29 908.85L1307.33 962.84L1376.18 960.24L1330.13 992.28L1371.62 1028.56" stroke="#201E28" stroke-width="4" stroke-linecap="round" stroke-linejoin="round"/>
<path d="M1144.5 185.2C1152.4 185.2 1158.8 178.8 1158.8 170.9C1158.8 163 1152.4 156.6 1144.5 156.6C1136.6 156.6 1130.2 163 1130.2 170.9C1130.2 178.8 1136.6 185.2 1144.5 185.2Z" fill="white" stroke="#201E28" stroke-width="4"/>
<path d="M1196.35 755.8C1226.05 777.3 1293.05 752 1334.45 727.2C1380.45 699.6 1382.55 669.9 1364.15 669.9C1338.55 669.9 1275.15 748.7 1311.95 766C1342.35 780.4 1397.85 754.8 1412.15 771.1C1426.45 787.4 1432.65 823.3 1472.45 841.7" stroke="#201E28" stroke-width="4" stroke-linecap="round" stroke-linejoin="round"/>
<path d="M325.7 958.6V965.09" stroke="#201E28" stroke-width="4" stroke-linecap="round" stroke-linejoin="round"/>
<path d="M325.7 983.51V990" stroke="#201E28" stroke-width="4" stroke-linecap="round" stroke-linejoin="round"/>
<path d="M341.4 974.3H334.91" stroke="#201E28" stroke-width="4" stroke-linecap="round" stroke-linejoin="round"/>
<path d="M316.49 974.3H310" stroke="#201E28" stroke-width="4" stroke-linecap="round" stroke-linejoin="round"/>
<path d="M314.61 963.21L319.18 967.78" stroke="#201E28" stroke-width="4" stroke-linecap="round" stroke-linejoin="round"/>
<path d="M332.23 980.83L336.8 985.4" stroke="#201E28" stroke-width="4" stroke-linecap="round" stroke-linejoin="round"/>
<path d="M336.8 963.21L332.23 967.78" stroke="#201E28" stroke-width="4" stroke-linecap="round" stroke-linejoin="round"/>
<path d="M319.18 980.83L314.61 985.4" stroke="#201E28" stroke-width="4" stroke-linecap="round" stroke-linejoin="round"/>
<path d="M1173.04 1037.4V1044.48" stroke="#201E28" stroke-width="4" stroke-linecap="round" stroke-linejoin="round"/>
<path d="M1173.04 1064.59V1071.68" stroke="#201E28" stroke-width="4" stroke-linecap="round" stroke-linejoin="round"/>
<path d="M1190.18 1054.54H1183.09" stroke="#201E28" stroke-width="4" stroke-linecap="round" stroke-linejoin="round"/>
<path d="M1162.98 1054.54H1155.9" stroke="#201E28" stroke-width="4" stroke-linecap="round" stroke-linejoin="round"/>
<path d="M1160.93 1042.43L1165.92 1047.42" stroke="#201E28" stroke-width="4" stroke-linecap="round" stroke-linejoin="round"/>
<path d="M1180.16 1061.66L1185.15 1066.65" stroke="#201E28" stroke-width="4" stroke-linecap="round" stroke-linejoin="round"/>
<path d="M1185.15 1042.43L1180.16 1047.42" stroke="#201E28" stroke-width="4" stroke-linecap="round" stroke-linejoin="round"/>
<path d="M1165.92 1061.66L1160.93 1066.65" stroke="#201E28" stroke-width="4" stroke-linecap="round" stroke-linejoin="round"/>
<path d="M185.26 468.5C195.7 468.5 204.16 460.04 204.16 449.6C204.16 439.16 195.7 430.7 185.26 430.7C174.82 430.7 166.36 439.16 166.36 449.6C166.36 460.04 174.82 468.5 185.26 468.5Z" fill="white" stroke="#201E28" stroke-width="4"/>
<path d="M255.73 553.56V563.26" stroke="#201E28" stroke-width="4" stroke-linecap="round" stroke-linejoin="round"/>
<path d="M255.73 590.779V600.479" stroke="#201E28" stroke-width="4" stroke-linecap="round" stroke-linejoin="round"/>
<path d="M279.19 577.02H269.49" stroke="#201E28" stroke-width="4" stroke-linecap="round" stroke-linejoin="round"/>
<path d="M241.97 577.02H232.27" stroke="#201E28" stroke-width="4" stroke-linecap="round" stroke-linejoin="round"/>
<path d="M239.15 560.439L245.98 567.269" stroke="#201E28" stroke-width="4" stroke-linecap="round" stroke-linejoin="round"/>
<path d="M265.48 586.77L272.31 593.599" stroke="#201E28" stroke-width="4" stroke-linecap="round" stroke-linejoin="round"/>
<path d="M272.31 560.439L265.48 567.269" stroke="#201E28" stroke-width="4" stroke-linecap="round" stroke-linejoin="round"/>
<path d="M245.98 586.77L239.15 593.599" stroke="#201E28" stroke-width="4" stroke-linecap="round" stroke-linejoin="round"/>
<path d="M128.05 809.4C167.55 774.6 240.75 727.6 302.05 767.5C302.05 767.5 241.75 688.7 272.45 651.9C312.55 603.7 430.55 734.7 412.85 757.2C394.65 780.2 353.95 677.3 375.25 620.1C392.05 575.1 472.25 642.6 485.15 682.5" stroke="#201E28" stroke-width="4" stroke-linecap="round" stroke-linejoin="round"/>
<path d="M1205.78 277.801H1121.88C1121.88 277.801 1112.18 327.401 1141.38 353.701H1225.28C1196.08 327.401 1205.78 277.801 1205.78 277.801Z" fill="white" stroke="#201E28" stroke-width="4"/>
<path d="M1088.18 234.9H1004.28C1004.28 234.9 994.58 284.5 1023.78 310.8H1107.68C1078.38 284.5 1088.18 234.9 1088.18 234.9Z" fill="white" stroke="#201E28" stroke-width="4"/>
<path d="M926.83 126.85L909.63 154.38L938.91 135.35L949.43 157.24L949.6 130.2L981.65 120.47L949.57 117.52L965.62 87.7803L939.16 112.73L926.78 85.3604L929.29 116.87L899.85 112.73L926.83 126.85Z" stroke="#201E28" stroke-width="4" stroke-linecap="round" stroke-linejoin="round"/>
<path d="M353.72 557.43C344.84 557.41 336.33 553.88 330.05 547.6C323.77 541.32 320.23 532.81 320.23 523.93V206.47C320.23 197.59 323.77 189.08 330.05 182.8C336.33 176.52 344.84 172.98 353.72 172.97H765.6C774.48 172.98 782.99 176.52 789.27 182.8C795.55 189.08 799.08 197.59 799.09 206.47V523.93C799.08 532.81 795.55 541.32 789.27 547.6C782.99 553.88 774.48 557.41 765.6 557.43H353.72Z" fill="white" stroke="#201E28" stroke-width="4"/>
<path d="M320.25 244.93H800.57" stroke="#201E28" stroke-width="4"/>
<path d="M355.47 220.95C362.5 220.95 368.21 215.249 368.21 208.219C368.21 201.179 362.5 195.479 355.47 195.479C348.43 195.479 342.73 201.179 342.73 208.219C342.73 215.249 348.43 220.95 355.47 220.95Z" fill="white" stroke="#201E28" stroke-width="4"/>
<path d="M394.07 220.95C401.11 220.95 406.81 215.249 406.81 208.219C406.81 201.179 401.11 195.479 394.07 195.479C387.04 195.479 381.33 201.179 381.33 208.219C381.33 215.249 387.04 220.95 394.07 220.95Z" fill="white" stroke="#201E28" stroke-width="4"/>
<path d="M432.67 220.95C439.71 220.95 445.41 215.249 445.41 208.219C445.41 201.179 439.71 195.479 432.67 195.479C425.64 195.479 419.93 201.179 419.93 208.219C419.93 215.249 425.64 220.95 432.67 220.95Z" fill="white" stroke="#201E28" stroke-width="4"/>
<path d="M397.31 286.43H526.61C534.83 286.43 541.53 293.13 541.53 301.35C541.53 309.58 534.83 316.27 526.61 316.27H397.31C389.09 316.27 382.39 309.58 382.39 301.35C382.39 293.13 389.09 286.43 397.31 286.43Z" fill="white" stroke="#201E28" stroke-width="4"/>
<path d="M397.31 348.1H472.9C481.12 348.1 487.82 354.8 487.82 363.02C487.82 371.24 481.12 377.94 472.9 377.94H397.31C389.09 377.94 382.39 371.24 382.39 363.02C382.39 354.8 389.09 348.1 397.31 348.1Z" fill="white" stroke="#201E28" stroke-width="4"/>
<path d="M522.63 348.1H546.5C554.73 348.1 561.42 354.8 561.42 363.02C561.42 371.24 554.73 377.94 546.5 377.94H522.63C514.41 377.94 507.71 371.24 507.71 363.02C507.71 354.8 514.41 348.1 522.63 348.1Z" fill="white" stroke="#201E28" stroke-width="4"/>
<path d="M397.31 409.77H415.88C424.1 409.77 430.8 416.47 430.8 424.69C430.8 432.91 424.1 439.61 415.88 439.61H397.31C389.09 439.61 382.39 432.91 382.39 424.69C382.39 416.47 389.09 409.77 397.31 409.77Z" fill="white" stroke="#201E28" stroke-width="4"/>
<path d="M465.61 409.77H577.01C585.23 409.77 591.92 416.47 591.92 424.69C591.92 432.91 585.23 439.61 577.01 439.61H465.61C457.38 439.61 450.69 432.91 450.69 424.69C450.69 416.47 457.38 409.77 465.61 409.77Z" fill="white" stroke="#201E28" stroke-width="4"/>
<path d="M626.74 409.77H722.22C730.44 409.77 737.14 416.47 737.14 424.69C737.14 432.91 730.44 439.61 722.22 439.61H626.74C618.51 439.61 611.82 432.91 611.82 424.69C611.82 416.47 618.51 409.77 626.74 409.77Z" fill="white" stroke="#201E28" stroke-width="4"/>
<path d="M397.31 471.43H456.99C465.21 471.43 471.91 478.13 471.91 486.35C471.91 494.58 465.21 501.27 456.99 501.27H397.31C389.09 501.27 382.39 494.58 382.39 486.35C382.39 478.13 389.09 471.43 397.31 471.43Z" fill="white" stroke="#201E28" stroke-width="4"/>
<path d="M506.72 471.43H519.98C528.2 471.43 534.9 478.13 534.9 486.35C534.9 494.58 528.2 501.27 519.98 501.27H506.72C498.5 501.27 491.8 494.58 491.8 486.35C491.8 478.13 498.5 471.43 506.72 471.43Z" fill="white" stroke="#201E28" stroke-width="4"/>
<path d="M569.71 471.43H648.62C656.84 471.43 663.54 478.13 663.54 486.35C663.54 494.58 656.84 501.27 648.62 501.27H569.71C561.49 501.27 554.79 494.58 554.79 486.35C554.79 478.13 561.49 471.43 569.71 471.43Z" fill="white" stroke="#201E28" stroke-width="4"/>
<path d="M334.74 267.3L321.01 322.19L248.51 256.74L269.74 387.33L206.89 340.75L205.42 385.27" stroke="#201E28" stroke-width="4" stroke-linecap="round" stroke-linejoin="round"/>
<path d="M1016.5 571.9H1240.6C1252.1 571.9 1261.5 581.3 1261.5 592.8V849.7C1261.5 861.2 1252.1 870.6 1240.6 870.6H1016.5C1005 870.6 995.6 861.2 995.6 849.7V592.8C995.6 581.2 1005 571.9 1016.5 571.9Z" fill="white" stroke="#201E28" stroke-width="4"/>
<path d="M1043.3 637.901L1052.5 647.101L1067.4 632.301" stroke="#201E28" stroke-width="4" stroke-linecap="round" stroke-linejoin="round"/>
<path d="M1061.22 727.621C1065.85 724.411 1067 718.061 1063.8 713.431C1060.59 708.791 1054.24 707.641 1049.61 710.851C1044.97 714.051 1043.82 720.411 1047.02 725.041C1050.23 729.671 1056.59 730.831 1061.22 727.621Z" stroke="#201E28" stroke-width="4" stroke-linecap="round" stroke-linejoin="round"/>
<path d="M1061.21 807.02C1065.84 803.81 1067 797.46 1063.79 792.83C1060.59 788.2 1054.23 787.04 1049.6 790.25C1044.97 793.45 1043.81 799.81 1047.02 804.44C1050.23 809.07 1056.58 810.23 1061.21 807.02Z" stroke="#201E28" stroke-width="4" stroke-linecap="round" stroke-linejoin="round"/>
<path d="M1096.3 641.601H1189.3" stroke="#201E28" stroke-width="4" stroke-linecap="round" stroke-linejoin="round"/>
<path d="M1096.3 719.301H1189.3" stroke="#201E28" stroke-width="4" stroke-linecap="round" stroke-linejoin="round"/>
<path d="M1096.3 798H1189.3" stroke="#201E28" stroke-width="4" stroke-linecap="round" stroke-linejoin="round"/>
<path d="M1332.2 823.6C1338.55 823.6 1343.7 818.45 1343.7 812.1C1343.7 805.75 1338.55 800.6 1332.2 800.6C1325.85 800.6 1320.7 805.75 1320.7 812.1C1320.7 818.45 1325.85 823.6 1332.2 823.6Z" fill="white" stroke="#201E28" stroke-width="4"/>
<path d="M1342.94 606.01L1297.4 437.34L1194.71 465.07L1170.82 506.63L1207.53 642.58L1342.94 606.01Z" fill="white" stroke="#201E28" stroke-width="4"/>
<path d="M1203.54 497.79L1194.71 465.07L1170.82 506.63L1203.54 497.79Z" fill="white" stroke="#201E28" stroke-width="4"/>
<path d="M1209.34 519L1273.11 501.78" stroke="#201E28" stroke-width="4" stroke-linecap="round"/>
<path d="M1221.99 565.81L1272.74 552.13" stroke="#201E28" stroke-width="4" stroke-linecap="round"/>
<path d="M1215.69 542.38L1254.07 532.05" stroke="#201E28" stroke-width="4" stroke-linecap="round"/>
<path d="M1349.57 372.39H1296.82C1277.43 372.39 1261.66 388.16 1261.66 407.56C1261.66 424.82 1274.2 439.49 1291.23 442.25V460.3L1317.01 442.72H1349.57C1368.96 442.72 1384.73 426.95 1384.73 407.56C1384.73 388.08 1368.96 372.39 1349.57 372.39Z" fill="white" stroke="#201E28" stroke-width="4"/>
<path d="M1303.45 411.809C1306.1 411.809 1308.26 409.659 1308.26 406.999C1308.26 404.349 1306.1 402.189 1303.45 402.189C1300.79 402.189 1298.64 404.349 1298.64 406.999C1298.64 409.659 1300.79 411.809 1303.45 411.809Z" fill="white" stroke="#201E28" stroke-width="4"/>
<path d="M1323.16 411.809C1325.81 411.809 1327.97 409.659 1327.97 406.999C1327.97 404.349 1325.81 402.189 1323.16 402.189C1320.5 402.189 1318.35 404.349 1318.35 406.999C1318.35 409.659 1320.5 411.809 1323.16 411.809Z" fill="white" stroke="#201E28" stroke-width="4"/>
<path d="M1342.95 411.809C1345.6 411.809 1347.76 409.659 1347.76 406.999C1347.76 404.349 1345.6 402.189 1342.95 402.189C1340.29 402.189 1338.14 404.349 1338.14 406.999C1338.14 409.659 1340.29 411.809 1342.95 411.809Z" fill="white" stroke="#201E28" stroke-width="4"/>
<path d="M480.93 1032.36C516.18 1032.36 544.75 1003.79 544.75 968.55C544.75 933.31 516.18 904.74 480.93 904.74C445.69 904.74 417.12 933.31 417.12 968.55C417.12 1003.79 445.69 1032.36 480.93 1032.36Z" fill="white" stroke="#201E28" stroke-width="4"/>
<path d="M480.93 1006.98C502.16 1006.98 519.36 989.77 519.36 968.55C519.36 947.32 502.16 930.12 480.93 930.12C459.71 930.12 442.51 947.32 442.51 968.55C442.51 989.77 459.71 1006.98 480.93 1006.98Z" fill="white" stroke="#201E28" stroke-width="4"/>
<path d="M493.98 947.94L480.93 968.55L490.56 980.88" stroke="#201E28" stroke-width="4" stroke-linecap="round" stroke-linejoin="round"/>
<path d="M501.23 751.86C537.64 751.86 567.16 722.34 567.16 685.93C567.16 649.52 537.64 620 501.23 620C464.82 620 435.3 649.52 435.3 685.93C435.3 722.34 464.82 751.86 501.23 751.86Z" fill="white" stroke="#201E28" stroke-width="4"/>
<path d="M497.66 710.6C496.27 710.6 494.96 710.08 493.99 709.07L471.02 686.1C468.97 684.06 468.97 680.77 471.02 678.76C473.06 676.75 476.35 676.71 478.36 678.76L497.14 697.54L523.64 663.27C525.41 660.99 528.67 660.57 530.92 662.34C533.21 664.1 533.62 667.36 531.85 669.61L501.71 708.55C500.81 709.73 499.43 710.46 497.94 710.56C497.87 710.56 497.76 710.6 497.66 710.6Z" fill="white" stroke="#201E28" stroke-width="4"/>
<path d="M794.9 269.05C778.1 259.75 761.9 255.75 751.1 260.05C726.1 268.95 714.8 311.05 714.4 312.75C714.4 312.75 705.2 312.65 703.9 316.35C702.4 320.95 709.1 327.75 709.1 327.75C705.5 338.15 701.5 352.25 707.4 364.45C713 375.95 727.7 381.95 746.1 378.95L745.5 385.75L817.1 396.55C818 393.55 823.3 339.35 824.3 329.05C826.3 307.25 821.8 283.85 794.9 269.05Z" fill="white" stroke="#201E28" stroke-width="4"/>
<path d="M990.6 1062.05L1063.1 1029.25L1059.29 1009.02C1058.6 1004.85 1057.5 1000.85 1056.4 997.05C1055.6 994.35 1054.8 991.55 1053.9 988.75C1050.5 977.55 1046.4 965.05 1041.4 951.25C1036.3 937.05 1031 924.25 1025.6 912.45L927.5 947.05C941 967.55 954 988.45 962.1 1004.95C964.3 1009.15 966.1 1013.75 967.7 1018.25L990.6 1062.05Z" fill="white" stroke="#201E28" stroke-width="4"/>
<path d="M1029.5 1021.75C1016.3 1027.35 1012.3 1049.15 1003.9 1050.45C995.6 1051.75 1003.3 1030.75 998.1 1018.45C993.5 1007.65 982.9 1011.55 967.4 1018.15C968.4 1020.95 969.2 1023.75 969.9 1026.55C971.4 1033.05 971.6 1038.65 970.1 1043.05C962.2 1066.05 941.5 1078.15 941 1100.05L941.1 1100.65L1068.1 1046.65V1046.55C1065.7 1034.05 1062.8 1021.25 1059.4 1008.75L1029.5 1021.75Z" fill="white" stroke="#201E28" stroke-width="4"/>
<path d="M985.9 1044.35L970.63 1042.92" stroke="#201E28" stroke-width="4" stroke-linecap="round" stroke-linejoin="round"/>
<path d="M981.9 1060.55L964.91 1055.18" stroke="#201E28" stroke-width="4" stroke-linecap="round" stroke-linejoin="round"/>
<path d="M701.6 364.05C693.3 360.35 685.4 374.751 678.1 382.451C674.7 386.051 670.6 387.851 668.9 384.451C661.7 370.151 695.5 366.051 698.6 359.951C701.7 353.851 696.6 349.751 684.3 351.751C665.9 346.651 648.8 354.95 641.3 367.05C633.1 380.35 633.8 384.55 617.8 413.05C614.9 418.25 611.9 423.851 609.1 429.451L656.4 459.351L682.3 415.151C682.2 415.151 710.8 368.15 701.6 364.05Z" fill="white" stroke="#201E28" stroke-width="4"/>
<path d="M865.2 439.75C851.9 415.75 829.4 401.85 817.1 396.75C817.4 395.85 818 390.95 818.7 384.15L745.5 384.45L744.4 395.55C744.4 395.55 725.1 395.95 711.7 399.65C700.5 402.75 692.3 405.95 682 415.15L651.3 451.85L609.5 428.15C589.3 468.35 573.8 517.95 603.2 541.85C642.1 573.55 702.4 515.35 702.4 515.35L723.1 582.95L835.7 584.75L855.9 601.05C855.9 601.05 871.9 599.55 881.3 594.05C925.4 568.85 880.6 467.35 865.2 439.75Z" fill="white" stroke="#201E28" stroke-width="4"/>
<path d="M911.2 438.65C903 375.25 838.6 377.25 829.4 330.25C823.9 302.15 824.6 279.75 797.7 264.85C780.9 255.55 761.9 255.75 751.1 260.05C737.6 264.85 728.4 278.05 723.1 289.45L737.7 302.35C737.7 302.35 761.33 289.26 760.9 290.25C750.7 303.55 745.9 310.25 745.9 310.25L761.7 325.45C761.7 325.45 792.3 309.05 798.6 328.65C804.9 348.25 774.1 361.95 774.1 361.95C768 419.15 793.6 438.75 793.6 438.75H816.5C816.5 438.75 809.34 408.48 811 410.15C820.2 422.45 836.1 438.75 836.1 438.75L911.2 438.65Z" fill="white" stroke="#201E28" stroke-width="4"/>
<path d="M835.6 582.85L849.8 496.95" stroke="#201E28" stroke-width="4" stroke-linecap="round" stroke-linejoin="round"/>
<path d="M842.7 548.05L857 554.15" stroke="#201E28" stroke-width="4" stroke-linecap="round" stroke-linejoin="round"/>
<path d="M703.2 514.65L725.1 496.45" stroke="#201E28" stroke-width="4" stroke-linecap="round" stroke-linejoin="round"/>
<path d="M657.6 362.951C664.68 357.561 674.93 353.401 684.14 351.811" stroke="#201E28" stroke-width="4" stroke-linecap="round" stroke-linejoin="round"/>
<path d="M718.8 336.85L727.2 336.45" stroke="#201E28" stroke-width="4" stroke-linecap="round" stroke-linejoin="round"/>
<path d="M746.8 378.851C750.9 377.351 754.9 375.851 758.9 374.351" stroke="#201E28" stroke-width="4" stroke-linecap="round" stroke-linejoin="round"/>
<path d="M745.5 395.65H754.6" stroke="#201E28" stroke-width="4" stroke-linecap="round" stroke-linejoin="round"/>
<path d="M771 341.251L780 336.851" stroke="#201E28" stroke-width="4" stroke-linecap="round" stroke-linejoin="round"/>
<path d="M729.7 319.35C731.47 319.35 732.9 317.92 732.9 316.15C732.9 314.38 731.47 312.95 729.7 312.95C727.93 312.95 726.5 314.38 726.5 316.15C726.5 317.92 727.93 319.35 729.7 319.35Z" fill="#201E28" stroke="#201E28" stroke-width="4"/>
<path d="M826.9 280.15C842.42 280.15 855 267.57 855 252.05C855 236.53 842.42 223.95 826.9 223.95C811.38 223.95 798.8 236.53 798.8 252.05C798.8 267.57 811.38 280.15 826.9 280.15Z" fill="white" stroke="#201E28" stroke-width="4"/>
<path d="M774.1 240.25L841.7 302.65" stroke="#201E28" stroke-width="4" stroke-linecap="round" stroke-linejoin="round"/>
<path d="M836.1 1045.55C837.5 1032.95 838.7 1018.45 839.6 1002.15C840.4 988.35 840.6 975.35 840.2 963.35L738 963.25C742.3 987.25 745.5 1009.75 745.7 1027.25C745.7 1030.75 745.7 1033.95 745.5 1037.15L753 1079.35L769.2 1091.95L827.4 1085.35L833.6 1064.65C834.2 1060.35 834.8 1056.05 835.3 1051.75C835.7 1049.65 836 1047.65 836.1 1045.55Z" fill="white" stroke="#201E28" stroke-width="4"/>
<path d="M767.9 1080.95C759.7 1078.95 775.1 1062.55 775.1 1049.25C775.1 1037.15 763.3 1036.95 745.6 1036.95H745.5C745.1 1042.65 744.2 1047.65 742.8 1051.65C741.9 1054.35 740.4 1056.95 738.5 1059.05C722.1 1077.15 698.5 1080.85 689.4 1099.95L689.5 1104.15L825.9 1102.25L827.4 1099.95C830 1088.15 832.1 1076.25 833.7 1064.45H802.7C788.5 1064.55 776.2 1083.05 767.9 1080.95Z" fill="white" stroke="#201E28" stroke-width="4"/>
<path d="M959.3 802.75C930.6 762.35 923.8 711.45 899.1 661.15C874.4 610.85 835.5 582.85 835.5 582.85H801.1C801.1 582.75 801 582.75 801 582.75H723.1C723.1 582.75 704.2 706.35 720.3 858.05C723.7 890.65 731.8 930.75 738 965.45L857.7 966.05C866.9 933.15 830.4 890.15 821.4 851.85C815.6 826.85 819.5 796.65 824.3 765.55C839.9 797.95 857.2 831.95 875.4 864.95C890.1 891.45 910.3 920.95 928.4 948.55L1044.3 906.05C1035 852.85 973.9 823.25 959.3 802.75Z" fill="white" stroke="#201E28" stroke-width="4"/>
<path d="M751.2 1067.05L737.93 1059.74" stroke="#201E28" stroke-width="4" stroke-linecap="round" stroke-linejoin="round"/>
<path d="M740.7 1079.35L728.43 1068.84" stroke="#201E28" stroke-width="4" stroke-linecap="round" stroke-linejoin="round"/>
<path d="M872.4 620.45H854.1L859.6 640.85C862.4 651.15 873.6 659.45 881.8 659.45C888.6 659.45 892.5 657.35 894.9 653.95" stroke="#201E28" stroke-width="4" stroke-linecap="round" stroke-linejoin="round"/>
<path d="M824.2 765.55C827.6 737.05 835.9 709.15 837.6 681.45" stroke="#201E28" stroke-width="4" stroke-linecap="round" stroke-linejoin="round"/>
<path d="M799.7 659.55C809.9 659.55 816 651.25 813.3 641.05L807.8 620.75H770.8L776.3 641.05C779.1 651.25 789.6 659.55 799.7 659.55Z" stroke="#201E28" stroke-width="4" stroke-linecap="round" stroke-linejoin="round"/>
<path d="M743.8 583.95C738.1 627.95 736.1 744.15 747.6 811.95C758.8 878.45 775.2 912.15 778.7 962.75" stroke="#201E28" stroke-width="4" stroke-linecap="round" stroke-linejoin="round"/>
<path d="M621 493.351L650.6 452.351" stroke="#201E28" stroke-width="4" stroke-linecap="round" stroke-linejoin="round"/>
<path d="M1070.3 1061.55L943.5 1115.05C941.7 1110.25 940.8 1104.85 940.9 1099.75L1068 1046.15C1069.9 1056.05 1070.3 1061.55 1070.3 1061.55Z" fill="white" stroke="#201E28" stroke-width="4"/>
<path d="M823.5 1115.05H685.9C686.2 1109.85 687.4 1104.75 689.5 1100.05H827.5C825.2 1110.15 823.5 1115.05 823.5 1115.05Z" fill="white" stroke="#201E28" stroke-width="4"/>
<path d="M351.41 883.24L362.75 817.9L297.4 829.24L312.56 844.4L285.16 871.8L308.85 895.49L336.25 868.09L351.41 883.24Z" fill="white" stroke="#201E28" stroke-width="4"/>
</g>
<defs>
<clipPath id="clip0_3187_50330">
<rect width="1600" height="1200" fill="white"/>
</clipPath>
</defs>
</svg>
