<svg width="1600" height="1200" viewBox="0 0 1600 1200" fill="none" xmlns="http://www.w3.org/2000/svg">
<g clip-path="url(#clip0_3189_50557)">
<path d="M1600 0H0V1200H1600V0Z" fill="white"/>
<path d="M1214.27 666.59L1344.67 676.22" stroke="#201E28" stroke-width="4" stroke-linecap="round" stroke-linejoin="round"/>
<path d="M1166.85 708.109L1220.7 779.259" stroke="#201E28" stroke-width="4" stroke-linecap="round" stroke-linejoin="round"/>
<path d="M322.81 474.93L255.69 458.84" stroke="#201E28" stroke-width="4" stroke-linecap="round" stroke-linejoin="round"/>
<path d="M386.66 542.1L286.58 573.11" stroke="#201E28" stroke-width="4" stroke-linecap="round" stroke-linejoin="round"/>
<path d="M403.54 607.07L367.8 648.47" stroke="#201E28" stroke-width="4" stroke-linecap="round" stroke-linejoin="round"/>
<path d="M398.45 1040.15H314.68L305.16 949.67H407.97L398.45 1040.15Z" fill="white" stroke="#201E28" stroke-width="4"/>
<path d="M418.19 933.54H294.94V969.71H418.19V933.54Z" fill="white" stroke="#201E28" stroke-width="4"/>
<path d="M425.67 907.34C444.55 901.34 456.27 885.19 451.84 871.26C447.42 857.35 428.53 850.92 409.65 856.92C390.76 862.93 379.05 879.08 383.47 893C387.9 906.92 406.79 913.34 425.67 907.34Z" fill="white" stroke="#201E28" stroke-width="4"/>
<path d="M306.39 906.5C329.03 900.58 343.29 880.11 338.23 860.78C333.18 841.45 310.71 830.59 288.07 836.52C265.42 842.45 251.17 862.92 256.23 882.24C261.29 901.57 283.74 912.43 306.39 906.5Z" fill="white" stroke="#201E28" stroke-width="4"/>
<path d="M406.16 808.43C413.79 783.05 403.18 757.42 382.46 751.19C361.74 744.95 338.75 760.48 331.12 785.87C323.49 811.25 334.1 836.89 354.82 843.12C375.54 849.35 398.53 833.82 406.16 808.43Z" fill="white" stroke="#201E28" stroke-width="4"/>
<path d="M381.71 751.78C354.36 833.64 356.06 933.54 356.06 933.54" stroke="#201E28" stroke-width="4" stroke-linecap="round" stroke-linejoin="round"/>
<path d="M451.45 871.62C381.01 881.14 357.27 907.8 357.27 907.8" stroke="#201E28" stroke-width="4" stroke-linecap="round" stroke-linejoin="round"/>
<path d="M405.86 969.71H307.27" stroke="#201E28" stroke-width="4" stroke-linecap="round" stroke-linejoin="round"/>
<path d="M256.27 882.65C310.57 846.98 357.27 866.31 357.27 866.31" stroke="#201E28" stroke-width="4" stroke-linecap="round" stroke-linejoin="round"/>
<path d="M1084.3 176.94V298.7" stroke="#201E28" stroke-width="4" stroke-linecap="round" stroke-linejoin="round"/>
<path d="M1106.06 394.731C1112.33 382.761 1107.72 367.991 1095.75 361.721C1083.79 355.451 1069.02 360.071 1062.75 372.031C1056.48 383.991 1061.09 398.771 1073.06 405.041C1085.02 411.311 1099.8 406.691 1106.06 394.731Z" fill="white" stroke="#201E28" stroke-width="4"/>
<path d="M1141.9 353.481L1126.31 344.961C1115.49 339.081 1107.82 328.861 1105.18 316.841L1102.79 306.021C1100.58 295.881 1090.52 289.411 1080.38 291.711C1073.23 293.331 1067.6 298.871 1066.07 306.021L1063.68 316.841C1061.04 328.861 1053.29 339.081 1042.55 344.961L1026.96 353.481C1015.55 359.701 1007.79 370.951 1006.17 383.811H1162.86C1161.07 370.951 1153.31 359.701 1141.9 353.481Z" fill="white" stroke="#201E28" stroke-width="4"/>
<path d="M1018.53 359.44H1149.88" stroke="#201E28" stroke-width="4" stroke-linecap="round" stroke-linejoin="round"/>
<path d="M924.67 182.14C896.99 222.07 842.66 303.06 756.97 335.02C671.29 366.99 641.67 328.18 672.52 288.15C705.2 245.76 806.91 209.41 874.22 206.44C941.52 203.48 970.42 221.87 968.27 245.46C965.52 276.4 895.97 346.15 792.21 341.66C688.45 337.17 768.82 210.33 810.8 179.48C849.6 150.99 879.73 152.83 883.82 184.18C888.51 219.72 859.1 332.47 752.79 389.66" stroke="#201E28" stroke-width="4" stroke-linecap="round" stroke-linejoin="round"/>
<path d="M526.84 342.53C559.62 342.53 586.2 315.96 586.2 283.17C586.2 250.39 559.62 223.81 526.84 223.81C494.06 223.81 467.48 250.39 467.48 283.17C467.48 315.96 494.06 342.53 526.84 342.53Z" fill="white" stroke="#201E28" stroke-width="4"/>
<path d="M556.26 288.33C546.72 297.88 531.22 297.88 521.59 288.33C511.96 278.79 512.05 263.3 521.59 253.67C522.11 253.14 522.11 252.26 521.59 251.65C521.24 251.3 520.8 251.13 520.36 251.21C502.5 254.45 490.6 271.61 493.84 289.47C497.08 307.33 514.24 319.24 532.09 316C545.66 313.55 556.26 302.95 558.62 289.38C558.71 288.6 558.27 287.9 557.48 287.81C557.13 287.81 556.61 287.98 556.26 288.33Z" fill="white" stroke="#201E28" stroke-width="4"/>
<path d="M807.84 699.24C801.68 699.24 796.36 696.82 792.86 692.59C789.24 688.25 787.91 682.33 789.24 676.17L798.29 629.43C800.83 616.74 813.27 606.36 825.95 606.36H1001.93C1008.09 606.36 1013.41 608.77 1016.91 613C1020.53 617.35 1021.86 623.27 1020.53 629.43L1011.47 676.17C1008.94 688.85 996.5 699.24 983.81 699.24H807.84Z" fill="white" stroke="#201E28" stroke-width="4"/>
<path d="M810.37 791.031C810.25 791.031 810.01 791.031 809.89 791.031C808.56 790.791 807.72 789.461 807.96 788.251L825.35 698.881C825.59 697.551 826.92 696.701 828.13 696.941C829.46 697.181 830.3 698.511 830.06 699.721L812.67 789.101C812.55 790.191 811.46 791.031 810.37 791.031Z" fill="white" stroke="#201E28" stroke-width="4"/>
<path d="M949.27 791.031C949.15 791.031 948.91 791.031 948.79 791.031C947.46 790.791 946.61 789.461 946.86 788.251L964.25 698.881C964.49 697.551 965.82 696.701 967.03 696.941C968.35 697.181 969.2 698.511 968.96 699.721L951.57 789.101C951.45 790.191 950.36 791.031 949.27 791.031Z" fill="white" stroke="#201E28" stroke-width="4"/>
<path d="M660.83 1037.43C660.71 1037.43 660.47 1037.43 660.35 1037.43C659.02 1037.18 658.18 1035.86 658.42 1034.65L700.93 813.62C701.17 812.29 702.5 811.44 703.71 811.69C705.04 811.93 705.88 813.26 705.64 814.46L663.13 1035.49C663.01 1036.58 661.92 1037.43 660.83 1037.43Z" fill="white" stroke="#201E28" stroke-width="4"/>
<path d="M762.77 1037.43C762.65 1037.43 762.41 1037.43 762.29 1037.43C760.96 1037.18 760.12 1035.86 760.36 1034.65L802.87 813.62C803.11 812.29 804.44 811.44 805.65 811.69C806.98 811.93 807.82 813.26 807.58 814.46L765.07 1035.49C764.95 1036.58 763.86 1037.43 762.77 1037.43Z" fill="white" stroke="#201E28" stroke-width="4"/>
<path d="M1005.79 1037.43C1004.7 1037.43 1003.61 1036.58 1003.37 1035.49L960.85 814.46C960.61 813.13 961.46 811.93 962.79 811.69C964.12 811.44 965.32 812.29 965.56 813.62L1008.08 1034.65C1008.32 1035.98 1007.48 1037.18 1006.15 1037.43C1006.03 1037.43 1005.91 1037.43 1005.79 1037.43Z" fill="white" stroke="#201E28" stroke-width="4"/>
<path d="M903.85 1037.43C902.76 1037.43 901.67 1036.58 901.43 1035.49L858.91 814.46C858.67 813.13 859.52 811.93 860.85 811.69C862.18 811.44 863.38 812.29 863.63 813.62L906.14 1034.65C906.38 1035.98 905.54 1037.18 904.21 1037.43C904.21 1037.43 903.97 1037.43 903.85 1037.43Z" fill="white" stroke="#201E28" stroke-width="4"/>
<path d="M698.29 815.19C690.92 815.19 685 809.27 685 801.9C685 794.53 690.92 788.62 698.29 788.62H967.63C975 788.62 980.92 794.53 980.92 801.9C980.92 809.27 975 815.19 967.63 815.19H698.29Z" fill="white" stroke="#201E28" stroke-width="4"/>
<path d="M855.3 815.19C847.94 815.19 842.02 809.27 842.02 801.9C842.02 794.53 847.94 788.62 855.3 788.62H967.63C975 788.62 980.92 794.53 980.92 801.9C980.92 809.27 975 815.19 967.63 815.19H855.3Z" fill="white" stroke="#201E28" stroke-width="4"/>
<path d="M847.89 470.92L841.15 452.57C841.04 452.35 837.17 443.17 831.42 430.57C823.68 413.66 809.86 395.64 798.92 376.63C788.53 358.5 774.38 349.77 754.93 349.77C739.56 349.77 726.3 353.3 715.91 363.58C695.35 384.14 697.78 400.39 701.1 413.22C704.52 426.7 707.84 435.32 716.9 458.32C721.99 471.03 732.82 484.51 748.07 484.51C748.96 484.51 749.95 484.4 750.73 484.29C763.33 482.41 769.96 477.22 770.96 476.44C771.07 476.44 771.07 476.44 771.18 476.44L774.38 485.29L779.14 504.52L822.02 520.22L847.89 470.92Z" fill="white" stroke="#201E28" stroke-width="4"/>
<path d="M813.07 435.32C821.03 435.32 827.11 433.67 831.31 430.57C831.31 430.57 831.42 430.46 831.31 430.46C820.48 406.69 810.2 386.24 801.46 371.32C791.07 353.19 774.6 343.25 755.15 343.25C739.78 343.25 723.76 349.77 713.37 360.05C692.81 380.61 697.56 400.17 700.88 412.99C700.88 412.99 700.88 413.11 700.99 413.11C701.87 413.33 712.48 415.65 721.32 403.82C721.32 403.71 721.43 403.71 721.55 403.82C729.73 417.97 746.2 409.68 747.52 408.9H747.63C748.18 409.79 752.72 417.2 761.89 417.42C761.89 417.42 762 417.42 762 417.31C762.22 416.75 762.55 416.09 762.78 415.54C766.2 407.36 773.28 390 786.54 390C788.75 390 791.07 390.45 793.51 391.44C798.48 393.43 801.8 396.86 803.45 401.5C807.43 413.77 797.82 431.45 797.04 433C797.04 433.11 797.04 433.11 797.15 433.11C798.15 433.55 805.11 435.32 813.07 435.32Z" fill="white" stroke="#201E28" stroke-width="4"/>
<path d="M781.35 421.4L786.98 410.78" stroke="#201E28" stroke-width="4" stroke-linecap="round" stroke-linejoin="round"/>
<path d="M740.45 461.52C741.66 458.65 744.43 456.44 747.74 455.88" stroke="#201E28" stroke-width="4" stroke-linecap="round" stroke-linejoin="round"/>
<path d="M728.3 444.94C728.96 447.37 730.07 450.02 730.84 450.58C731.95 451.13 732.94 451.24 734.16 451.13" stroke="#201E28" stroke-width="4" stroke-linecap="round" stroke-linejoin="round"/>
<path d="M742.88 428.8C741 430.68 738.68 432.01 736.14 432.23" stroke="#201E28" stroke-width="4" stroke-linecap="round" stroke-linejoin="round"/>
<path d="M718.23 440.3C716.35 441.62 714.47 442.51 712.37 443.06" stroke="#201E28" stroke-width="4" stroke-linecap="round" stroke-linejoin="round"/>
<path d="M770.96 476.22C776.04 472.13 782.12 466.94 785.88 461.52" stroke="#201E28" stroke-width="4" stroke-linecap="round" stroke-linejoin="round"/>
<path d="M578.84 911.08C583.48 900.8 584.15 893.72 586.69 881.01C586.69 881.01 586.69 881.01 586.69 880.9L597.52 872.28L685.62 918.81V929.09C682.53 940.92 678.55 952.86 674.13 965.02C671.47 971.98 668.82 979.17 665.83 986.24L603.38 968.55L578.84 911.08Z" fill="white" stroke="#201E28" stroke-width="4"/>
<path d="M577.85 913.06C578.18 912.4 578.51 911.63 578.84 911.08L605.59 924.67C613.55 928.65 614.88 939.59 608.13 945.23L599.51 952.53C599.29 952.75 599.29 953.08 599.62 953.3L665.95 986.35C665.72 986.68 665.61 987.12 665.5 987.46C664.29 990.44 662.96 993.43 661.63 996.52C658.43 1003.82 655.11 1011.33 651.35 1018.85C651.13 1019.18 650.69 1020.06 650.58 1020.4L572.65 990.88L516.17 952.75C527.44 941.25 560.6 947.22 577.85 913.06Z" fill="white" stroke="#201E28" stroke-width="4"/>
<path d="M502.69 968.89C505.35 963.47 508.44 959.38 511.87 956.17C513.19 954.96 514.63 953.74 516.07 952.75L650.7 1019.95C647.83 1025.92 644.73 1031.89 641.53 1037.97L502.69 968.89Z" fill="white" stroke="#201E28" stroke-width="4"/>
<path d="M911.23 683.04L903.93 648.99L799.47 665.79C799.47 665.79 685.07 698.84 642.84 730.79C610.79 755 606.37 776.55 595.09 836.13C592.11 852.05 589.23 867.97 586.69 880.9C586.69 880.9 586.69 881.01 586.8 881.01L685.51 929.31C702.75 864.43 704.3 832.15 704.19 790.26L824.01 790.59C880.83 790.92 923.28 738.53 911.23 683.04Z" fill="white" stroke="#201E28" stroke-width="4"/>
<path d="M659.42 957.94C658.76 945.89 658.65 942.25 653.01 922.57L658.87 910.08L758.35 911.96L763 920.91C765.54 932.85 767.42 945.45 768.86 958.39C769.74 966.23 770.51 974.19 771.07 982.37C771.18 983.7 771.29 984.91 771.29 986.24C771.29 986.35 771.29 986.35 771.18 986.35L685.18 998.84L659.42 957.94Z" fill="white" stroke="#201E28" stroke-width="4"/>
<path d="M622.95 1017.19C634 998.73 658.1 993.54 659.42 957.94H688.49C697.34 957.94 703.42 967.01 699.99 975.19L695.57 985.47C695.46 985.8 695.68 986.24 696.01 986.24H771.18C771.29 986.24 771.29 986.24 771.29 986.35C771.4 988.23 771.62 990.11 771.73 991.99C772.17 1000.06 772.5 1008.24 772.61 1016.53V1019.51C772.61 1019.51 772.61 1019.62 772.5 1019.62L731.83 1026.7L621.73 1019.62C621.62 1019.62 621.62 1019.51 621.62 1019.51C622.06 1018.85 622.5 1017.96 622.95 1017.19Z" fill="white" stroke="#201E28" stroke-width="4"/>
<path d="M621.73 1019.62H772.5C772.61 1019.62 772.61 1019.62 772.61 1019.73C772.72 1025.81 772.61 1031.89 772.5 1038.19L617.53 1038.75C617.53 1032.67 618.41 1027.58 620.07 1023.38C620.51 1022.05 621.07 1020.84 621.73 1019.62C621.62 1019.62 621.62 1019.62 621.73 1019.62Z" fill="white"/>
<path d="M621.73 1019.62H772.5C772.61 1019.62 772.61 1019.62 772.61 1019.73C772.72 1025.81 772.61 1031.89 772.5 1038.19L617.53 1038.75C617.53 1032.67 618.41 1027.58 620.07 1023.38C620.51 1022.05 621.07 1020.84 621.73 1019.62ZM621.73 1019.62C621.62 1019.62 621.62 1019.62 621.73 1019.62Z" stroke="#201E28" stroke-width="4"/>
<path d="M923.83 648.99L783.23 652.2C783.23 652.2 751.72 665.57 715.69 676.85C676.78 689.01 632.78 708.35 617.53 735.98C597.41 772.46 623.5 820.32 640.3 878.47C644.72 894.05 649.36 909.64 653.01 922.35L762.89 920.91C763 920.91 763 920.8 763 920.8C749.18 855.36 736.14 828.28 717.23 791.03C717.23 790.92 717.23 790.81 717.35 790.81H788.42H876.74C955.22 791.03 967.93 705.7 923.83 648.99Z" fill="white" stroke="#201E28" stroke-width="4"/>
<path d="M610.46 772.02C612.33 802.31 628.58 837.789 640.3 878.469C644.72 894.049 649.36 909.639 653.01 922.349" stroke="#201E28" stroke-width="4" stroke-linecap="round" stroke-linejoin="round"/>
<path d="M695.35 986.35L680.2 1019.62" stroke="#201E28" stroke-width="4" stroke-linecap="round" stroke-linejoin="round"/>
<path d="M598.96 952.97L562.92 976.29" stroke="#201E28" stroke-width="4" stroke-linecap="round" stroke-linejoin="round"/>
<path d="M651.8 985.25L665.83 992.54" stroke="#201E28" stroke-width="4" stroke-linecap="round" stroke-linejoin="round"/>
<path d="M645.06 993.76L656.23 1005.36" stroke="#201E28" stroke-width="4" stroke-linecap="round" stroke-linejoin="round"/>
<path d="M563.92 930.97L576.74 943.46" stroke="#201E28" stroke-width="4" stroke-linecap="round" stroke-linejoin="round"/>
<path d="M555.41 937.38L562.37 952.86" stroke="#201E28" stroke-width="4" stroke-linecap="round" stroke-linejoin="round"/>
<path d="M717.12 790.81L700.99 762.96" stroke="#201E28" stroke-width="4" stroke-linecap="round" stroke-linejoin="round"/>
<path d="M715.69 676.85C715.69 676.85 724.75 595.27 734.81 548.4C744.87 501.54 773.83 485.29 774.16 485.18L775.6 489.38C776.48 492.03 777.81 494.46 779.69 497C784.44 503.3 791.96 507.17 800.03 507.17C805.44 507.17 810.53 505.51 814.95 502.31C835.29 487.28 841.04 452.9 841.15 452.57C849.33 450.36 857.51 449.14 865.46 449.14C915.98 449.14 942.18 488.49 956.22 512.37C979.76 552.49 1010.6 633.3 990.7 674.42C983.96 688.23 971.47 697.08 953.89 700.17C951.9 700.5 949.58 700.72 946.93 700.72C924.6 700.72 884.92 686.68 830.65 659.6L783.23 660.38C783.23 660.38 754.6 665.79 715.69 676.85Z" fill="white" stroke="#201E28" stroke-width="4"/>
<path d="M778.25 568.96L783.23 660.49" stroke="#201E28" stroke-width="4" stroke-linecap="round" stroke-linejoin="round"/>
<path d="M734.82 681.93C746.43 681.93 766.43 649.1 766.66 648.88C786.11 645.23 792.63 642.14 794.4 641.25C794.73 641.03 795.06 641.03 795.4 641.25C797.39 642.36 805.12 646.56 815.18 651.76L838.62 581.67C822.92 579.02 808.11 577.58 794.62 577.58C747.97 574.93 703.54 606.32 689.83 630.75C681.98 643.02 688.62 648.77 688.73 648.77C683.64 657.61 686.52 664.8 693.37 666.9C693.04 670.77 695.58 676.52 700.89 676.18C714.59 675.41 735.48 652.09 742.78 645.79C743.33 645.57 743.44 646.12 743.22 646.34C741.34 651.09 725.2 683.81 734.82 681.93Z" fill="white" stroke="#201E28" stroke-width="4"/>
<path d="M693.69 666.9C700.43 658.94 713.7 640.92 732.82 628.54" stroke="#201E28" stroke-width="4" stroke-linecap="round" stroke-linejoin="round"/>
<path d="M688.72 648.77C703.42 627.33 724.97 611.74 724.97 611.74" stroke="#201E28" stroke-width="4" stroke-linecap="round" stroke-linejoin="round"/>
<path d="M838.6 581.67C874.75 587.31 884.59 591.73 897.08 596.93" stroke="#201E28" stroke-width="4" stroke-linecap="round" stroke-linejoin="round"/>
<path d="M884.81 556.14L897.08 596.93" stroke="#201E28" stroke-width="4" stroke-linecap="round" stroke-linejoin="round"/>
<path d="M830.65 659.6L815.17 651.76" stroke="#201E28" stroke-width="4" stroke-linecap="round" stroke-linejoin="round"/>
<path d="M1106.26 664.04H1081.04V1038.51H1106.26V664.04Z" fill="white" stroke="#201E28" stroke-width="4"/>
<path d="M491.79 664.04H466.57V1038.51H491.79V664.04Z" fill="white" stroke="#201E28" stroke-width="4"/>
<path d="M435.76 650.04H1138.01C1139.67 650.03 1141.31 650.35 1142.85 650.98C1144.38 651.61 1145.77 652.54 1146.94 653.71C1148.11 654.89 1149.04 656.28 1149.67 657.81C1150.3 659.34 1150.62 660.99 1150.62 662.64C1150.62 664.3 1150.3 665.94 1149.67 667.48C1149.04 669.01 1148.11 670.4 1146.94 671.57C1145.77 672.75 1144.38 673.67 1142.85 674.3C1141.31 674.93 1139.67 675.26 1138.01 675.25H435.76C434.1 675.26 432.46 674.93 430.93 674.3C429.39 673.67 428 672.75 426.83 671.57C425.66 670.4 424.73 669.01 424.1 667.48C423.47 665.94 423.14 664.3 423.15 662.64C423.14 660.99 423.47 659.34 424.1 657.81C424.73 656.28 425.66 654.89 426.83 653.71C428 652.54 429.39 651.61 430.93 650.98C432.46 650.35 434.1 650.03 435.76 650.04Z" fill="white" stroke="#201E28" stroke-width="4"/>
<path d="M1210.83 824.05C1226.96 824.05 1240.12 837.2 1240.12 853.33V871.32H1181.54V853.33C1181.54 837.2 1194.59 824.05 1210.83 824.05Z" stroke="#201E28" stroke-width="4" stroke-linecap="round" stroke-linejoin="round"/>
<path d="M1210.83 852.82C1255.43 852.82 1291.5 888.89 1291.5 933.49V1037.8H1130.15V933.49C1130.15 888.99 1166.23 852.82 1210.83 852.82Z" fill="white" stroke="#201E28" stroke-width="4"/>
<path d="M1291.5 966.89H1130.15V1037.8H1291.5V966.89Z" fill="white" stroke="#201E28" stroke-width="4"/>
<path d="M1168.59 1003.69H1252.96" stroke="#201E28" stroke-width="4" stroke-linecap="round" stroke-linejoin="round"/>
<path d="M1210.76 891.899L1185.98 916.679L1210.76 941.459L1235.54 916.679L1210.76 891.899Z" fill="white" stroke="#201E28" stroke-width="4"/>
<path d="M1053.79 623.94C1054.65 623.94 1055.31 623.28 1055.31 622.42V586.59C1055.31 585.74 1054.65 585.07 1053.79 585.07H1003.83C993.5 585.07 985.06 593.51 985.06 603.84V605.08C985.06 615.5 993.5 623.94 1003.93 623.94H1053.79ZM1044.31 612.85H1003.93C999.66 612.85 996.15 609.34 996.15 605.08V603.94C996.15 599.67 999.66 596.17 1003.93 596.17H1044.31V612.85Z" fill="white" stroke="#201E28" stroke-width="4"/>
<path d="M1092.76 632.38L1100.91 561.66C1100.91 561.37 1100.53 561.18 1100.34 561.37C1097.02 565.35 1081.47 582.42 1056.45 583.08H1056.16C1038.34 583.08 1024.31 574.36 1012.36 561.28C1012.18 561.09 1011.8 561.18 1011.8 561.56L1019.85 632.38C1020.99 642.52 1029.52 650.11 1039.76 650.11H1072.94C1082.99 650.11 1091.62 642.52 1092.76 632.38Z" fill="white" stroke="#201E28" stroke-width="4"/>
<path d="M1056.26 584.98C1083.47 584.98 1097.78 565.45 1100.53 561.37C1100.72 561.09 1100.53 560.61 1100.15 560.61H1012.46C1012.08 560.61 1011.8 561.09 1012.08 561.37C1021.84 576.16 1038.15 584.98 1055.97 584.98H1056.26Z" fill="white" stroke="#201E28" stroke-width="4"/>
<path d="M460.32 614.27C448.77 614.27 437.87 604.86 436.02 593.31L412.68 446.24C412.19 443.62 412.28 440.93 412.95 438.35C413.62 435.77 414.85 433.37 416.54 431.32C418.25 429.37 420.37 427.81 422.75 426.77C425.13 425.72 427.71 425.21 430.31 425.28H653.27C664.81 425.28 675.71 434.68 677.56 446.23L700.9 593.3C701.46 595.88 701.42 598.56 700.78 601.12C700.14 603.69 698.93 606.08 697.22 608.1C695.52 610.12 693.38 611.73 690.96 612.8C688.55 613.87 685.92 614.37 683.28 614.27H460.32Z" fill="white" stroke="#201E28" stroke-width="4"/>
<path d="M495.62 650.599L522.38 550.629L592.89 550.609L566.13 650.599H495.62Z" fill="white" stroke="#201E28" stroke-width="4"/>
<path d="M549.28 512.73C541.86 512.73 534.58 507 531.15 498.48C529.07 493.56 528.7 488.09 530.09 482.93C530.64 480.72 531.69 478.66 533.17 476.91C534.64 475.17 536.5 473.79 538.6 472.88C540.18 472.25 541.88 471.92 543.58 471.93C551 471.93 558.28 477.65 561.71 486.17C566.03 496.89 562.68 508.38 554.26 511.77C552.67 512.41 550.98 512.73 549.28 512.73Z" fill="white" stroke="#201E28" stroke-width="4"/>
<path d="M505.85 613.54L522.41 551.79H592.9L576.34 613.54" stroke="#201E28" stroke-width="4" stroke-linecap="round" stroke-linejoin="round"/>
<path d="M582.66 650.6L582.63 648.27C582.63 644.63 584.08 641.14 586.65 638.57C589.22 636 592.71 634.56 596.35 634.55H821.95C825.59 634.56 829.07 636 831.64 638.57C834.22 641.14 835.66 644.63 835.67 648.27V650.6H582.66Z" fill="white" stroke="#201E28" stroke-width="4"/>
<path d="M741.34 650.6L741.31 648.27C741.32 644.63 742.76 641.14 745.33 638.57C747.9 636 751.39 634.56 755.03 634.55H821.95C825.59 634.56 829.07 636 831.64 638.57C834.22 641.14 835.66 644.63 835.67 648.27V650.6H741.34Z" fill="white" stroke="#201E28" stroke-width="4"/>
<path d="M982.98 976.02H1047.96C1048.7 976.02 1048.88 977.03 1048.14 977.31C1041.99 979.24 1029.67 983.56 1016.62 990.45C1003.85 997.16 990.33 1006.35 981.24 1018.11H939.14C939.14 1018.11 940.8 1011.22 946.86 1002.58C952.93 993.849 963.59 983.46 981.51 976.39C981.97 976.11 982.52 976.02 982.98 976.02Z" fill="white" stroke="#201E28" stroke-width="4"/>
<path d="M1072.87 1038.61H975.17V1017.38C975.17 1017.38 996.4 1002.86 1023.97 1002.86C1047.22 1002.86 1066.07 1013.24 1071.3 1016.46C1072.22 1017.01 1072.77 1018.02 1072.77 1019.12L1072.87 1038.61Z" fill="white" stroke="#201E28" stroke-width="4"/>
<path d="M975.63 1038.61H877.57V1017.56C877.57 1017.38 877.66 1017.29 877.75 1017.19C879.86 1015.82 900.27 1002.76 926.37 1002.76C953.94 1002.76 975.63 1017.29 975.63 1017.29V1038.61Z" fill="white" stroke="#201E28" stroke-width="4"/>
<path d="M878.03 1017.38C878.03 1017.38 899.26 1002.86 926.83 1002.86C954.4 1002.86 975.63 1017.38 975.63 1017.38V1038.61" stroke="#201E28" stroke-width="4" stroke-linecap="round" stroke-linejoin="round"/>
</g>
<defs>
<clipPath id="clip0_3189_50557">
<rect width="1600" height="1200" fill="white"/>
</clipPath>
</defs>
</svg>
