<svg width="40" height="40" viewBox="0 0 40 40" fill="none" xmlns="http://www.w3.org/2000/svg">
<path d="M15.6428 14.0321L19.3572 11.0744V31C19.3572 31.5523 19.805 32 20.3572 32C20.9095 32 21.3572 31.5523 21.3572 31V11.0742L25.0717 14.0321C25.4947 14.3871 26.1255 14.3319 26.4805 13.9088C26.8355 13.4858 26.7803 12.855 26.3572 12.5L21.0086 8.24078C20.9198 8.16446 20.8201 8.10598 20.7147 8.06577C20.6342 8.03497 20.5488 8.01426 20.4599 8.0052C20.4262 8.00176 20.3924 8.00003 20.3586 8L20.3572 8C20.1976 8 20.0466 8.03743 19.9127 8.10399C19.8395 8.14025 19.7701 8.1859 19.7062 8.24075L14.3572 12.5C13.9342 12.855 13.879 13.4858 14.234 13.9088C14.589 14.3319 15.2197 14.3871 15.6428 14.0321Z" fill="white"/>
</svg>
