<svg width="40" height="40" viewBox="0 0 40 40" fill="none" xmlns="http://www.w3.org/2000/svg">
<path d="M25.0717 25.9679L21.3572 28.9256L21.3572 9C21.3572 8.44771 20.9095 8 20.3572 8C19.805 8 19.3572 8.44772 19.3572 9L19.3572 28.9258L15.6428 25.9679C15.2197 25.6129 14.589 25.6681 14.234 26.0912C13.879 26.5142 13.9342 27.145 14.3572 27.5L19.7059 31.7592C19.7947 31.8355 19.8943 31.894 19.9998 31.9342C20.0803 31.965 20.1657 31.9857 20.2546 31.9948C20.2883 31.9982 20.3221 32 20.3559 32L20.3572 32C20.5169 32 20.6679 31.9626 20.8018 31.896C20.875 31.8597 20.9444 31.8141 21.0082 31.7592L26.3572 27.5C26.7803 27.145 26.8355 26.5142 26.4805 26.0912C26.1255 25.6681 25.4947 25.6129 25.0717 25.9679Z" fill="white"/>
</svg>
