<svg width="58" height="58" viewBox="0 0 58 58" fill="none" xmlns="http://www.w3.org/2000/svg">
<path fill-rule="evenodd" clip-rule="evenodd" d="M10 16C12.973 16 15.4409 13.8378 15.917 11H34.126C34.5701 12.7252 36.1362 14 38 14C39.7968 14 41.3168 12.8153 41.8217 11.1844C45.9188 12.0267 49 15.6536 49 20C49 24.9706 44.9706 29 40 29H33.874C33.4299 27.2748 31.8638 26 30 26C28.1362 26 26.5701 27.2748 26.126 29H20C13.9249 29 9 33.9249 9 40C9 45.4226 12.924 49.9288 18.0872 50.8342C18.4709 52.6429 20.077 54 22 54C23.8638 54 25.4299 52.7252 25.874 51H46.126C46.5701 52.7252 48.1362 54 50 54C52.2091 54 54 52.2091 54 50C54 48.1362 52.7252 46.5701 51 46.126V35.5C51 35.2239 50.7761 35 50.5 35H39C38.6007 35 38.3624 35.4451 38.584 35.7773L41.399 40L38.584 44.2227C38.3624 44.5549 38.6007 45 39 45H49V46.126C47.5945 46.4878 46.4878 47.5944 46.126 49H25.874C25.4299 47.2748 23.8638 46 22 46C20.2032 46 18.6832 47.1847 18.1783 48.8156C14.0812 47.9733 11 44.3464 11 40C11 35.0294 15.0294 31 20 31H26.126C26.5701 32.7252 28.1362 34 30 34C31.8638 34 33.4299 32.7252 33.874 31H40C46.0751 31 51 26.0751 51 20C51 14.5774 47.076 10.0712 41.9128 9.16577C41.5291 7.35706 39.923 6 38 6C36.1362 6 34.5701 7.27478 34.126 9H15.917C15.4409 6.16223 12.973 4 10 4C6.68628 4 4 6.68628 4 10C4 13.3137 6.68628 16 10 16ZM8.21973 7.28027C7.92676 6.98743 7.92676 6.51257 8.21973 6.21973C8.51257 5.92676 8.98743 5.92676 9.28027 6.21973L12.5303 9.46973C12.8232 9.76257 12.8232 10.2374 12.5303 10.5303L9.28027 13.7803C8.98743 14.0732 8.51257 14.0732 8.21973 13.7803C7.92676 13.4874 7.92676 13.0126 8.21973 12.7197L10.9393 10L8.21973 7.28027Z" fill="black"/>
</svg>
